<svg xmlns="http://www.w3.org/2000/svg" xmlns:xlink="http://www.w3.org/1999/xlink" width="145" zoomAndPan="magnify" viewBox="0 0 108.75 108.75" height="145" preserveAspectRatio="xMidYMid meet" version="1.0"><defs><clipPath id="591ec03172"><path d="M 1.71875 1.71875 L 106.71875 1.71875 L 106.71875 106.71875 L 1.71875 106.71875 Z M 1.71875 1.71875 " clip-rule="nonzero"/></clipPath></defs><path fill="#6b5a45" d="M 31.9375 25.777344 C 32.03125 25.378906 32.050781 24.957031 31.992188 24.519531 C 31.945312 24.078125 31.820312 23.578125 31.617188 23.035156 L 29.640625 24.042969 C 29.714844 24.277344 29.773438 24.507812 29.816406 24.726562 C 29.855469 24.953125 29.871094 25.160156 29.855469 25.363281 C 29.835938 25.558594 29.78125 25.746094 29.675781 25.9375 C 29.582031 26.125 29.4375 26.308594 29.226562 26.488281 C 28.695312 26.957031 28.136719 27.082031 27.527344 26.859375 C 26.890625 26.648438 26.199219 26.113281 25.449219 25.265625 C 25.308594 25.105469 25.15625 24.929688 24.996094 24.726562 C 24.832031 24.523438 24.6875 24.308594 24.554688 24.085938 C 24.414062 23.851562 24.296875 23.617188 24.191406 23.371094 C 24.097656 23.117188 24.042969 22.875 24.023438 22.636719 C 24.003906 22.390625 24.027344 22.160156 24.105469 21.9375 C 24.191406 21.699219 24.335938 21.480469 24.554688 21.292969 C 24.925781 20.964844 25.308594 20.816406 25.695312 20.851562 C 26.085938 20.894531 26.484375 21.027344 26.890625 21.25 L 28.125 19.488281 C 27.574219 19.144531 27.085938 18.914062 26.644531 18.789062 C 26.203125 18.65625 25.796875 18.621094 25.414062 18.699219 C 24.652344 18.832031 23.953125 19.1875 23.292969 19.761719 C 22.699219 20.292969 22.289062 20.859375 22.078125 21.453125 C 21.867188 22.046875 21.796875 22.65625 21.882812 23.265625 C 21.972656 23.863281 22.175781 24.464844 22.5 25.058594 C 22.824219 25.648438 23.21875 26.199219 23.679688 26.726562 C 24.148438 27.257812 24.660156 27.71875 25.199219 28.117188 C 25.742188 28.5 26.308594 28.78125 26.90625 28.941406 C 27.492188 29.101562 28.09375 29.109375 28.707031 28.96875 C 29.324219 28.835938 29.933594 28.5 30.535156 27.96875 C 31.296875 27.300781 31.765625 26.566406 31.9375 25.777344 Z M 31.9375 25.777344 " fill-opacity="1" fill-rule="nonzero"/><path fill="#6b5a45" d="M 35.109375 14.832031 C 35.261719 14.867188 35.414062 14.949219 35.546875 15.070312 C 35.6875 15.195312 35.8125 15.363281 35.925781 15.585938 C 36.050781 15.832031 36.097656 16.054688 36.085938 16.246094 C 36.066406 16.441406 35.996094 16.609375 35.882812 16.769531 C 35.765625 16.925781 35.617188 17.0625 35.433594 17.1875 C 35.246094 17.300781 35.058594 17.414062 34.863281 17.511719 L 33.652344 18.125 L 32.464844 15.804688 L 33.882812 15.082031 C 34.378906 14.832031 34.785156 14.75 35.109375 14.832031 Z M 39.472656 22.042969 L 41.746094 20.886719 L 37.546875 17.761719 C 37.980469 17.304688 38.234375 16.804688 38.304688 16.25 C 38.382812 15.691406 38.277344 15.125 37.996094 14.566406 C 37.746094 14.082031 37.449219 13.691406 37.117188 13.40625 C 36.78125 13.105469 36.410156 12.902344 36.011719 12.789062 C 35.625 12.675781 35.207031 12.65625 34.757812 12.726562 C 34.3125 12.789062 33.851562 12.941406 33.382812 13.179688 L 29.570312 15.125 L 34.402344 24.621094 L 36.4375 23.585938 L 34.523438 19.835938 L 35.820312 19.171875 Z M 39.472656 22.042969 " fill-opacity="1" fill-rule="nonzero"/><path fill="#6b5a45" d="M 49.671875 18.207031 C 50.21875 17.363281 50.359375 16.277344 50.085938 14.949219 L 48.75 8.46875 L 46.519531 8.929688 L 47.847656 15.382812 C 48.007812 16.1875 47.996094 16.777344 47.785156 17.160156 C 47.6875 17.347656 47.53125 17.511719 47.316406 17.644531 C 47.109375 17.769531 46.828125 17.875 46.46875 17.945312 C 45.804688 18.082031 45.316406 18.007812 44.992188 17.71875 C 44.652344 17.445312 44.398438 16.910156 44.230469 16.097656 L 42.910156 9.671875 L 40.679688 10.125 L 42.039062 16.703125 C 42.300781 18 42.855469 18.914062 43.699219 19.464844 C 44.554688 20 45.617188 20.136719 46.898438 19.875 C 48.199219 19.609375 49.121094 19.046875 49.671875 18.207031 Z M 49.671875 18.207031 " fill-opacity="1" fill-rule="nonzero"/><path fill="#6b5a45" d="M 52.480469 18.871094 L 59.785156 19.25 L 59.886719 17.273438 L 54.847656 17.019531 L 54.984375 14.425781 L 58.535156 14.59375 L 58.632812 12.648438 L 55.085938 12.46875 L 55.191406 10.320312 L 60.058594 10.574219 L 60.15625 8.601562 L 53.023438 8.230469 Z M 52.480469 18.871094 " fill-opacity="1" fill-rule="nonzero"/><path fill="#6b5a45" d="M 61.101562 19.59375 L 67.632812 21.390625 L 68.160156 19.480469 L 63.824219 18.292969 L 66.121094 9.921875 L 63.925781 9.320312 Z M 61.101562 19.59375 " fill-opacity="1" fill-rule="nonzero"/><path fill="#6b5a45" d="M 74.960938 15.472656 L 77.375 16.699219 L 78.261719 14.949219 L 71.417969 11.476562 L 70.527344 13.222656 L 72.929688 14.441406 L 68.996094 22.195312 L 71.023438 23.222656 Z M 74.960938 15.472656 " fill-opacity="1" fill-rule="nonzero"/><path fill="#6b5a45" d="M 80.25 24.382812 L 86.550781 21.265625 L 84.675781 19.753906 L 80.957031 21.691406 L 82.074219 17.644531 L 80.199219 16.132812 L 78.453125 22.984375 L 75.792969 26.273438 L 77.570312 27.707031 Z M 80.25 24.382812 " fill-opacity="1" fill-rule="nonzero"/><path fill="#6b5a45" d="M 36.136719 88.863281 L 40.296875 90.875 L 41.15625 89.101562 L 34.945312 86.09375 L 30.304688 95.679688 L 32.351562 96.671875 L 34.34375 92.5625 L 37.472656 94.058594 L 38.304688 92.296875 L 35.199219 90.792969 Z M 36.136719 88.863281 " fill-opacity="1" fill-rule="nonzero"/><path fill="#6b5a45" d="M 49.015625 93.066406 C 49.121094 93.183594 49.199219 93.339844 49.242188 93.519531 C 49.285156 93.695312 49.285156 93.910156 49.242188 94.15625 C 49.207031 94.429688 49.117188 94.640625 48.988281 94.785156 C 48.863281 94.925781 48.710938 95.027344 48.519531 95.085938 C 48.339844 95.148438 48.136719 95.179688 47.917969 95.171875 C 47.695312 95.15625 47.480469 95.136719 47.261719 95.101562 L 45.921875 94.898438 L 46.304688 92.316406 L 47.878906 92.554688 C 48.421875 92.640625 48.808594 92.804688 49.015625 93.066406 Z M 48.367188 101.472656 L 50.890625 101.847656 L 49.296875 96.871094 C 49.914062 96.75 50.410156 96.492188 50.792969 96.085938 C 51.183594 95.671875 51.421875 95.148438 51.523438 94.527344 C 51.605469 93.988281 51.59375 93.507812 51.480469 93.074219 C 51.382812 92.632812 51.207031 92.253906 50.941406 91.933594 C 50.691406 91.617188 50.367188 91.359375 49.964844 91.148438 C 49.554688 90.945312 49.09375 90.800781 48.578125 90.722656 L 44.347656 90.078125 L 42.746094 100.617188 L 44.996094 100.960938 L 45.625 96.792969 L 47.074219 97.015625 Z M 48.367188 101.472656 " fill-opacity="1" fill-rule="nonzero"/><path fill="#6b5a45" d="M 57.757812 101.652344 L 64.988281 100.515625 L 64.675781 98.5625 L 59.695312 99.34375 L 59.289062 96.785156 L 62.800781 96.21875 L 62.492188 94.296875 L 58.984375 94.847656 L 58.648438 92.730469 L 63.457031 91.96875 L 63.152344 90.015625 L 56.085938 91.136719 Z M 57.757812 101.652344 " fill-opacity="1" fill-rule="nonzero"/><path fill="#6b5a45" d="M 71.523438 98.34375 L 78.09375 95.136719 L 77.226562 93.359375 L 72.703125 95.570312 L 71.5625 93.238281 L 74.746094 91.667969 L 73.894531 89.917969 L 70.703125 91.476562 L 69.757812 89.546875 L 74.128906 87.410156 L 73.261719 85.636719 L 66.84375 88.769531 Z M 71.523438 98.34375 " fill-opacity="1" fill-rule="nonzero"/><g clip-path="url(#591ec03172)"><path fill="#6b5a45" d="M 54.199219 4.300781 C 81.820312 4.300781 104.1875 26.648438 104.1875 54.273438 C 104.1875 81.890625 81.820312 104.257812 54.199219 104.257812 C 26.582031 104.257812 4.21875 81.890625 4.21875 54.273438 C 4.21875 26.648438 26.582031 4.300781 54.199219 4.300781 Z M 54.199219 1.761719 C 25.210938 1.761719 1.679688 25.28125 1.679688 54.273438 C 1.679688 83.261719 25.210938 106.792969 54.199219 106.792969 C 83.191406 106.792969 106.726562 83.261719 106.726562 54.273438 C 106.726562 25.28125 83.191406 1.761719 54.199219 1.761719 Z M 54.199219 1.761719 " fill-opacity="1" fill-rule="evenodd"/></g><path fill="#6b5a45" d="M 35.324219 45.652344 C 36.207031 45.652344 36.925781 46.363281 36.925781 47.253906 C 36.925781 48.132812 36.207031 48.855469 35.324219 48.855469 C 34.4375 48.855469 33.722656 48.132812 33.722656 47.253906 C 33.722656 46.363281 34.4375 45.652344 35.324219 45.652344 Z M 43.574219 27.417969 C 43.304688 27.441406 42.917969 27.621094 42.449219 28.144531 C 41.519531 29.203125 40.722656 31.175781 40.386719 33.496094 C 40.132812 35.246094 40.140625 37.1875 40.433594 39.089844 C 34.96875 39.511719 29.574219 43.417969 28.210938 49.671875 C 27.59375 52.40625 27.820312 54.113281 28.820312 55.246094 C 29.8125 56.378906 31.785156 57.035156 34.933594 57.382812 C 36.925781 57.609375 36.324219 58.601562 36.257812 59.425781 C 35.902344 64.019531 36.882812 66.550781 38.101562 68.519531 C 39.371094 70.5625 40.980469 72 41.15625 74.34375 L 41.15625 74.351562 C 41.261719 75.875 41.042969 77.238281 40.863281 78.386719 C 40.820312 78.664062 40.582031 78.867188 40.300781 78.875 C 39.738281 78.890625 39.507812 78.972656 39.058594 79.21875 C 38.371094 79.582031 37.585938 81.097656 39.460938 81.140625 L 42.351562 81.140625 C 43.066406 81.140625 43.9375 80.582031 44.246094 79.824219 L 46.09375 75.371094 C 47.070312 73.421875 46.996094 71.714844 46.394531 70.078125 C 46.90625 70.105469 47.925781 71.300781 47.917969 72.558594 C 47.910156 73.6875 47.800781 74.511719 48.828125 74.917969 C 50.003906 75.394531 51.191406 75.847656 52.449219 76.210938 C 53.476562 76.511719 54.460938 76.726562 55.644531 76.355469 C 57.042969 75.910156 57.980469 75.78125 59.386719 75.71875 C 57.726562 74.019531 56.636719 71.929688 56.335938 69.65625 C 56.023438 67.265625 57.015625 64.921875 58.4375 62.964844 C 58.972656 62.214844 59.554688 62.574219 59.058594 63.328125 C 57.847656 65.207031 57.296875 67.351562 57.574219 69.511719 C 57.953125 72.371094 59.878906 74.972656 62.5625 76.992188 C 63.242188 77.496094 62.914062 78.171875 62.226562 77.683594 C 61.421875 77.121094 61.03125 76.820312 59.890625 76.875 C 58.527344 76.9375 57.136719 77.097656 55.996094 77.460938 C 54.589844 77.90625 53.652344 78.609375 53.375 79.808594 C 53.28125 80.214844 53.320312 80.488281 53.5 80.691406 C 53.679688 80.894531 54.136719 81.117188 55.121094 81.117188 L 64.421875 81.117188 C 68.605469 81.117188 72.5625 78.65625 74.988281 75.558594 C 76.144531 75.667969 77.296875 75.40625 78.375 74.746094 C 79.8125 73.863281 81.078125 72.320312 81.75 70.304688 C 82.191406 68.976562 81.785156 67.523438 80.882812 66.5625 C 80.214844 65.851562 79.316406 65.402344 78.234375 65.4375 C 78.207031 65.4375 78.171875 65.445312 78.144531 65.445312 C 77.976562 61.058594 75.96875 57.023438 72.859375 53.90625 C 67.996094 49.03125 60.480469 46.492188 53.3125 48.597656 C 51.910156 49.011719 50.519531 49.585938 49.15625 50.34375 C 48.785156 50.546875 48.324219 50.296875 48.296875 49.878906 C 48.109375 47.023438 47.234375 45.066406 46.253906 43.550781 C 46.222656 43.5 46.191406 43.4375 46.179688 43.382812 C 46.03125 43.144531 46.082031 42.835938 46.285156 42.648438 C 49.753906 39.519531 52.574219 35.050781 52.832031 32.070312 C 52.90625 31.207031 52.835938 30.527344 52.675781 30.050781 C 52.519531 29.570312 52.304688 29.308594 52.039062 29.164062 C 51.90625 29.09375 51.746094 29.042969 51.550781 29.039062 C 50.96875 29.003906 50.125 29.28125 49.046875 30.058594 C 46.378906 32.277344 44.578125 34.890625 43.601562 38.492188 C 43.402344 39.207031 42.699219 38.933594 42.886719 38.289062 C 43.550781 35.945312 44.636719 33.757812 45.886719 31.9375 C 45.613281 29.917969 45.027344 28.425781 44.433594 27.8125 C 44.101562 27.476562 43.847656 27.390625 43.574219 27.417969 Z M 43.574219 27.417969 " fill-opacity="1" fill-rule="evenodd"/><path fill="#6b5a45" d="M 20.503906 27.699219 C 20.28125 27.714844 20.070312 27.824219 19.9375 28.007812 C 12.910156 37.167969 9.847656 48.777344 11.4375 60.214844 C 13.023438 71.65625 19.136719 81.972656 28.394531 88.882812 C 28.730469 89.175781 29.25 89.128906 29.515625 88.761719 C 29.777344 88.40625 29.679688 87.894531 29.296875 87.65625 C 20.367188 81 14.476562 71.035156 12.949219 60 C 11.40625 48.957031 14.375 37.773438 21.148438 28.933594 C 21.566406 28.417969 21.171875 27.648438 20.503906 27.699219 Z M 20.503906 27.699219 " fill-opacity="1" fill-rule="evenodd"/><path fill="#6b5a45" d="M 87.890625 27.699219 C 88.117188 27.714844 88.324219 27.824219 88.457031 28.007812 C 95.488281 37.167969 98.550781 48.777344 96.960938 60.214844 C 95.375 71.65625 89.261719 81.972656 80.003906 88.882812 C 79.667969 89.175781 79.148438 89.128906 78.886719 88.761719 C 78.617188 88.40625 78.722656 87.894531 79.101562 87.65625 C 88.039062 81 93.925781 71.035156 95.460938 60 C 96.992188 48.957031 94.03125 37.773438 87.25 28.933594 C 86.828125 28.417969 87.230469 27.648438 87.890625 27.699219 Z M 87.890625 27.699219 " fill-opacity="1" fill-rule="evenodd"/></svg>