<?xml version="1.0" encoding="utf-8"?>
<!-- Generator: Adobe Illustrator 24.0.2, SVG Export Plug-In . SVG Version: 6.00 Build 0)  -->
<svg version="1.1" id="Capa_1" xmlns="http://www.w3.org/2000/svg" xmlns:xlink="http://www.w3.org/1999/xlink" x="0px" y="0px"
	 viewBox="0 0 32 32" style="enable-background:new 0 0 32 32;" xml:space="preserve">
<style type="text/css">
	.st0{fill:#FFFFFF;}
</style>
<path class="st0" d="M16,12.6c-1.9,0-3.4,1.5-3.4,3.4s1.5,3.4,3.4,3.4s3.4-1.5,3.4-3.4S17.9,12.6,16,12.6z"/>
<path class="st0" d="M20.6,7.6h-9.2c-2.1,0-3.8,1.7-3.8,3.8v9.2c0,2.1,1.7,3.8,3.8,3.8h9.2c2.1,0,3.8-1.7,3.8-3.8v-9.2
	C24.4,9.4,22.7,7.6,20.6,7.6z M16,21.2c-2.9,0-5.2-2.3-5.2-5.2c0-2.9,2.3-5.2,5.2-5.2s5.2,2.3,5.2,5.2C21.2,18.9,18.8,21.2,16,21.2z
	 M21.5,11.7c-0.7,0-1.2-0.6-1.2-1.2c0-0.7,0.6-1.2,1.2-1.2s1.2,0.6,1.2,1.2C22.8,11.2,22.2,11.7,21.5,11.7z"/>
<g>
	<g>
		<path class="st0" d="M16,0.6C7.4,0.6,0.5,7.5,0.5,16.1S7.4,31.5,16,31.5s15.5-6.9,15.5-15.5C31.5,7.5,24.5,0.6,16,0.6z M26.1,20.7
			c0,3-2.5,5.5-5.5,5.5h-9.2c-3.1,0-5.6-2.5-5.6-5.5v-9.2c0-3.1,2.5-5.6,5.6-5.6h9.2c3.1,0,5.6,2.5,5.6,5.6L26.1,20.7L26.1,20.7z"/>
	</g>
</g>
</svg>
