<?xml version="1.0" encoding="utf-8"?>
<!-- Generator: Adobe Illustrator 24.0.2, SVG Export Plug-In . SVG Version: 6.00 Build 0)  -->
<svg version="1.1" id="Capa_1" xmlns="http://www.w3.org/2000/svg" xmlns:xlink="http://www.w3.org/1999/xlink" x="0px" y="0px"
	 viewBox="0 0 256 48" style="enable-background:new 0 0 256 48;" xml:space="preserve">
<style type="text/css">
	.st0{fill:#FFFFFF;}
</style>
<path class="st0" d="M75.69,27.88c0,3.78-0.85,6.73-2.54,8.86c-0.59,0.75-1.08,1.3-1.47,1.63c-0.81,0.69-1.88,1.3-3.18,1.81
	c-1.05,0.42-2.41,0.63-4.09,0.63c-2.67,0-4.68-0.36-6.03-1.09c-0.98-0.53-1.81-1.2-2.48-2.03c-0.83-1-1.42-2.11-1.77-3.32
	c-0.44-1.45-0.65-3.36-0.65-5.72c0-1.61,0.21-3.15,0.62-4.59c0.49-1.71,1.22-3.15,2.19-4.32c0.97-1.17,2.37-2.14,4.19-2.91
	c1.28-0.54,2.71-0.81,4.29-0.81c2.39,0,4.21,0.31,5.47,0.92c1.42,0.68,2.53,1.61,3.33,2.8C74.98,21.8,75.69,24.52,75.69,27.88z
	 M73.04,28.85c0-1.72-0.18-3.23-0.55-4.52c-0.41-1.5-1.07-2.79-1.98-3.89c-0.83-1-1.81-1.76-2.95-2.28
	c-1.32-0.59-2.63-0.88-3.95-0.88c-1.71,0-2.94,0.29-3.7,0.88c-1.38,1.05-2.33,2.21-2.85,3.48c-0.69,1.67-1.04,3.72-1.04,6.14
	c0,3.56,0.62,6.37,1.86,8.41c0.75,1.24,1.87,2.24,3.37,2.98c1.17,0.59,2.45,0.88,3.83,0.88c1.56,0,3-0.47,4.32-1.4
	c1.03-0.72,1.91-1.95,2.65-3.7C72.71,33.36,73.04,31.33,73.04,28.85z"/>
<path class="st0" d="M104.99,40.6c0,0.14-0.04,0.22-0.13,0.22h-8.64c-0.15,0-0.22-0.06-0.22-0.18v-0.59c0-0.12,0.08-0.18,0.25-0.18
	h2.43c0.2,0,0.32-0.06,0.37-0.18s0.07-0.5,0.08-1.15c0.02-1.3,0.03-4.6,0.03-9.89c0-0.22-0.1-0.32-0.28-0.32H87.13
	c-0.2,0-0.3,0.13-0.3,0.39c0,3.88,0.01,6.26,0.03,7.14c0.07,2.67,0.32,4,0.75,4h2.81c0.09,0,0.13,0.07,0.13,0.22v0.56
	c0,0.12-0.04,0.18-0.13,0.18h-8.69c-0.13,0-0.2-0.06-0.2-0.18v-0.56c0-0.14,0.07-0.22,0.2-0.22h2.09c0.27,0,0.43-0.06,0.48-0.18
	s0.08-0.5,0.08-1.15c0-0.2-0.01-1.83-0.03-4.89s-0.03-4.75-0.03-5.08s-0.01-1.63-0.03-3.89c-0.02-2.27-0.03-3.48-0.03-3.63
	c0-2.43-0.18-3.64-0.55-3.64h-2.36c-0.13,0-0.2-0.06-0.2-0.18v-0.59c0-0.12,0.07-0.18,0.2-0.18h8.54c0.13,0,0.2,0.09,0.2,0.27v0.5
	c0,0.12-0.07,0.18-0.2,0.18h-2.51c-0.26,0-0.4,0.02-0.44,0.06c-0.04,0.04-0.06,0.18-0.06,0.42c0,6.38-0.01,9.26-0.03,8.67
	c0.01,0.27,0.1,0.41-0.77,0.41h11.75c1.23,0,1.32-0.11,1.32-0.34c0-0.08-0.01-1.04-0.02-2.86c-0.01-1.82-0.02-2.83-0.02-3.01
	c0-2.24-0.22-3.35-0.65-3.35h-2.58c-0.11,0-0.17-0.07-0.17-0.22v-0.56c0-0.12,0.08-0.18,0.23-0.18h8.57c0.14,0,0.22,0.09,0.22,0.27
	v0.47c0,0.14-0.07,0.22-0.22,0.22h-2.19c-0.32,0-0.51,0.03-0.57,0.09s-0.08,0.25-0.08,0.57v9.74c0,4.84,0.01,7.65,0.03,8.42
	c0.08,2.43,0.3,3.64,0.65,3.64h2.44c0.13,0,0.2,0.07,0.2,0.22V40.6z"/>
<path class="st0" d="M148.82,30.34c0,0.15-0.07,0.23-0.2,0.23h-2.38c-0.13,0-0.2,0.07-0.2,0.21c0-0.1-0.01,0.28-0.04,1.13
	c-0.03,0.85-0.04,1.68-0.04,2.49c0,1.47,0.04,2.84,0.12,4.09c0,0.17-0.06,0.26-0.18,0.29c-0.38,0-1.19,0.31-2.45,0.93
	c-1.9,0.92-3.91,1.37-6.04,1.37c-2.4,0-4.09-0.2-5.08-0.61c-1.81-0.76-3.23-1.93-4.26-3.52c-1.15-1.78-1.73-4.23-1.73-7.35
	c0-3.09,0.93-5.87,2.8-8.33c1.33-1.75,3.35-3.07,6.06-3.98c1.48-0.49,3.39-0.73,5.73-0.73c2.43,0,4.23,0.22,5.39,0.66
	c0.13,0.05,0.2,0.13,0.2,0.25c0,0.06-0.03,0.33-0.08,0.8c-0.07,0.53-0.11,0.84-0.12,0.93c-0.11,1.21-0.19,1.93-0.23,2.14
	c-0.03,0.13-0.09,0.2-0.18,0.2c-0.16,0-0.23-0.05-0.23-0.16c0-0.29-0.03-0.56-0.1-0.84c-0.12-0.46-0.42-0.86-0.88-1.2
	c-1.29-0.9-3.25-1.36-5.88-1.36c-1.44,0-2.64,0.18-3.6,0.53c-1.25,0.48-2.43,1.34-3.53,2.61c-1.76,2.05-2.65,4.65-2.65,7.81
	c0,3.49,0.94,6.24,2.83,8.26c1.08,1.17,2.3,1.95,3.66,2.36c0.91,0.26,2.13,0.39,3.66,0.39c1.36,0,2.69-0.46,3.98-1.39
	c0.1-0.13,0.15-0.24,0.15-0.32v-3.16c0-1.13-0.01-1.92-0.03-2.37c-0.08-1.43-0.19-2.14-0.35-2.14h-3.58c-0.13,0-0.2-0.11-0.2-0.34
	v-0.36c0-0.18,0.08-0.27,0.23-0.27h9.21c0.16,0,0.23,0.08,0.23,0.23v0.52H148.82z"/>
<path class="st0" d="M177.13,17.03c0,0.14-0.03,0.21-0.1,0.21h-0.95c-0.85,0-1.33,0.01-1.43,0.04c-0.06,0.23-0.08,0.49-0.08,0.79
	c-0.04,0.76-0.08,1.95-0.1,3.57c-0.01,2.3,0.02,5.35,0.08,9.17c0.11,6.85-2.52,10.28-7.89,10.28c-2.32,0-4.2-0.27-5.64-0.8
	c-1.44-0.54-2.48-1.47-3.11-2.82c-0.52-1.12-0.82-2.8-0.88-5.05c-0.04-1.46-0.07-5.13-0.07-10.99c0-2.78-0.22-4.17-0.65-4.17h-2.25
	c-0.12,0-0.18-0.06-0.18-0.18v-0.55c0-0.14,0.06-0.21,0.18-0.21h8.17c0.13,0,0.2,0.05,0.2,0.14V17c0,0.17-0.04,0.25-0.13,0.25h-2.31
	c-0.13,0-0.21,0.1-0.23,0.3c-0.07,0.49-0.1,4.41-0.1,11.76c0,2.56,0.07,4.29,0.2,5.19c0.25,1.7,0.99,2.99,2.21,3.87
	c1.22,0.88,2.88,1.32,4.98,1.32c2.09,0,3.76-0.67,5.01-2.02c0.95-1.02,1.43-3.04,1.43-6.07c0-4-0.03-6.95-0.1-8.87
	c-0.13-3.66-0.49-5.5-1.07-5.5h-2.15c-0.09,0-0.14-0.02-0.17-0.05c-0.02-0.04-0.03-0.08-0.03-0.12v-0.59c0-0.12,0.07-0.18,0.2-0.18
	h6.79c0.11,0,0.17,0.06,0.17,0.18L177.13,17.03L177.13,17.03z"/>
<path class="st0" d="M202.2,40.91c0,0.12-0.03,0.18-0.1,0.18h-7.68c-0.11,0-0.17-0.07-0.17-0.21V40.4c0-0.17,0.06-0.25,0.17-0.25
	h2.28c0.18,0,0.25-0.11,0.22-0.32c-0.1-0.38-0.48-1.62-1.15-3.72c-0.67-2.1-1.03-3.23-1.1-3.38c-0.09-0.24-0.21-0.36-0.35-0.36
	h-8.04c-0.1,0.02-0.18,0.1-0.25,0.21c-0.16,0.32-0.42,1.07-0.8,2.26c-0.38,1.18-0.61,1.99-0.7,2.42c-0.18,0.95-0.27,1.52-0.27,1.71
	c0,0.79,0.09,1.18,0.27,1.18h2.53c0.13,0,0.2,0.08,0.2,0.25v0.52c0,0.12-0.06,0.18-0.17,0.18h-6.73c-0.11,0-0.17-0.06-0.17-0.18
	v-0.59c0-0.12,0.04-0.18,0.13-0.18h1.43c0.24,0,0.57-0.56,0.99-1.68s1.66-4.35,3.72-9.69c1.32-3.37,2.92-7.45,4.81-12.24
	c0.12-0.37,0.24-0.58,0.37-0.62c0.31-0.1,0.71-0.24,1.2-0.45c0.08-0.04,0.17,0.03,0.27,0.19s0.05,0.34-0.13,0.54
	c-0.33,0.37-0.5,0.72-0.5,1.07c-0.01,0.36,0.07,0.8,0.23,1.34c0.6,1.78,1.68,5.12,3.25,10.02c1.56,4.89,2.65,8.06,3.26,9.5
	c0.59,1.34,1.01,2.02,1.27,2.02h1.56c0.09,0,0.13,0.08,0.13,0.25v0.51H202.2z M193.95,30.74c-0.45-1.42-0.94-2.97-1.46-4.66
	s-1.06-3.45-1.62-5.28c-0.03-0.15-0.08-0.25-0.13-0.29c-0.04,0.05-0.1,0.14-0.17,0.29c-1.39,3.64-2.38,6.22-2.99,7.74
	c-0.6,1.52-0.91,2.31-0.91,2.36c0,0.07,0.05,0.11,0.15,0.11h7.04C193.98,31,194.01,30.91,193.95,30.74z"/>
<path class="st0" d="M230.9,17.03c0,0.14-0.03,0.21-0.1,0.21h-0.95c-0.86,0-1.33,0.01-1.43,0.04c-0.06,0.23-0.08,0.49-0.08,0.79
	c-0.04,0.76-0.08,1.95-0.1,3.57c-0.01,2.3,0.02,5.35,0.08,9.17c0.11,6.85-2.52,10.28-7.89,10.28c-2.32,0-4.2-0.27-5.64-0.8
	c-1.44-0.54-2.48-1.47-3.11-2.82c-0.52-1.12-0.82-2.8-0.88-5.05c-0.04-1.46-0.07-5.13-0.07-10.99c0-2.78-0.22-4.17-0.65-4.17h-2.25
	c-0.12,0-0.18-0.06-0.18-0.18v-0.55c0-0.14,0.06-0.21,0.18-0.21H216c0.13,0,0.2,0.05,0.2,0.14V17c0,0.17-0.04,0.25-0.13,0.25h-2.31
	c-0.13,0-0.21,0.1-0.23,0.3c-0.07,0.49-0.1,4.41-0.1,11.76c0,2.56,0.07,4.29,0.2,5.19c0.26,1.7,0.99,2.99,2.21,3.87
	c1.22,0.88,2.88,1.32,4.98,1.32c2.09,0,3.76-0.67,5.01-2.02c0.95-1.02,1.43-3.04,1.43-6.07c0-4-0.03-6.95-0.1-8.87
	c-0.13-3.66-0.49-5.5-1.07-5.5h-2.15c-0.09,0-0.14-0.02-0.17-0.05c-0.02-0.04-0.03-0.08-0.03-0.12v-0.59c0-0.12,0.07-0.18,0.2-0.18
	h6.79c0.11,0,0.17,0.06,0.17,0.18L230.9,17.03L230.9,17.03z"/>
<path class="st0" d="M244.98,39.24c0,0.49-0.15,0.91-0.45,1.24c-0.34,0.37-0.78,0.56-1.32,0.56c-1.02,0-1.53-0.56-1.53-1.68
	c0-1.17,0.57-1.76,1.7-1.76C244.45,37.61,244.98,38.15,244.98,39.24z M245.28,21.17c0,2.05-0.21,4.68-0.63,7.89
	c-0.36,2.72-0.67,4.53-0.93,5.45c-0.1,0.35-0.27,0.52-0.5,0.52c-0.27,0-0.41-0.25-0.41-0.74c0-0.28,0.01-0.52,0.04-0.72
	c0.12-1.01,0.19-2.36,0.19-4.05c0-4.33-0.32-8.59-0.95-12.8c-0.17-1.18-0.26-1.76-0.26-1.72c0-0.36,0.16-0.54,0.48-0.54
	c0.34,0,0.65,0.1,0.95,0.3c0.36,0.17,0.81,0.4,1.34,0.68c0.31,0.19,0.49,0.42,0.54,0.7C245.23,16.75,245.28,18.43,245.28,21.17z"/>
<path class="st0" d="M40.41,11.31l2.83-11.43L37.8,9.94l-0.01,0.02l-4,8.05H17.67l-4-8.05l-0.01-0.02L8.22-0.12l2.83,11.43
	l-0.76,10.55l2.75,5.44l-0.06,0.16v0.01c-0.11,0.24-0.1,0.52,0.04,0.76l0.52,0.88l0.97,6.5l2.16,6.54l1.59,4.69l7.47,1.71l7.47-1.71
	l1.59-4.69l2.16-6.54l0.97-6.5l0.52-0.88c0.14-0.24,0.15-0.52,0.04-0.76v-0.01l-0.06-0.16l2.75-5.44L40.41,11.31z M13.34,26.24
	l-2.3-4.54l0.76-10.46l-1.55-5.9l3.11,5.67L13.34,26.24z M33.98,21.28l2.84,6.47l-8.71,14.7L33.98,21.28z M23.36,42.44l-8.71-14.7
	l2.84-6.47L23.36,42.44z M14.05,24.91V12.48L17,18.34c-0.03,0.05-0.07,0.1-0.09,0.16L14.05,24.91z M16.8,40.16l-1.57-4.76
	l-0.68-4.59l2.67,4.5L16.8,40.16z M18.84,46.2l-1.45-4.26h0.01l0.47-5.52l6.56,11.06L18.84,46.2z M18.74,19.35h13.98l-6.99,25.51
	L18.74,19.35z M32.62,46.2l-5.59,1.28l6.56-11.06l0.47,5.52h0.01L32.62,46.2z M36.24,35.41l-1.57,4.76l-0.41-4.85l2.67-4.5
	L36.24,35.41z M37.41,24.91l-2.86-6.41c-0.02-0.06-0.05-0.11-0.09-0.16l2.94-5.86v12.43H37.41z M38.12,26.24L38.1,11.02l3.11-5.67
	l-1.55,5.9l0.76,10.46L38.12,26.24z"/>
</svg>
