<?xml version="1.0" encoding="utf-8"?>
<!-- Generator: Adobe Illustrator 24.0.2, SVG Export Plug-In . SVG Version: 6.00 Build 0)  -->
<svg version="1.1" id="Capa_1" xmlns="http://www.w3.org/2000/svg" xmlns:xlink="http://www.w3.org/1999/xlink" x="0px" y="0px"
	 viewBox="0 0 46 63" style="enable-background:new 0 0 46 63;" xml:space="preserve">
<style type="text/css">
	.st0{fill:#FFFFFF;}
</style>
<path class="st0" d="M42.45,14.77l3.67-14.84l-7.06,13.06l-0.01,0.02l-5.19,10.46H12.91L7.72,13.01l-0.01-0.02L0.65-0.07l3.67,14.84
	l-0.99,13.7l3.57,7.06l-0.08,0.21l-0.01,0.02c-0.14,0.31-0.13,0.67,0.05,0.99l0.68,1.14l1.26,8.44l2.81,8.49l2.07,6.09l9.7,2.22
	l9.7-2.22l2.07-6.09l2.81-8.49l1.26-8.44l0.68-1.14c0.18-0.31,0.2-0.68,0.05-0.99l-0.01-0.02l-0.08-0.21l3.57-7.06L42.45,14.77z
	 M7.3,34.16l-2.99-5.89L5.3,14.68L3.29,7.02l4.04,7.37L7.3,34.16z M34.09,27.71l3.69,8.4L26.47,55.19L34.09,27.71z M20.3,55.19
	L8.99,36.11l3.69-8.4L20.3,55.19z M8.23,32.42V16.29l3.82,7.61c-0.04,0.06-0.09,0.13-0.11,0.2L8.23,32.42z M11.79,52.23l-2.04-6.18
	l-0.89-5.96l3.46,5.84L11.79,52.23z M14.43,60.07l-1.88-5.53h0.01l0.61-7.16l8.52,14.36L14.43,60.07z M14.31,25.2h18.15l-9.07,33.13
	L14.31,25.2z M32.34,60.07l-7.26,1.66l8.52-14.36l0.61,7.16h0.01L32.34,60.07z M37.03,46.05l-2.04,6.18l-0.53-6.3l3.46-5.84
	L37.03,46.05z M38.55,32.42l-3.71-8.32c-0.03-0.07-0.07-0.14-0.11-0.2l3.82-7.61V32.42z M39.47,34.16l-0.03-19.77l4.04-7.37
	l-2.01,7.65l0.99,13.59L39.47,34.16z"/>
</svg>
