<svg xmlns="http://www.w3.org/2000/svg" xmlns:xlink="http://www.w3.org/1999/xlink" width="145" zoomAndPan="magnify" viewBox="0 0 108.75 108.75" height="145" preserveAspectRatio="xMidYMid meet" version="1.0"><defs><clipPath id="edd77841e9"><path d="M 0 0 L 108.5 0 L 108.5 108.5 L 0 108.5 Z M 0 0 " clip-rule="nonzero"/></clipPath></defs><path fill="#6b5a45" d="M 54.375 91.019531 C 49.429688 91.019531 44.628906 90.050781 40.109375 88.140625 C 35.746094 86.292969 31.828125 83.652344 28.464844 80.285156 C 25.097656 76.921875 22.457031 73.003906 20.609375 68.640625 C 18.699219 64.121094 17.730469 59.320312 17.730469 54.375 C 17.730469 49.429688 18.699219 44.628906 20.609375 40.109375 C 22.457031 35.746094 25.097656 31.828125 28.464844 28.464844 C 31.828125 25.097656 35.746094 22.457031 40.109375 20.609375 C 44.628906 18.699219 49.429688 17.730469 54.375 17.730469 C 59.320312 17.730469 64.121094 18.699219 68.640625 20.609375 C 73.003906 22.457031 76.921875 25.097656 80.285156 28.464844 C 83.652344 31.828125 86.292969 35.746094 88.140625 40.109375 C 90.050781 44.628906 91.019531 49.429688 91.019531 54.375 C 91.019531 59.320312 90.050781 64.121094 88.140625 68.640625 C 86.292969 73.003906 83.652344 76.921875 80.285156 80.285156 C 76.921875 83.652344 73.003906 86.292969 68.640625 88.140625 C 64.121094 90.050781 59.320312 91.019531 54.375 91.019531 Z M 54.375 19.070312 C 49.609375 19.070312 44.984375 20.003906 40.632812 21.84375 C 36.429688 23.621094 32.652344 26.167969 29.410156 29.410156 C 26.167969 32.652344 23.621094 36.429688 21.84375 40.632812 C 20.003906 44.984375 19.070312 49.609375 19.070312 54.375 C 19.070312 59.140625 20.003906 63.765625 21.84375 68.117188 C 23.621094 72.320312 26.167969 76.097656 29.410156 79.339844 C 32.652344 82.582031 36.429688 85.128906 40.632812 86.90625 C 44.984375 88.75 49.609375 89.679688 54.375 89.679688 C 59.140625 89.679688 63.765625 88.746094 68.117188 86.90625 C 72.320312 85.128906 76.097656 82.582031 79.339844 79.339844 C 82.582031 76.097656 85.128906 72.320312 86.90625 68.117188 C 88.746094 63.765625 89.679688 59.140625 89.679688 54.375 C 89.679688 49.609375 88.746094 44.984375 86.90625 40.632812 C 85.128906 36.429688 82.582031 32.652344 79.339844 29.410156 C 76.097656 26.167969 72.320312 23.621094 68.117188 21.84375 C 63.765625 20.003906 59.140625 19.070312 54.375 19.070312 Z M 54.375 19.070312 " fill-opacity="1" fill-rule="nonzero"/><path fill="#6b5a45" d="M 92.589844 34.550781 C 92.527344 34.550781 92.464844 34.542969 92.402344 34.53125 C 92.339844 34.519531 92.28125 34.5 92.21875 34.476562 C 92.164062 34.453125 92.105469 34.421875 92.054688 34.386719 C 92 34.351562 91.949219 34.3125 91.90625 34.265625 C 91.859375 34.222656 91.820312 34.171875 91.785156 34.117188 C 91.75 34.066406 91.71875 34.007812 91.695312 33.949219 C 91.671875 33.890625 91.652344 33.832031 91.640625 33.769531 C 91.628906 33.707031 91.621094 33.644531 91.621094 33.578125 C 91.621094 33.324219 91.726562 33.074219 91.90625 32.894531 C 91.949219 32.847656 92 32.808594 92.054688 32.773438 C 92.105469 32.738281 92.164062 32.707031 92.21875 32.683594 C 92.28125 32.660156 92.339844 32.640625 92.402344 32.628906 C 92.527344 32.601562 92.65625 32.601562 92.78125 32.628906 C 92.84375 32.640625 92.902344 32.660156 92.964844 32.683594 C 93.019531 32.707031 93.078125 32.738281 93.128906 32.773438 C 93.183594 32.808594 93.234375 32.847656 93.277344 32.894531 C 93.457031 33.074219 93.5625 33.324219 93.5625 33.578125 C 93.5625 33.644531 93.554688 33.707031 93.542969 33.769531 C 93.53125 33.832031 93.511719 33.890625 93.488281 33.949219 C 93.464844 34.007812 93.433594 34.066406 93.398438 34.117188 C 93.363281 34.171875 93.324219 34.222656 93.277344 34.265625 C 93.234375 34.3125 93.183594 34.351562 93.128906 34.386719 C 93.078125 34.421875 93.019531 34.453125 92.964844 34.476562 C 92.902344 34.5 92.84375 34.519531 92.78125 34.53125 C 92.71875 34.542969 92.65625 34.550781 92.589844 34.550781 Z M 92.589844 34.550781 " fill-opacity="1" fill-rule="nonzero"/><path fill="#6b5a45" d="M 97.496094 62.460938 C 96.964844 62.378906 96.597656 61.886719 96.679688 61.355469 C 96.761719 60.824219 97.253906 60.460938 97.785156 60.539062 C 98.3125 60.621094 98.679688 61.113281 98.601562 61.644531 C 98.527344 62.125 98.113281 62.472656 97.640625 62.472656 C 97.59375 62.472656 97.542969 62.46875 97.496094 62.460938 Z M 96.488281 47.289062 C 96.390625 46.761719 96.742188 46.257812 97.269531 46.164062 C 97.796875 46.066406 98.300781 46.417969 98.394531 46.945312 C 98.492188 47.472656 98.140625 47.980469 97.613281 48.074219 C 97.554688 48.085938 97.496094 48.089844 97.441406 48.089844 C 96.980469 48.089844 96.570312 47.757812 96.488281 47.289062 Z M 96.488281 47.289062 " fill-opacity="1" fill-rule="nonzero"/><path fill="#6b5a45" d="M 93.167969 76.140625 C 93.105469 76.140625 93.042969 76.132812 92.980469 76.121094 C 92.917969 76.109375 92.855469 76.089844 92.796875 76.066406 C 92.738281 76.042969 92.683594 76.011719 92.628906 75.976562 C 92.578125 75.941406 92.527344 75.902344 92.484375 75.855469 C 92.300781 75.675781 92.199219 75.425781 92.199219 75.171875 C 92.199219 75.105469 92.207031 75.042969 92.21875 74.980469 C 92.230469 74.917969 92.25 74.855469 92.273438 74.800781 C 92.296875 74.738281 92.328125 74.683594 92.363281 74.632812 C 92.398438 74.578125 92.4375 74.527344 92.484375 74.484375 C 92.527344 74.4375 92.578125 74.398438 92.628906 74.363281 C 92.683594 74.328125 92.738281 74.296875 92.796875 74.273438 C 92.855469 74.25 92.917969 74.230469 92.980469 74.21875 C 93.105469 74.191406 93.234375 74.191406 93.359375 74.21875 C 93.421875 74.230469 93.480469 74.25 93.539062 74.273438 C 93.597656 74.296875 93.65625 74.328125 93.707031 74.363281 C 93.761719 74.398438 93.808594 74.4375 93.855469 74.484375 C 93.898438 74.527344 93.941406 74.578125 93.976562 74.632812 C 94.011719 74.683594 94.039062 74.738281 94.066406 74.800781 C 94.089844 74.855469 94.109375 74.917969 94.121094 74.980469 C 94.132812 75.042969 94.140625 75.105469 94.140625 75.171875 C 94.140625 75.425781 94.035156 75.675781 93.855469 75.855469 C 93.808594 75.902344 93.761719 75.941406 93.707031 75.976562 C 93.65625 76.011719 93.597656 76.042969 93.539062 76.066406 C 93.480469 76.089844 93.421875 76.109375 93.359375 76.121094 C 93.296875 76.132812 93.230469 76.140625 93.167969 76.140625 Z M 93.167969 76.140625 " fill-opacity="1" fill-rule="nonzero"/><path fill="#6b5a45" d="M 15.582031 76.140625 C 15.515625 76.140625 15.453125 76.132812 15.390625 76.121094 C 15.328125 76.109375 15.269531 76.089844 15.210938 76.066406 C 15.152344 76.042969 15.09375 76.011719 15.042969 75.976562 C 14.988281 75.941406 14.9375 75.902344 14.894531 75.855469 C 14.714844 75.675781 14.609375 75.425781 14.609375 75.171875 C 14.609375 75.105469 14.617188 75.042969 14.628906 74.980469 C 14.640625 74.917969 14.660156 74.855469 14.683594 74.800781 C 14.707031 74.738281 14.738281 74.683594 14.773438 74.632812 C 14.808594 74.578125 14.851562 74.527344 14.894531 74.484375 C 14.9375 74.4375 14.988281 74.398438 15.042969 74.363281 C 15.09375 74.328125 15.152344 74.296875 15.210938 74.273438 C 15.269531 74.25 15.328125 74.230469 15.390625 74.21875 C 15.515625 74.191406 15.644531 74.191406 15.769531 74.21875 C 15.832031 74.230469 15.894531 74.25 15.953125 74.273438 C 16.011719 74.296875 16.066406 74.328125 16.117188 74.363281 C 16.171875 74.398438 16.222656 74.4375 16.265625 74.484375 C 16.3125 74.527344 16.351562 74.578125 16.386719 74.632812 C 16.421875 74.683594 16.453125 74.738281 16.476562 74.800781 C 16.5 74.855469 16.519531 74.917969 16.53125 74.980469 C 16.542969 75.042969 16.550781 75.105469 16.550781 75.171875 C 16.550781 75.425781 16.445312 75.675781 16.265625 75.855469 C 16.222656 75.902344 16.171875 75.941406 16.117188 75.976562 C 16.066406 76.011719 16.011719 76.042969 15.953125 76.066406 C 15.894531 76.089844 15.832031 76.109375 15.769531 76.121094 C 15.707031 76.132812 15.644531 76.140625 15.582031 76.140625 Z M 15.582031 76.140625 " fill-opacity="1" fill-rule="nonzero"/><path fill="#6b5a45" d="M 10.152344 61.644531 C 10.070312 61.117188 10.433594 60.621094 10.964844 60.542969 C 11.496094 60.460938 11.988281 60.828125 12.070312 61.355469 C 12.148438 61.886719 11.785156 62.382812 11.253906 62.460938 C 11.207031 62.46875 11.15625 62.472656 11.109375 62.472656 C 10.636719 62.472656 10.222656 62.125 10.152344 61.644531 Z M 11.136719 48.074219 C 10.609375 47.980469 10.257812 47.476562 10.351562 46.949219 C 10.449219 46.421875 10.953125 46.070312 11.480469 46.164062 C 12.007812 46.257812 12.355469 46.761719 12.261719 47.292969 C 12.179688 47.761719 11.769531 48.089844 11.308594 48.089844 C 11.25 48.089844 11.195312 48.085938 11.136719 48.074219 Z M 11.136719 48.074219 " fill-opacity="1" fill-rule="nonzero"/><path fill="#6b5a45" d="M 16.15625 34.550781 C 15.902344 34.550781 15.652344 34.445312 15.472656 34.265625 C 15.425781 34.222656 15.386719 34.171875 15.351562 34.117188 C 15.316406 34.066406 15.285156 34.007812 15.261719 33.949219 C 15.238281 33.890625 15.21875 33.832031 15.207031 33.769531 C 15.195312 33.707031 15.1875 33.644531 15.1875 33.578125 C 15.1875 33.515625 15.195312 33.453125 15.207031 33.390625 C 15.21875 33.328125 15.238281 33.265625 15.261719 33.207031 C 15.285156 33.148438 15.316406 33.09375 15.351562 33.039062 C 15.386719 32.988281 15.425781 32.9375 15.472656 32.894531 C 15.515625 32.847656 15.566406 32.808594 15.617188 32.773438 C 15.671875 32.738281 15.726562 32.707031 15.785156 32.683594 C 15.84375 32.660156 15.90625 32.640625 15.96875 32.628906 C 16.09375 32.601562 16.222656 32.601562 16.347656 32.628906 C 16.410156 32.640625 16.46875 32.660156 16.527344 32.683594 C 16.585938 32.707031 16.644531 32.738281 16.695312 32.773438 C 16.75 32.808594 16.796875 32.847656 16.84375 32.894531 C 17.023438 33.074219 17.128906 33.324219 17.128906 33.578125 C 17.128906 33.644531 17.121094 33.707031 17.109375 33.769531 C 17.097656 33.832031 17.078125 33.890625 17.054688 33.949219 C 17.027344 34.011719 17 34.066406 16.964844 34.117188 C 16.929688 34.171875 16.886719 34.222656 16.84375 34.265625 C 16.796875 34.3125 16.75 34.351562 16.695312 34.386719 C 16.644531 34.421875 16.585938 34.453125 16.527344 34.476562 C 16.46875 34.5 16.410156 34.519531 16.347656 34.53125 C 16.285156 34.542969 16.222656 34.550781 16.15625 34.550781 Z M 16.15625 34.550781 " fill-opacity="1" fill-rule="nonzero"/><path fill="#6b5a45" d="M 28.910156 86.246094 L 31.335938 87.941406 C 32.578125 88.808594 32.941406 90.097656 32.132812 91.253906 C 31.261719 92.503906 29.898438 92.511719 28.667969 91.652344 L 27.226562 90.644531 L 25.453125 93.179688 L 24.519531 92.527344 Z M 27.769531 89.871094 L 29.144531 90.832031 C 29.960938 91.40625 30.664062 91.320312 31.164062 90.605469 C 31.683594 89.863281 31.421875 89.152344 30.714844 88.65625 L 29.304688 87.671875 Z M 27.769531 89.871094 " fill-opacity="1" fill-rule="nonzero"/><path fill="#6b5a45" d="M 34.492188 94.945312 L 33.128906 97.96875 L 32.105469 97.507812 L 35.25 90.519531 L 38.046875 91.777344 C 39.5 92.429688 39.917969 93.570312 39.429688 94.660156 C 39.019531 95.574219 38.253906 95.882812 37.53125 95.785156 C 37.992188 96.171875 38.308594 96.808594 37.757812 98.03125 L 37.621094 98.335938 C 37.402344 98.816406 37.117188 99.40625 37.097656 99.753906 L 36.09375 99.304688 C 36.105469 98.945312 36.351562 98.40625 36.652344 97.734375 L 36.714844 97.59375 C 37.144531 96.640625 37.066406 96.105469 35.839844 95.550781 Z M 34.878906 94.085938 L 36.351562 94.746094 C 37.375 95.207031 37.988281 95.019531 38.324219 94.273438 C 38.644531 93.5625 38.363281 92.953125 37.453125 92.542969 L 35.890625 91.839844 Z M 34.878906 94.085938 " fill-opacity="1" fill-rule="nonzero"/><path fill="#6b5a45" d="M 48.28125 98.675781 C 47.832031 100.738281 46.257812 102.308594 43.886719 101.789062 C 41.652344 101.300781 40.796875 99.328125 41.265625 97.179688 C 41.738281 95.03125 43.386719 93.609375 45.660156 94.105469 C 47.785156 94.570312 48.773438 96.4375 48.28125 98.675781 Z M 42.433594 97.402344 C 42.085938 98.992188 42.582031 100.523438 44.136719 100.863281 C 45.820312 101.230469 46.78125 99.988281 47.121094 98.4375 C 47.464844 96.859375 47.007812 95.382812 45.410156 95.03125 C 43.777344 94.675781 42.777344 95.832031 42.433594 97.402344 Z M 42.433594 97.402344 " fill-opacity="1" fill-rule="nonzero"/><path fill="#6b5a45" d="M 51.433594 95.097656 L 54.230469 95.144531 C 56.398438 95.179688 57.832031 96.671875 57.796875 98.953125 C 57.761719 101.214844 56.3125 102.84375 54.066406 102.804688 L 51.3125 102.761719 Z M 52.464844 101.828125 L 54.003906 101.851562 C 55.742188 101.878906 56.582031 100.640625 56.609375 98.953125 C 56.632812 97.488281 55.90625 96.125 54.101562 96.09375 L 52.558594 96.070312 Z M 52.464844 101.828125 " fill-opacity="1" fill-rule="nonzero"/><path fill="#6b5a45" d="M 61.082031 94.617188 L 62.042969 99.121094 C 62.410156 100.828125 63.4375 101.097656 64.367188 100.902344 C 65.453125 100.667969 66.097656 99.992188 65.742188 98.332031 L 64.78125 93.828125 L 65.898438 93.589844 L 66.847656 98.035156 C 67.371094 100.492188 66.144531 101.476562 64.539062 101.816406 C 62.953125 102.15625 61.421875 101.710938 60.921875 99.367188 L 59.957031 94.859375 Z M 61.082031 94.617188 " fill-opacity="1" fill-rule="nonzero"/><path fill="#6b5a45" d="M 76.25 95.261719 C 76.480469 96.609375 75.976562 97.90625 74.355469 98.628906 C 72.238281 99.570312 70.476562 98.453125 69.597656 96.472656 C 68.75 94.566406 69.046875 92.375 71.199219 91.417969 C 72.890625 90.664062 74.21875 91.234375 74.941406 92.316406 L 73.902344 92.78125 C 73.347656 92.160156 72.617188 91.808594 71.539062 92.285156 C 70.050781 92.949219 70.046875 94.566406 70.664062 95.957031 C 71.261719 97.296875 72.453125 98.453125 74.019531 97.757812 C 75.082031 97.285156 75.246094 96.460938 75.203125 95.726562 Z M 76.25 95.261719 " fill-opacity="1" fill-rule="nonzero"/><path fill="#6b5a45" d="M 77.609375 88.925781 L 75.597656 90.320312 L 75.050781 89.53125 L 80.011719 86.085938 L 80.5625 86.878906 L 78.550781 88.273438 L 82.367188 93.78125 L 81.429688 94.433594 Z M 77.609375 88.925781 " fill-opacity="1" fill-rule="nonzero"/><path fill="#6b5a45" d="M 29.578125 21.523438 L 25.488281 15.042969 L 26.738281 14.253906 C 28.59375 15.183594 32.480469 17.082031 33.277344 17.566406 L 33.289062 17.558594 C 32.71875 16.796875 32.066406 15.75 31.398438 14.691406 L 29.875 12.273438 L 30.773438 11.707031 L 34.863281 18.1875 L 33.683594 18.933594 C 31.988281 18.074219 27.828125 15.96875 26.976562 15.480469 L 26.964844 15.492188 C 27.457031 16.167969 28.179688 17.308594 28.917969 18.476562 L 30.480469 20.953125 Z M 29.578125 21.523438 " fill-opacity="1" fill-rule="nonzero"/><path fill="#6b5a45" d="M 37.722656 14.640625 L 37.753906 16.976562 L 36.695312 17.367188 L 36.570312 9.238281 L 37.890625 8.75 L 43.199219 14.957031 L 42.066406 15.378906 L 40.542969 13.597656 Z M 39.949219 12.789062 C 38.621094 11.210938 37.886719 10.351562 37.519531 9.84375 L 37.507812 9.847656 C 37.5625 10.542969 37.597656 11.890625 37.648438 13.640625 Z M 39.949219 12.789062 " fill-opacity="1" fill-rule="nonzero"/><path fill="#6b5a45" d="M 44.132812 7.855469 L 41.730469 8.328125 L 41.542969 7.382812 L 47.472656 6.21875 L 47.65625 7.164062 L 45.253906 7.636719 L 46.546875 14.210938 L 45.425781 14.429688 Z M 44.132812 7.855469 " fill-opacity="1" fill-rule="nonzero"/><path fill="#6b5a45" d="M 52.011719 5.929688 L 52.042969 10.535156 C 52.054688 12.28125 53.007812 12.753906 53.957031 12.746094 C 55.070312 12.738281 55.835938 12.207031 55.824219 10.507812 L 55.792969 5.90625 L 56.933594 5.898438 L 56.964844 10.441406 C 56.984375 12.953125 55.582031 13.667969 53.941406 13.679688 C 52.320312 13.691406 50.910156 12.945312 50.894531 10.546875 L 50.863281 5.9375 Z M 52.011719 5.929688 " fill-opacity="1" fill-rule="nonzero"/><path fill="#6b5a45" d="M 61.351562 10.847656 L 60.695312 14.101562 L 59.59375 13.878906 L 61.109375 6.367188 L 64.113281 6.96875 C 65.675781 7.285156 66.339844 8.300781 66.101562 9.472656 C 65.90625 10.457031 65.230469 10.925781 64.5 10.992188 C 65.035156 11.265625 65.484375 11.816406 65.222656 13.128906 L 65.15625 13.460938 C 65.050781 13.976562 64.902344 14.613281 64.960938 14.960938 L 63.882812 14.742188 C 63.8125 14.390625 63.933594 13.808594 64.078125 13.085938 L 64.109375 12.9375 C 64.316406 11.914062 64.121094 11.40625 62.800781 11.140625 Z M 61.539062 9.925781 L 63.121094 10.242188 C 64.21875 10.464844 64.777344 10.144531 64.9375 9.34375 C 65.09375 8.578125 64.683594 8.046875 63.703125 7.851562 L 62.023438 7.511719 Z M 61.539062 9.925781 " fill-opacity="1" fill-rule="nonzero"/><path fill="#6b5a45" d="M 69.082031 14.175781 L 67.511719 15.898438 L 66.46875 15.464844 L 71.929688 9.445312 L 73.230469 9.988281 L 72.863281 18.148438 L 71.75 17.679688 L 71.855469 15.339844 Z M 71.972656 14.34375 C 72.082031 12.285156 72.132812 11.15625 72.210938 10.53125 L 72.199219 10.527344 C 71.769531 11.074219 70.871094 12.082031 69.710938 13.394531 Z M 71.972656 14.34375 " fill-opacity="1" fill-rule="nonzero"/><path fill="#6b5a45" d="M 78.613281 12.660156 L 79.566406 13.285156 L 75.898438 18.890625 L 79.214844 21.0625 L 78.5625 21.785156 L 74.417969 19.074219 Z M 78.613281 12.660156 " fill-opacity="1" fill-rule="nonzero"/><path fill="#6b5a45" d="M 78.414062 55.980469 C 78.417969 55.96875 78.421875 55.957031 78.421875 55.945312 C 78.425781 55.933594 78.429688 55.921875 78.429688 55.910156 C 78.429688 55.898438 78.433594 55.890625 78.433594 55.878906 C 78.433594 55.863281 78.4375 55.851562 78.4375 55.835938 C 78.4375 55.832031 78.4375 55.824219 78.4375 55.820312 L 78.4375 55.816406 C 78.4375 55.8125 78.4375 55.808594 78.4375 55.808594 C 78.4375 55.796875 78.4375 55.785156 78.433594 55.773438 C 78.433594 55.761719 78.433594 55.75 78.433594 55.738281 C 78.429688 55.730469 78.429688 55.722656 78.429688 55.71875 C 78.425781 55.703125 78.425781 55.6875 78.421875 55.671875 C 78.417969 55.667969 78.417969 55.667969 78.417969 55.664062 C 78.394531 55.558594 78.34375 55.464844 78.277344 55.386719 C 78.277344 55.386719 78.277344 55.386719 78.273438 55.382812 C 78.269531 55.375 78.261719 55.371094 78.257812 55.363281 C 78.253906 55.363281 78.253906 55.359375 78.25 55.359375 C 78.246094 55.351562 78.242188 55.347656 78.234375 55.34375 C 78.234375 55.339844 78.230469 55.335938 78.226562 55.332031 C 78.222656 55.328125 78.21875 55.324219 78.214844 55.320312 C 78.210938 55.320312 78.207031 55.316406 78.203125 55.3125 C 78.199219 55.308594 78.191406 55.304688 78.1875 55.300781 C 78.183594 55.296875 78.179688 55.292969 78.175781 55.289062 C 78.171875 55.289062 78.167969 55.285156 78.164062 55.28125 C 78.160156 55.28125 78.15625 55.277344 78.152344 55.273438 C 78.144531 55.269531 78.140625 55.265625 78.136719 55.261719 C 78.128906 55.257812 78.125 55.257812 78.121094 55.253906 C 78.117188 55.25 78.113281 55.25 78.109375 55.246094 C 78.105469 55.242188 78.101562 55.242188 78.097656 55.238281 C 78.089844 55.234375 78.085938 55.230469 78.078125 55.230469 C 78.074219 55.226562 78.066406 55.222656 78.0625 55.222656 C 78.058594 55.21875 78.050781 55.214844 78.046875 55.214844 C 78.042969 55.210938 78.042969 55.210938 78.039062 55.210938 C 78.03125 55.207031 78.023438 55.203125 78.015625 55.203125 C 78.015625 55.199219 78.011719 55.199219 78.011719 55.199219 C 78.007812 55.199219 78.003906 55.195312 78 55.195312 C 77.992188 55.191406 77.988281 55.191406 77.980469 55.1875 C 77.980469 55.1875 77.976562 55.1875 77.976562 55.1875 C 77.976562 55.1875 77.976562 55.1875 77.972656 55.1875 C 77.972656 55.183594 77.972656 55.183594 77.96875 55.183594 C 77.457031 55.019531 76.9375 54.832031 76.390625 54.632812 C 74.636719 54 72.648438 53.285156 69.964844 52.976562 C 66.597656 52.59375 63.664062 53 61.242188 54.183594 C 58.085938 55.726562 55.863281 58.5625 54.625 62.613281 C 54.519531 62.964844 54.71875 63.335938 55.066406 63.441406 C 55.132812 63.460938 55.199219 63.46875 55.261719 63.46875 C 55.546875 63.46875 55.808594 63.285156 55.894531 63 C 57.019531 59.316406 59.011719 56.75 61.824219 55.375 C 64.015625 54.304688 66.703125 53.941406 69.8125 54.296875 C 72.347656 54.585938 74.253906 55.273438 75.9375 55.882812 C 76.007812 55.90625 76.074219 55.929688 76.140625 55.953125 C 73.582031 57.234375 70.398438 58.175781 66.644531 58.753906 C 61.746094 59.507812 57.804688 62.648438 55.25 67.832031 C 53.910156 70.550781 53.285156 73.132812 53.023438 74.480469 C 51.628906 73.652344 48.636719 71.691406 45.898438 68.65625 C 43.742188 66.265625 42.164062 63.679688 41.210938 60.980469 C 40.019531 57.617188 39.796875 54.046875 40.542969 50.371094 C 41.515625 45.589844 41.917969 41.242188 41.742188 37.386719 C 42.574219 38.894531 43.710938 40.585938 45.199219 42.015625 C 45.445312 42.257812 45.753906 42.53125 46.109375 42.847656 C 47.894531 44.441406 50.886719 47.105469 52.125 50.785156 C 53.613281 55.195312 52.164062 59.980469 47.816406 65.007812 C 47.574219 65.285156 47.605469 65.703125 47.882812 65.941406 C 48.007812 66.050781 48.164062 66.105469 48.316406 66.105469 C 48.503906 66.105469 48.6875 66.027344 48.820312 65.875 C 53.496094 60.46875 55.03125 55.25 53.382812 50.359375 C 52.03125 46.351562 48.875 43.539062 46.992188 41.859375 C 46.648438 41.550781 46.351562 41.285156 46.117188 41.0625 C 42.800781 37.867188 41.277344 33.082031 41.261719 33.035156 C 41.25 32.996094 41.234375 32.964844 41.21875 32.933594 C 41.214844 32.925781 41.214844 32.921875 41.210938 32.917969 C 41.191406 32.882812 41.171875 32.851562 41.148438 32.824219 C 41.148438 32.820312 41.148438 32.820312 41.148438 32.820312 C 41.125 32.789062 41.097656 32.761719 41.066406 32.734375 C 41.066406 32.734375 41.0625 32.730469 41.0625 32.730469 C 41.0625 32.730469 41.058594 32.730469 41.058594 32.730469 C 41.046875 32.71875 41.035156 32.710938 41.023438 32.703125 C 41.015625 32.695312 41.007812 32.691406 41 32.683594 C 40.992188 32.675781 40.980469 32.671875 40.96875 32.664062 C 40.957031 32.65625 40.949219 32.652344 40.9375 32.644531 C 40.925781 32.640625 40.917969 32.636719 40.90625 32.628906 C 40.894531 32.625 40.882812 32.621094 40.867188 32.613281 C 40.863281 32.613281 40.855469 32.609375 40.851562 32.605469 L 40.847656 32.605469 C 40.84375 32.605469 40.84375 32.605469 40.839844 32.601562 C 40.832031 32.601562 40.824219 32.597656 40.816406 32.597656 C 40.800781 32.59375 40.785156 32.585938 40.773438 32.585938 C 40.769531 32.585938 40.769531 32.582031 40.765625 32.582031 C 40.601562 32.546875 40.4375 32.578125 40.296875 32.65625 C 40.28125 32.667969 40.261719 32.675781 40.246094 32.6875 C 40.246094 32.691406 40.242188 32.691406 40.242188 32.691406 C 40.234375 32.695312 40.230469 32.699219 40.222656 32.703125 C 40.222656 32.703125 40.222656 32.707031 40.222656 32.707031 C 40.214844 32.714844 40.203125 32.71875 40.195312 32.726562 C 40.191406 32.730469 40.191406 32.730469 40.191406 32.730469 C 40.183594 32.738281 40.179688 32.742188 40.175781 32.746094 C 40.171875 32.75 40.171875 32.75 40.167969 32.753906 C 40.160156 32.757812 40.152344 32.765625 40.144531 32.773438 C 40.144531 32.777344 40.144531 32.777344 40.140625 32.777344 C 40.136719 32.785156 40.132812 32.789062 40.128906 32.792969 C 40.128906 32.792969 40.128906 32.796875 40.125 32.796875 C 40.125 32.800781 40.121094 32.800781 40.121094 32.804688 C 40.113281 32.8125 40.109375 32.820312 40.101562 32.824219 C 40.101562 32.828125 40.101562 32.828125 40.097656 32.828125 C 40.097656 32.832031 40.097656 32.832031 40.097656 32.832031 C 40.097656 32.832031 40.097656 32.832031 40.09375 32.835938 C 39.613281 33.46875 39.097656 34.097656 38.550781 34.761719 C 36.828125 36.863281 34.878906 39.242188 33.128906 42.773438 C 30.945312 47.183594 30.023438 51.378906 30.390625 55.242188 C 30.863281 60.273438 33.515625 64.667969 38.269531 68.308594 C 38.390625 68.398438 38.53125 68.445312 38.671875 68.445312 C 38.871094 68.445312 39.070312 68.355469 39.199219 68.183594 C 39.421875 67.890625 39.367188 67.476562 39.078125 67.253906 C 34.628906 63.847656 32.148438 59.765625 31.710938 55.121094 C 31.371094 51.503906 32.246094 47.546875 34.320312 43.359375 C 36 39.964844 37.898438 37.648438 39.578125 35.601562 C 39.789062 35.34375 39.996094 35.089844 40.199219 34.839844 C 40.742188 39.183594 40.425781 44.308594 39.242188 50.105469 C 38.445312 54.03125 38.691406 57.84375 39.96875 61.445312 C 40.988281 64.316406 42.660156 67.054688 44.945312 69.578125 C 48.8125 73.855469 53.042969 76.019531 53.222656 76.113281 C 53.226562 76.113281 53.230469 76.113281 53.234375 76.117188 C 53.246094 76.125 53.261719 76.128906 53.277344 76.136719 C 53.285156 76.136719 53.292969 76.140625 53.300781 76.144531 C 53.316406 76.148438 53.328125 76.152344 53.34375 76.15625 C 53.402344 76.171875 53.460938 76.183594 53.519531 76.183594 C 53.523438 76.183594 53.527344 76.183594 53.53125 76.183594 C 53.554688 76.183594 53.578125 76.179688 53.597656 76.175781 C 53.605469 76.175781 53.613281 76.175781 53.621094 76.175781 C 53.648438 76.171875 53.671875 76.164062 53.695312 76.160156 C 53.695312 76.160156 53.699219 76.160156 53.699219 76.15625 C 53.726562 76.152344 53.75 76.140625 53.773438 76.132812 C 53.78125 76.128906 53.785156 76.125 53.792969 76.125 C 53.816406 76.113281 53.835938 76.101562 53.855469 76.089844 C 53.859375 76.089844 53.867188 76.085938 53.871094 76.082031 C 53.890625 76.070312 53.910156 76.058594 53.925781 76.042969 C 53.933594 76.039062 53.941406 76.03125 53.945312 76.027344 C 53.964844 76.011719 53.984375 75.992188 54.003906 75.976562 C 54.003906 75.972656 54.007812 75.96875 54.011719 75.964844 C 54.027344 75.945312 54.042969 75.929688 54.058594 75.910156 C 54.058594 75.90625 54.0625 75.898438 54.066406 75.894531 C 54.082031 75.871094 54.097656 75.847656 54.109375 75.820312 C 54.113281 75.820312 54.113281 75.820312 54.113281 75.820312 C 54.113281 75.816406 54.117188 75.8125 54.117188 75.808594 C 54.125 75.792969 54.132812 75.78125 54.136719 75.765625 C 54.140625 75.757812 54.140625 75.75 54.144531 75.746094 C 54.148438 75.730469 54.152344 75.71875 54.15625 75.707031 C 54.160156 75.695312 54.160156 75.6875 54.164062 75.679688 C 54.167969 75.667969 54.167969 75.65625 54.171875 75.644531 C 54.171875 75.636719 54.175781 75.625 54.175781 75.617188 C 54.179688 75.613281 54.179688 75.605469 54.179688 75.601562 C 54.183594 75.566406 54.640625 72.050781 56.457031 68.386719 C 57.507812 66.261719 58.804688 64.5 60.3125 63.152344 C 62.175781 61.484375 64.375 60.445312 66.847656 60.0625 C 69.816406 59.605469 72.453125 58.925781 74.730469 58.03125 C 73.960938 59.035156 73.277344 60.160156 72.855469 61.285156 L 72.816406 61.386719 C 72.027344 63.484375 70.703125 67 67.476562 68.433594 C 65.289062 69.40625 62.519531 69.25 59.242188 67.964844 C 58.898438 67.832031 58.515625 68 58.382812 68.339844 C 58.246094 68.683594 58.414062 69.066406 58.757812 69.199219 C 60.777344 69.992188 62.644531 70.390625 64.335938 70.390625 C 65.671875 70.390625 66.902344 70.140625 68.015625 69.648438 C 71.746094 67.988281 73.25 63.996094 74.058594 61.855469 L 74.097656 61.75 C 74.898438 59.609375 76.777344 57.445312 78.183594 56.339844 C 78.210938 56.316406 78.238281 56.292969 78.261719 56.265625 C 78.265625 56.261719 78.269531 56.257812 78.273438 56.253906 C 78.289062 56.238281 78.300781 56.21875 78.3125 56.203125 C 78.316406 56.199219 78.316406 56.199219 78.316406 56.195312 C 78.324219 56.1875 78.332031 56.175781 78.339844 56.167969 C 78.339844 56.164062 78.339844 56.164062 78.339844 56.160156 C 78.34375 56.15625 78.347656 56.152344 78.347656 56.144531 C 78.351562 56.144531 78.351562 56.144531 78.351562 56.140625 C 78.363281 56.121094 78.371094 56.105469 78.378906 56.085938 C 78.378906 56.085938 78.378906 56.082031 78.382812 56.082031 C 78.382812 56.078125 78.386719 56.070312 78.390625 56.0625 C 78.390625 56.058594 78.390625 56.058594 78.394531 56.054688 C 78.394531 56.054688 78.394531 56.054688 78.394531 56.050781 C 78.398438 56.039062 78.402344 56.023438 78.40625 56.011719 C 78.410156 56 78.414062 55.992188 78.414062 55.980469 Z M 78.414062 55.980469 " fill-opacity="1" fill-rule="nonzero"/><g clip-path="url(#edd77841e9)"><path fill="#6b5a45" d="M 54.375 108.75 C 47.035156 108.75 39.914062 107.3125 33.207031 104.476562 C 26.734375 101.738281 20.917969 97.820312 15.925781 92.824219 C 10.929688 87.832031 7.011719 82.015625 4.273438 75.539062 C 1.4375 68.835938 0 61.714844 0 54.375 C 0 47.035156 1.4375 39.914062 4.273438 33.207031 C 7.011719 26.734375 10.929688 20.917969 15.925781 15.925781 C 20.917969 10.929688 26.734375 7.011719 33.207031 4.273438 C 39.914062 1.4375 47.035156 0 54.375 0 C 61.714844 0 68.835938 1.4375 75.542969 4.273438 C 82.015625 7.011719 87.832031 10.929688 92.824219 15.925781 C 97.820312 20.917969 101.738281 26.734375 104.476562 33.207031 C 107.3125 39.914062 108.75 47.035156 108.75 54.375 C 108.75 61.714844 107.3125 68.835938 104.476562 75.542969 C 101.738281 82.015625 97.820312 87.832031 92.824219 92.824219 C 87.832031 97.820312 82.015625 101.738281 75.542969 104.476562 C 68.835938 107.3125 61.714844 108.75 54.375 108.75 Z M 54.375 1.417969 C 47.226562 1.417969 40.289062 2.820312 33.761719 5.582031 C 27.457031 8.246094 21.792969 12.066406 16.929688 16.929688 C 12.066406 21.792969 8.246094 27.457031 5.582031 33.761719 C 2.820312 40.289062 1.417969 47.226562 1.417969 54.375 C 1.417969 61.523438 2.820312 68.460938 5.582031 74.988281 C 8.246094 81.292969 12.066406 86.957031 16.929688 91.820312 C 21.792969 96.683594 27.457031 100.503906 33.761719 103.167969 C 40.289062 105.929688 47.226562 107.332031 54.375 107.332031 C 61.523438 107.332031 68.460938 105.929688 74.988281 103.167969 C 81.292969 100.503906 86.957031 96.683594 91.820312 91.820312 C 96.683594 86.957031 100.503906 81.292969 103.167969 74.988281 C 105.929688 68.460938 107.332031 61.523438 107.332031 54.375 C 107.332031 47.226562 105.929688 40.289062 103.167969 33.761719 C 100.503906 27.457031 96.683594 21.792969 91.820312 16.929688 C 86.957031 12.066406 81.292969 8.246094 74.988281 5.582031 C 68.460938 2.820312 61.523438 1.417969 54.375 1.417969 Z M 54.375 1.417969 " fill-opacity="1" fill-rule="nonzero"/></g></svg>