<svg width="441" height="543" viewBox="0 0 441 543" fill="none" xmlns="http://www.w3.org/2000/svg">
<g clip-path="url(#clip0_548_348)">
<rect width="441" height="543" rx="20" fill="white"/>
<g filter="url(#filter0_d_548_348)">
<rect width="441" height="543" rx="20" fill="white"/>
</g>
<path d="M55.6424 188.208V191.728H60.5224V193.008H55.6424V196.656H60.8744V198H54.2344V186.864H60.8744V188.208H55.6424ZM73.3328 189.456C74.1221 189.456 74.7194 189.701 75.1248 190.192C75.5301 190.672 75.7328 191.344 75.7328 192.208V198H74.3248V192.4C74.3248 191.867 74.2128 191.456 73.9888 191.168C73.7648 190.869 73.4234 190.72 72.9648 190.72C72.4954 190.72 72.1008 190.805 71.7808 190.976C71.4608 191.147 71.0928 191.424 70.6768 191.808C70.6874 191.893 70.6927 192.027 70.6927 192.208V198H69.2848V192.4C69.2848 191.867 69.1728 191.456 68.9488 191.168C68.7248 190.869 68.3834 190.72 67.9248 190.72C67.4554 190.72 67.0608 190.805 66.7408 190.976C66.4208 191.136 66.0581 191.408 65.6528 191.792V198H64.2448V191.504L63.8928 189.648H65.3008L65.5248 190.8C66.0048 190.32 66.4368 189.979 66.8208 189.776C67.2154 189.563 67.7061 189.456 68.2928 189.456C68.8474 189.456 69.3061 189.579 69.6688 189.824C70.0421 190.069 70.3141 190.421 70.4848 190.88C70.9968 190.368 71.4501 190.005 71.8448 189.792C72.2394 189.568 72.7354 189.456 73.3328 189.456ZM84.3156 198L84.0916 196.8C83.6756 197.259 83.2223 197.605 82.7316 197.84C82.2516 198.075 81.7076 198.192 81.0996 198.192C80.3423 198.192 79.729 197.979 79.2596 197.552C78.7903 197.115 78.5556 196.539 78.5556 195.824C78.5556 194.896 78.929 194.213 79.6756 193.776C80.4223 193.339 81.3823 193.12 82.5556 193.12C82.9823 193.12 83.4516 193.147 83.9636 193.2V192.624C83.9636 192.048 83.8036 191.589 83.4836 191.248C83.1743 190.896 82.769 190.72 82.2676 190.72C81.6703 190.72 81.1263 190.8 80.6356 190.96C80.1556 191.12 79.6596 191.371 79.1476 191.712V190.352C79.649 190.021 80.161 189.792 80.6836 189.664C81.2063 189.525 81.8036 189.456 82.4756 189.456C83.329 189.456 84.0223 189.728 84.5556 190.272C85.0996 190.816 85.3716 191.536 85.3716 192.432V196.144L85.7236 198H84.3156ZM81.3876 197.008C81.8996 197.008 82.3583 196.901 82.7636 196.688C83.169 196.475 83.569 196.165 83.9636 195.76V194.192H82.4916C80.881 194.192 80.0756 194.709 80.0756 195.744C80.0756 196.128 80.1983 196.437 80.4436 196.672C80.689 196.896 81.0036 197.008 81.3876 197.008ZM89.0369 187.76C88.7382 187.76 88.4929 187.664 88.3009 187.472C88.1195 187.28 88.0289 187.035 88.0289 186.736C88.0289 186.437 88.1195 186.192 88.3009 186C88.4929 185.808 88.7382 185.712 89.0369 185.712C89.3355 185.712 89.5755 185.808 89.7569 186C89.9489 186.192 90.0449 186.437 90.0449 186.736C90.0449 187.035 89.9489 187.28 89.7569 187.472C89.5755 187.664 89.3355 187.76 89.0369 187.76ZM89.7409 189.648V198H88.3329V189.648H89.7409ZM92.8173 185.936H94.2253V198H92.8173V185.936Z" fill="black"/>
<path d="M40.2147 57.36C40.6947 57.808 40.9347 58.352 40.9347 58.992C40.9347 59.632 40.6947 60.176 40.2147 60.624C39.7667 61.072 39.2387 61.296 38.6307 61.296C38.0227 61.296 37.4787 61.072 36.9987 60.624C36.5507 60.176 36.3267 59.632 36.3267 58.992C36.3267 58.352 36.5507 57.808 36.9987 57.36C37.4787 56.912 38.0227 56.688 38.6307 56.688C39.2387 56.688 39.7667 56.912 40.2147 57.36ZM36.4227 85.248L38.0067 65.424H39.2547L40.8867 85.248C40.8867 87.136 40.1347 88.08 38.6307 88.08C37.1587 88.08 36.4227 87.136 36.4227 85.248ZM57.1306 78.576C55.0186 78.576 52.9066 78 50.7946 76.848C50.0906 76.496 49.6106 76.32 49.3546 76.32C48.8746 76.32 48.6186 76.656 48.5866 77.328L48.5386 78H47.6266V69.984H48.4906C48.7786 72.448 49.6906 74.272 51.2266 75.456C52.7946 76.608 54.6346 77.184 56.7466 77.184C58.8906 77.184 60.5066 76.608 61.5946 75.456C62.7146 74.304 63.2746 72.944 63.2746 71.376C63.2746 68.88 61.8346 66.992 58.9546 65.712L53.2426 63.168C51.5146 62.4 50.2186 61.36 49.3546 60.048C48.4906 58.704 48.0586 57.264 48.0586 55.728C48.0586 53.392 48.8426 51.392 50.4106 49.728C51.9786 48.032 54.2346 47.184 57.1786 47.184C58.9066 47.184 60.6826 47.76 62.5066 48.912C63.1146 49.264 63.5306 49.44 63.7546 49.44C64.1706 49.44 64.3946 49.104 64.4266 48.432L64.4746 47.472H65.3866V55.776H64.5226C64.2666 53.312 63.4666 51.504 62.1226 50.352C60.8106 49.168 59.1946 48.576 57.2746 48.576C55.3866 48.576 53.9146 49.104 52.8586 50.16C51.8346 51.184 51.3226 52.368 51.3226 53.712C51.3226 55.024 51.6746 56.208 52.3786 57.264C53.1146 58.32 54.1866 59.152 55.5946 59.76L61.3546 62.304C63.2746 63.168 64.7146 64.304 65.6746 65.712C66.6666 67.088 67.1626 68.576 67.1626 70.176C67.1626 72.448 66.2506 74.416 64.4266 76.08C62.6026 77.744 60.1706 78.576 57.1306 78.576ZM89.5819 56.976V76.464C89.5819 76.912 89.8059 77.136 90.2539 77.136H92.5099V78H90.1579C88.2379 78 86.8939 78.096 86.1259 78.288V71.808C85.0379 76.32 82.6379 78.576 78.9259 78.576C77.2619 78.576 75.8539 77.984 74.7019 76.8C73.5499 75.584 72.9739 73.744 72.9739 71.28V58.8C72.9739 58.352 72.7499 58.128 72.3019 58.128H70.0459V57.264H72.3979C74.3179 57.264 75.6619 57.168 76.4299 56.976V71.904C76.4299 73.536 76.7819 74.752 77.4859 75.552C78.2219 76.32 79.1819 76.704 80.3659 76.704C82.0619 76.704 83.4379 75.68 84.4939 73.632C85.5819 71.552 86.1259 68.576 86.1259 64.704V58.8C86.1259 58.352 85.9019 58.128 85.4539 58.128H83.1979V57.264H85.5499C87.4699 57.264 88.8139 57.168 89.5819 56.976ZM102.09 64.992L107.082 66.864C108.266 67.312 109.162 68 109.77 68.928C110.41 69.824 110.73 70.832 110.73 71.952C110.73 73.68 110.042 75.216 108.666 76.56C107.29 77.904 105.434 78.576 103.098 78.576C100.794 78.576 98.6177 78.144 96.5697 77.28C96.7617 76.512 96.8577 75.168 96.8577 73.248V71.328H97.7217L98.0577 73.824C98.3457 76.224 100.026 77.424 103.098 77.424C104.474 77.424 105.61 77.008 106.506 76.176C107.434 75.312 107.898 74.336 107.898 73.248C107.898 71.744 106.986 70.656 105.162 69.984L100.17 68.112C99.0497 67.696 98.2017 67.04 97.6257 66.144C97.0497 65.248 96.7617 64.24 96.7617 63.12C96.7617 61.424 97.3697 59.936 98.5857 58.656C99.8017 57.344 101.322 56.688 103.146 56.688C105.002 56.688 107.082 57.12 109.386 57.984C109.194 58.752 109.098 60.096 109.098 62.016V63.936H108.234L107.898 61.44C107.642 59.136 106.186 57.984 103.53 57.984C102.346 57.984 101.37 58.352 100.602 59.088C99.8337 59.824 99.4497 60.688 99.4497 61.68C99.4497 63.216 100.33 64.32 102.09 64.992ZM124.579 57.84C122.755 57.84 121.267 58.72 120.115 60.48C118.995 62.208 118.435 64.592 118.435 67.632C118.435 70.672 118.979 73.072 120.067 74.832C121.187 76.56 122.611 77.424 124.339 77.424C126.099 77.424 127.539 76.976 128.659 76.08C129.779 75.184 130.547 73.904 130.963 72.24L131.875 72.432C131.491 74.384 130.611 75.904 129.235 76.992C127.859 78.048 126.275 78.576 124.483 78.576C121.699 78.576 119.379 77.6 117.523 75.648C115.699 73.696 114.787 71.024 114.787 67.632C114.787 64.24 115.715 61.568 117.571 59.616C119.427 57.664 121.763 56.688 124.579 56.688C126.755 56.688 128.387 57.184 129.475 58.176C130.563 59.136 131.107 60.432 131.107 62.064C131.107 64.176 130.515 65.232 129.331 65.232C128.371 65.232 127.603 64.976 127.027 64.464C127.475 63.504 127.699 62.512 127.699 61.488C127.699 60.432 127.427 59.568 126.883 58.896C126.371 58.192 125.603 57.84 124.579 57.84ZM147.23 56.688C148.478 56.688 149.486 57.216 150.254 58.272C151.054 59.328 151.454 60.656 151.454 62.256C151.454 63.856 150.798 64.656 149.486 64.656C148.718 64.656 148.094 64.416 147.614 63.936C148.03 63.008 148.238 62.064 148.238 61.104C148.238 59.408 147.534 58.56 146.126 58.56C144.942 58.56 143.886 59.552 142.958 61.536C142.062 63.488 141.614 66.336 141.614 70.08V76.464C141.614 76.912 141.838 77.136 142.286 77.136H145.502V78H135.23V77.136H137.486C137.934 77.136 138.158 76.912 138.158 76.464V58.8C138.158 58.352 137.934 58.128 137.486 58.128H135.23V57.264H137.582C139.502 57.264 140.846 57.168 141.614 56.976V63.12C142.126 60.912 142.878 59.296 143.87 58.272C144.862 57.216 145.982 56.688 147.23 56.688ZM156.768 76.464V58.8C156.768 58.352 156.544 58.128 156.096 58.128H153.84V57.264H156.192C158.112 57.264 159.456 57.168 160.224 56.976V76.56C160.224 76.944 160.448 77.136 160.896 77.136H163.152V78H153.84V77.136H156.096C156.544 77.136 156.768 76.912 156.768 76.464ZM156.864 51.984C156.448 51.536 156.24 50.992 156.24 50.352C156.24 49.712 156.448 49.184 156.864 48.768C157.312 48.32 157.856 48.096 158.496 48.096C159.136 48.096 159.664 48.32 160.08 48.768C160.528 49.184 160.752 49.712 160.752 50.352C160.752 50.992 160.528 51.536 160.08 51.984C159.664 52.4 159.136 52.608 158.496 52.608C157.856 52.608 157.312 52.4 156.864 51.984ZM183.77 75.648C182.042 77.6 179.77 78.576 176.954 78.576C174.138 78.576 171.786 77.52 169.898 75.408L169.514 78.384H168.698V48.432C168.698 47.984 168.474 47.76 168.026 47.76H165.77V46.896H168.122C170.042 46.896 171.386 46.8 172.154 46.608V63.696C172.698 61.392 173.562 59.648 174.746 58.464C175.962 57.28 177.306 56.688 178.778 56.688C180.794 56.688 182.57 57.696 184.106 59.712C185.642 61.728 186.41 64.4 186.41 67.728C186.41 71.056 185.53 73.696 183.77 75.648ZM178.058 58.512C176.458 58.512 175.066 59.504 173.882 61.488C172.73 63.472 172.154 66.336 172.154 70.08V76.032C173.498 76.928 175.018 77.376 176.714 77.376C178.442 77.376 179.882 76.528 181.034 74.832C182.186 73.136 182.762 70.8 182.762 67.824C182.762 64.848 182.298 62.56 181.37 60.96C180.442 59.328 179.338 58.512 178.058 58.512ZM193.424 76.464V58.8C193.424 58.352 193.2 58.128 192.752 58.128H190.496V57.264H192.848C194.768 57.264 196.112 57.168 196.88 56.976V76.56C196.88 76.944 197.104 77.136 197.552 77.136H199.808V78H190.496V77.136H192.752C193.2 77.136 193.424 76.912 193.424 76.464ZM193.52 51.984C193.104 51.536 192.896 50.992 192.896 50.352C192.896 49.712 193.104 49.184 193.52 48.768C193.968 48.32 194.512 48.096 195.152 48.096C195.792 48.096 196.32 48.32 196.736 48.768C197.184 49.184 197.408 49.712 197.408 50.352C197.408 50.992 197.184 51.536 196.736 51.984C196.32 52.4 195.792 52.608 195.152 52.608C194.512 52.608 193.968 52.4 193.52 51.984ZM207.851 52.176H208.571V57.264H213.371V58.128H208.571V74.4C208.571 76.128 209.051 76.992 210.011 76.992C210.459 76.992 210.843 76.784 211.163 76.368C211.515 75.952 211.691 75.472 211.691 74.928C211.691 74.384 211.643 73.872 211.547 73.392L212.459 73.248C212.587 73.728 212.651 74.256 212.651 74.832C212.651 75.984 212.299 76.896 211.595 77.568C210.923 78.24 210.027 78.576 208.907 78.576C207.787 78.576 206.875 78.128 206.171 77.232C205.467 76.304 205.115 74.928 205.115 73.104V58.8C205.115 58.352 204.891 58.128 204.443 58.128H202.187V57.264H204.539C205.563 57.264 206.667 55.568 207.851 52.176ZM225.968 56.688C228.176 56.688 229.92 57.424 231.2 58.896C232.48 60.368 233.12 62.528 233.12 65.376C233.12 65.952 233.088 66.592 233.024 67.296H219.92V67.632C219.92 70.672 220.464 73.072 221.552 74.832C222.672 76.56 224.096 77.424 225.824 77.424C227.584 77.424 229.024 76.976 230.144 76.08C231.264 75.184 232.032 73.904 232.448 72.24L233.36 72.432C232.976 74.384 232.096 75.904 230.72 76.992C229.344 78.048 227.76 78.576 225.968 78.576C223.184 78.576 220.864 77.6 219.008 75.648C217.184 73.696 216.272 71.04 216.272 67.68C216.272 64.288 217.2 61.616 219.056 59.664C220.912 57.68 223.216 56.688 225.968 56.688ZM229.808 63.744C229.808 59.808 228.336 57.84 225.392 57.84C223.92 57.84 222.656 58.64 221.6 60.24C220.576 61.84 220.032 63.872 219.968 66.336H229.616C229.744 65.248 229.808 64.384 229.808 63.744ZM261.459 57.264H267.555V58.128H265.779C265.491 58.128 265.267 58.352 265.107 58.8L256.803 81.024C256.707 81.312 256.547 81.744 256.323 82.32L255.795 83.616C255.699 83.904 255.555 84.288 255.363 84.768C255.171 85.28 255.011 85.664 254.883 85.92C254.755 86.208 254.595 86.544 254.403 86.928C254.179 87.408 253.859 87.856 253.443 88.272C253.027 88.72 252.595 88.944 252.147 88.944C251.699 88.944 251.219 88.656 250.707 88.08C250.227 87.536 249.939 86.944 249.843 86.304C252.755 85.056 254.739 82.976 255.795 80.064L256.611 77.856L249.507 58.8C249.347 58.352 249.123 58.128 248.835 58.128H247.059V57.264H255.219V58.128H252.819L258.339 73.296L263.907 58.128H261.459V57.264ZM283.694 75.648C281.902 73.696 281.006 71.024 281.006 67.632C281.006 64.24 281.902 61.568 283.694 59.616C285.486 57.664 287.822 56.688 290.702 56.688C293.582 56.688 295.918 57.664 297.71 59.616C299.534 61.568 300.446 64.24 300.446 67.632C300.446 71.024 299.534 73.696 297.71 75.648C295.918 77.6 293.582 78.576 290.702 78.576C287.822 78.576 285.486 77.6 283.694 75.648ZM286.382 60.432C285.23 62.192 284.654 64.592 284.654 67.632C284.654 70.672 285.23 73.088 286.382 74.88C287.534 76.64 288.974 77.52 290.702 77.52C292.43 77.52 293.87 76.64 295.022 74.88C296.206 73.088 296.798 70.672 296.798 67.632C296.798 64.592 296.206 62.192 295.022 60.432C293.87 58.64 292.43 57.744 290.702 57.744C288.974 57.744 287.534 58.64 286.382 60.432ZM321.583 75.648C319.855 77.6 317.583 78.576 314.767 78.576C311.951 78.576 309.599 77.52 307.711 75.408L307.327 78.384H306.511V48.432C306.511 47.984 306.287 47.76 305.839 47.76H303.583V46.896H305.935C307.855 46.896 309.199 46.8 309.967 46.608V63.696C310.511 61.392 311.375 59.648 312.559 58.464C313.775 57.28 315.119 56.688 316.591 56.688C318.607 56.688 320.383 57.696 321.919 59.712C323.455 61.728 324.223 64.4 324.223 67.728C324.223 71.056 323.343 73.696 321.583 75.648ZM315.871 58.512C314.271 58.512 312.879 59.504 311.695 61.488C310.543 63.472 309.967 66.336 309.967 70.08V76.032C311.311 76.928 312.831 77.376 314.527 77.376C316.255 77.376 317.695 76.528 318.847 74.832C319.999 73.136 320.575 70.8 320.575 67.824C320.575 64.848 320.111 62.56 319.183 60.96C318.255 59.328 317.151 58.512 315.871 58.512ZM332.772 52.176H333.492V57.264H338.292V58.128H333.492V74.4C333.492 76.128 333.972 76.992 334.932 76.992C335.38 76.992 335.764 76.784 336.084 76.368C336.436 75.952 336.612 75.472 336.612 74.928C336.612 74.384 336.564 73.872 336.468 73.392L337.38 73.248C337.508 73.728 337.572 74.256 337.572 74.832C337.572 75.984 337.22 76.896 336.516 77.568C335.844 78.24 334.948 78.576 333.828 78.576C332.708 78.576 331.796 78.128 331.092 77.232C330.388 76.304 330.036 74.928 330.036 73.104V58.8C330.036 58.352 329.812 58.128 329.364 58.128H327.108V57.264H329.46C330.484 57.264 331.588 55.568 332.772 52.176ZM350.889 56.688C353.097 56.688 354.841 57.424 356.121 58.896C357.401 60.368 358.041 62.528 358.041 65.376C358.041 65.952 358.009 66.592 357.945 67.296H344.841V67.632C344.841 70.672 345.385 73.072 346.473 74.832C347.593 76.56 349.017 77.424 350.745 77.424C352.505 77.424 353.945 76.976 355.065 76.08C356.185 75.184 356.953 73.904 357.369 72.24L358.281 72.432C357.897 74.384 357.017 75.904 355.641 76.992C354.265 78.048 352.681 78.576 350.889 78.576C348.105 78.576 345.785 77.6 343.929 75.648C342.105 73.696 341.193 71.04 341.193 67.68C341.193 64.288 342.121 61.616 343.977 59.664C345.833 57.68 348.137 56.688 350.889 56.688ZM354.729 63.744C354.729 59.808 353.257 57.84 350.313 57.84C348.841 57.84 347.577 58.64 346.521 60.24C345.497 61.84 344.953 63.872 344.889 66.336H354.537C354.665 65.248 354.729 64.384 354.729 63.744ZM382.157 63.984V76.56C382.157 76.944 382.381 77.136 382.829 77.136H385.085V78H376.445V77.136H378.029C378.477 77.136 378.701 76.944 378.701 76.56V63.36C378.701 61.728 378.333 60.528 377.597 59.76C376.893 58.96 375.949 58.56 374.765 58.56C373.101 58.56 371.725 59.552 370.637 61.536C369.549 63.488 369.005 66.304 369.005 69.984V76.464C369.005 76.912 369.229 77.136 369.677 77.136H371.261V78H362.621V77.136H364.877C365.325 77.136 365.549 76.944 365.549 76.56V58.8C365.549 58.352 365.325 58.128 364.877 58.128H362.621V57.264H364.973C366.893 57.264 368.237 57.168 369.005 56.976V63.504C370.093 58.96 372.493 56.688 376.205 56.688C377.869 56.688 379.277 57.296 380.429 58.512C381.581 59.696 382.157 61.52 382.157 63.984ZM398.374 56.688C400.582 56.688 402.326 57.424 403.606 58.896C404.886 60.368 405.526 62.528 405.526 65.376C405.526 65.952 405.494 66.592 405.43 67.296H392.326V67.632C392.326 70.672 392.87 73.072 393.958 74.832C395.078 76.56 396.502 77.424 398.23 77.424C399.99 77.424 401.43 76.976 402.55 76.08C403.67 75.184 404.438 73.904 404.854 72.24L405.766 72.432C405.382 74.384 404.502 75.904 403.126 76.992C401.75 78.048 400.166 78.576 398.374 78.576C395.59 78.576 393.27 77.6 391.414 75.648C389.59 73.696 388.678 71.04 388.678 67.68C388.678 64.288 389.606 61.616 391.462 59.664C393.318 57.68 395.622 56.688 398.374 56.688ZM402.214 63.744C402.214 59.808 400.742 57.84 397.798 57.84C396.326 57.84 395.062 58.64 394.006 60.24C392.982 61.84 392.438 63.872 392.374 66.336H402.022C402.15 65.248 402.214 64.384 402.214 63.744ZM395.014 54.96L398.422 48.528C398.998 47.44 399.686 46.896 400.486 46.896C400.934 46.896 401.334 47.088 401.686 47.472C402.038 47.824 402.214 48.368 402.214 49.104L395.782 55.536L395.014 54.96ZM129.426 109.976V129.464C129.426 129.912 129.65 130.136 130.098 130.136H132.354V131H130.002C128.082 131 126.738 131.096 125.97 131.288V124.808C124.882 129.32 122.482 131.576 118.77 131.576C117.106 131.576 115.698 130.984 114.546 129.8C113.394 128.584 112.818 126.744 112.818 124.28V111.8C112.818 111.352 112.594 111.128 112.146 111.128H109.89V110.264H112.242C114.162 110.264 115.506 110.168 116.274 109.976V124.904C116.274 126.536 116.626 127.752 117.33 128.552C118.066 129.32 119.026 129.704 120.21 129.704C121.906 129.704 123.282 128.68 124.338 126.632C125.426 124.552 125.97 121.576 125.97 117.704V111.8C125.97 111.352 125.746 111.128 125.298 111.128H123.042V110.264H125.394C127.314 110.264 128.658 110.168 129.426 109.976ZM155.469 116.984V129.56C155.469 129.944 155.693 130.136 156.141 130.136H158.397V131H149.757V130.136H151.341C151.789 130.136 152.013 129.944 152.013 129.56V116.36C152.013 114.728 151.645 113.528 150.909 112.76C150.205 111.96 149.261 111.56 148.077 111.56C146.413 111.56 145.037 112.552 143.949 114.536C142.861 116.488 142.317 119.304 142.317 122.984V129.464C142.317 129.912 142.541 130.136 142.989 130.136H144.573V131H135.933V130.136H138.189C138.637 130.136 138.861 129.944 138.861 129.56V111.8C138.861 111.352 138.637 111.128 138.189 111.128H135.933V110.264H138.285C140.205 110.264 141.549 110.168 142.317 109.976V116.504C143.405 111.96 145.805 109.688 149.517 109.688C151.181 109.688 152.589 110.296 153.741 111.512C154.893 112.696 155.469 114.52 155.469 116.984ZM187.382 110.168C187.382 108.344 186.966 106.904 186.134 105.848C185.334 104.792 184.198 104.264 182.726 104.264C181.286 104.264 180.182 104.632 179.414 105.368C178.646 106.104 178.262 107.032 178.262 108.152C178.262 109.272 178.47 110.264 178.886 111.128C178.342 111.608 177.606 111.848 176.678 111.848C175.526 111.848 174.95 110.984 174.95 109.256C174.95 107.496 175.574 106.056 176.822 104.936C178.102 103.784 180.054 103.208 182.678 103.208C185.334 103.208 187.398 103.832 188.87 105.08C190.374 106.328 191.126 107.816 191.126 109.544C191.126 111.944 190.006 114.424 187.766 116.984C187.542 117.24 187.014 117.816 186.182 118.712C185.382 119.576 184.918 120.088 184.79 120.248L177.638 127.976H188.678C189.446 127.976 189.894 127.624 190.022 126.92L190.646 122.744H191.75V125.048C191.75 127.864 191.91 129.992 192.23 131.432C191.142 131.144 189.302 131 186.71 131H173.03L183.926 119C186.23 116.44 187.382 113.496 187.382 110.168ZM205.377 131.576C202.433 131.576 200.033 130.328 198.177 127.832C196.353 125.304 195.441 121.832 195.441 117.416C195.441 112.968 196.353 109.496 198.177 107C200.033 104.472 202.433 103.208 205.377 103.208C208.321 103.208 210.721 104.472 212.577 107C214.433 109.496 215.361 112.968 215.361 117.416C215.361 121.832 214.433 125.304 212.577 127.832C210.721 130.328 208.321 131.576 205.377 131.576ZM200.913 107.816C199.729 110.184 199.137 113.384 199.137 117.416C199.137 121.448 199.729 124.648 200.913 127.016C202.129 129.384 203.617 130.568 205.377 130.568C207.137 130.568 208.625 129.384 209.841 127.016C211.057 124.648 211.665 121.448 211.665 117.416C211.665 113.384 211.057 110.184 209.841 107.816C208.625 105.448 207.137 104.264 205.377 104.264C203.617 104.264 202.129 105.448 200.913 107.816ZM224.956 121.16C223.036 121.16 221.468 120.36 220.252 118.76C219.068 117.16 218.476 114.968 218.476 112.184C218.476 109.368 219.068 107.176 220.252 105.608C221.468 104.008 223.036 103.208 224.956 103.208C226.876 103.208 228.428 104.008 229.612 105.608C230.828 107.176 231.436 109.368 231.436 112.184C231.436 114.968 230.828 117.16 229.612 118.76C228.428 120.36 226.876 121.16 224.956 121.16ZM224.908 104.12C223.916 104.12 223.068 104.84 222.364 106.28C221.692 107.72 221.356 109.688 221.356 112.184C221.356 114.648 221.692 116.6 222.364 118.04C223.068 119.48 223.916 120.2 224.908 120.2C225.932 120.2 226.796 119.48 227.5 118.04C228.204 116.568 228.556 114.6 228.556 112.136C228.556 109.672 228.204 107.72 227.5 106.28C226.796 104.84 225.932 104.12 224.908 104.12ZM245.452 131.384C243.532 131.384 241.964 130.584 240.748 128.984C239.564 127.384 238.972 125.192 238.972 122.408C238.972 119.592 239.564 117.4 240.748 115.832C241.964 114.232 243.532 113.432 245.452 113.432C247.372 113.432 248.924 114.232 250.108 115.832C251.324 117.4 251.932 119.592 251.932 122.408C251.932 125.192 251.324 127.384 250.108 128.984C248.924 130.584 247.372 131.384 245.452 131.384ZM245.404 114.344C244.412 114.344 243.564 115.064 242.86 116.504C242.188 117.944 241.852 119.912 241.852 122.408C241.852 124.872 242.188 126.824 242.86 128.264C243.564 129.704 244.412 130.424 245.404 130.424C246.428 130.424 247.292 129.704 247.996 128.264C248.7 126.792 249.052 124.824 249.052 122.36C249.052 119.896 248.7 117.944 247.996 116.504C247.292 115.064 246.428 114.344 245.404 114.344ZM230.044 134.552H228.364L240.316 99.896H242.044L230.044 134.552ZM270.522 128.648C268.73 126.696 267.834 124.024 267.834 120.632C267.834 117.24 268.73 114.568 270.522 112.616C272.314 110.664 274.65 109.688 277.53 109.688C280.41 109.688 282.746 110.664 284.538 112.616C286.362 114.568 287.274 117.24 287.274 120.632C287.274 124.024 286.362 126.696 284.538 128.648C282.746 130.6 280.41 131.576 277.53 131.576C274.65 131.576 272.314 130.6 270.522 128.648ZM273.21 113.432C272.058 115.192 271.482 117.592 271.482 120.632C271.482 123.672 272.058 126.088 273.21 127.88C274.362 129.64 275.802 130.52 277.53 130.52C279.258 130.52 280.698 129.64 281.85 127.88C283.034 126.088 283.626 123.672 283.626 120.632C283.626 117.592 283.034 115.192 281.85 113.432C280.698 111.64 279.258 110.744 277.53 110.744C275.802 110.744 274.362 111.64 273.21 113.432ZM297.755 104.504V110.264H302.555V111.128H297.755V129.56C297.755 129.944 298.011 130.136 298.523 130.136H301.643V131H291.371V130.136H293.627C294.075 130.136 294.299 129.912 294.299 129.464V111.8C294.299 111.352 294.075 111.128 293.627 111.128H291.371V110.264H294.347C294.539 106.552 295.227 103.8 296.411 102.008C297.627 100.216 299.067 99.32 300.731 99.32C302.427 99.32 303.659 99.736 304.427 100.568C305.195 101.368 305.579 102.232 305.579 103.16C305.579 105.08 305.019 106.04 303.899 106.04C302.971 106.04 302.219 105.8 301.643 105.32C302.123 104.36 302.363 103.512 302.363 102.776C302.363 101.208 301.707 100.424 300.395 100.424C298.635 100.424 297.755 101.784 297.755 104.504ZM312.099 104.504V110.264H316.899V111.128H312.099V129.56C312.099 129.944 312.355 130.136 312.867 130.136H315.987V131H305.715V130.136H307.971C308.419 130.136 308.643 129.912 308.643 129.464V111.8C308.643 111.352 308.419 111.128 307.971 111.128H305.715V110.264H308.691C308.883 106.552 309.571 103.8 310.755 102.008C311.971 100.216 313.411 99.32 315.075 99.32C316.771 99.32 318.003 99.736 318.771 100.568C319.539 101.368 319.923 102.232 319.923 103.16C319.923 105.08 319.363 106.04 318.243 106.04C317.315 106.04 316.563 105.8 315.987 105.32C316.467 104.36 316.707 103.512 316.707 102.776C316.707 101.208 316.051 100.424 314.739 100.424C312.979 100.424 312.099 101.784 312.099 104.504ZM326.682 103.016L325.098 122.84H323.85L322.218 103.016C322.218 101.128 322.954 100.184 324.426 100.184C325.93 100.184 326.682 101.128 326.682 103.016ZM326.058 127.64C326.538 128.088 326.778 128.632 326.778 129.272C326.778 129.912 326.538 130.456 326.058 130.904C325.61 131.352 325.082 131.576 324.474 131.576C323.866 131.576 323.322 131.352 322.842 130.904C322.394 130.456 322.17 129.912 322.17 129.272C322.17 128.632 322.394 128.088 322.842 127.64C323.322 127.192 323.866 126.968 324.474 126.968C325.082 126.968 325.61 127.192 326.058 127.64Z" fill="#B68052"/>
<rect x="32" y="214" width="372" height="63" rx="31.5" fill="white" stroke="#E2E2E2" stroke-width="2"/>
<path d="M55.374 315.192C54.2967 315.192 53.3793 314.952 52.622 314.472C51.8753 313.992 51.31 313.32 50.926 312.456C50.5527 311.592 50.366 310.584 50.366 309.432C50.366 308.28 50.5527 307.272 50.926 306.408C51.31 305.544 51.8753 304.872 52.622 304.392C53.3793 303.912 54.2967 303.672 55.374 303.672C55.9607 303.672 56.526 303.747 57.07 303.896C57.614 304.035 58.11 304.243 58.558 304.52V306.12H58.494C58.142 305.779 57.6993 305.507 57.166 305.304C56.6327 305.091 56.0513 304.984 55.422 304.984C54.206 304.984 53.31 305.379 52.734 306.168C52.1687 306.957 51.886 308.045 51.886 309.432C51.886 310.829 52.1687 311.923 52.734 312.712C53.31 313.501 54.2007 313.896 55.406 313.896C56.014 313.896 56.5847 313.795 57.118 313.592C57.662 313.389 58.1207 313.107 58.494 312.744H58.558V314.344C58.11 314.621 57.614 314.835 57.07 314.984C56.526 315.123 55.9607 315.192 55.374 315.192ZM65.3856 315.192C64.1696 315.192 63.2203 314.797 62.5376 314.008C61.855 313.208 61.5136 312.147 61.5136 310.824C61.5136 309.501 61.855 308.445 62.5376 307.656C63.2203 306.856 64.1696 306.456 65.3856 306.456C66.6016 306.456 67.551 306.856 68.2336 307.656C68.9163 308.445 69.2576 309.501 69.2576 310.824C69.2576 312.147 68.9163 313.208 68.2336 314.008C67.551 314.797 66.6016 315.192 65.3856 315.192ZM65.3856 313.976C66.1643 313.976 66.751 313.688 67.1456 313.112C67.5403 312.536 67.7376 311.773 67.7376 310.824C67.7376 309.875 67.5403 309.112 67.1456 308.536C66.751 307.96 66.1643 307.672 65.3856 307.672C64.607 307.672 64.0203 307.96 63.6256 308.536C63.2416 309.112 63.0496 309.875 63.0496 310.824C63.0496 311.773 63.2416 312.536 63.6256 313.112C64.0203 313.688 64.607 313.976 65.3856 313.976ZM76.564 306.456C77.3533 306.456 77.9507 306.701 78.356 307.192C78.7613 307.672 78.964 308.344 78.964 309.208V315H77.556V309.4C77.556 308.867 77.444 308.456 77.22 308.168C76.996 307.869 76.6547 307.72 76.196 307.72C75.6733 307.72 75.2307 307.805 74.868 307.976C74.516 308.147 74.1213 308.424 73.684 308.808V315H72.276V308.504L71.924 306.648H73.332L73.556 307.816C74.0573 307.336 74.5213 306.989 74.948 306.776C75.3853 306.563 75.924 306.456 76.564 306.456ZM84.1424 306.648H86.4464V307.864H84.1424V312.648C84.1424 313.043 84.2277 313.363 84.3984 313.608C84.5797 313.843 84.841 313.96 85.1824 313.96C85.417 313.96 85.625 313.939 85.8064 313.896C85.9984 313.843 86.2117 313.763 86.4464 313.656V314.904C86.201 315.021 85.9664 315.096 85.7424 315.128C85.5184 315.171 85.2464 315.192 84.9264 315.192C84.2437 315.192 83.705 314.973 83.3104 314.536C82.9264 314.099 82.7344 313.517 82.7344 312.792V307.864H81.1344V306.648H82.7344V304.408L84.1424 303.672V306.648ZM92.9326 306.456V308.008H92.6926C92.1913 308.008 91.738 308.099 91.3326 308.28C90.938 308.461 90.6073 308.723 90.3406 309.064V315H88.9326V308.504L88.5806 306.648H89.9886L90.2766 308.136C90.714 307.496 91.082 307.059 91.3806 306.824C91.69 306.579 92.042 306.456 92.4366 306.456H92.9326ZM100.659 315L100.435 313.8C100.019 314.259 99.566 314.605 99.0754 314.84C98.5954 315.075 98.0514 315.192 97.4434 315.192C96.686 315.192 96.0727 314.979 95.6034 314.552C95.134 314.115 94.8994 313.539 94.8994 312.824C94.8994 311.896 95.2727 311.213 96.0194 310.776C96.766 310.339 97.726 310.12 98.8994 310.12C99.326 310.12 99.7954 310.147 100.307 310.2V309.624C100.307 309.048 100.147 308.589 99.8274 308.248C99.518 307.896 99.1127 307.72 98.6114 307.72C98.014 307.72 97.47 307.8 96.9794 307.96C96.4994 308.12 96.0034 308.371 95.4914 308.712V307.352C95.9927 307.021 96.5047 306.792 97.0274 306.664C97.55 306.525 98.1474 306.456 98.8194 306.456C99.6727 306.456 100.366 306.728 100.899 307.272C101.443 307.816 101.715 308.536 101.715 309.432V313.144L102.067 315H100.659ZM97.7314 314.008C98.2434 314.008 98.702 313.901 99.1074 313.688C99.5127 313.475 99.9127 313.165 100.307 312.76V311.192H98.8354C97.2247 311.192 96.4194 311.709 96.4194 312.744C96.4194 313.128 96.542 313.437 96.7874 313.672C97.0327 313.896 97.3474 314.008 97.7314 314.008ZM106.981 315.192C106.469 315.192 105.962 315.117 105.461 314.968C104.97 314.808 104.506 314.584 104.069 314.296V312.824C105.039 313.571 105.999 313.944 106.949 313.944C107.503 313.944 107.951 313.832 108.293 313.608C108.634 313.373 108.805 313.064 108.805 312.68C108.805 312.413 108.719 312.195 108.549 312.024C108.389 311.853 108.186 311.72 107.941 311.624C107.695 311.528 107.343 311.411 106.885 311.272C106.319 311.112 105.85 310.957 105.477 310.808C105.114 310.648 104.805 310.419 104.549 310.12C104.293 309.811 104.165 309.411 104.165 308.92C104.165 308.173 104.447 307.576 105.013 307.128C105.578 306.68 106.319 306.456 107.237 306.456C108.154 306.456 108.986 306.696 109.733 307.176V308.6C109.317 308.28 108.911 308.051 108.517 307.912C108.133 307.773 107.727 307.704 107.301 307.704C106.767 307.704 106.346 307.8 106.037 307.992C105.727 308.184 105.573 308.451 105.573 308.792C105.573 309.037 105.653 309.24 105.813 309.4C105.983 309.56 106.191 309.688 106.437 309.784C106.682 309.88 107.034 309.997 107.493 310.136C108.069 310.307 108.538 310.472 108.901 310.632C109.263 310.781 109.573 311.016 109.829 311.336C110.085 311.645 110.213 312.051 110.213 312.552C110.213 313.064 110.074 313.523 109.797 313.928C109.519 314.323 109.135 314.632 108.645 314.856C108.154 315.08 107.599 315.192 106.981 315.192ZM119.653 311.288H113.733C113.818 312.109 114.09 312.765 114.549 313.256C115.018 313.736 115.653 313.976 116.453 313.976C116.933 313.976 117.397 313.88 117.845 313.688C118.303 313.485 118.767 313.192 119.237 312.808H119.301V314.216C118.831 314.557 118.367 314.808 117.909 314.968C117.45 315.117 116.959 315.192 116.437 315.192C115.583 315.192 114.842 315.005 114.213 314.632C113.583 314.259 113.098 313.741 112.757 313.08C112.426 312.408 112.261 311.64 112.261 310.776C112.261 309.955 112.41 309.219 112.709 308.568C113.018 307.907 113.455 307.389 114.021 307.016C114.586 306.643 115.247 306.456 116.005 306.456C116.773 306.456 117.429 306.648 117.973 307.032C118.527 307.405 118.943 307.923 119.221 308.584C119.509 309.245 119.653 309.992 119.653 310.824V311.288ZM116.021 307.624C115.359 307.624 114.831 307.864 114.437 308.344C114.042 308.824 113.807 309.443 113.733 310.2H118.197C118.122 309.421 117.903 308.797 117.541 308.328C117.189 307.859 116.682 307.624 116.021 307.624ZM126.798 306.456C127.588 306.456 128.185 306.701 128.59 307.192C128.996 307.672 129.198 308.344 129.198 309.208V315H127.79V309.4C127.79 308.867 127.678 308.456 127.454 308.168C127.23 307.869 126.889 307.72 126.43 307.72C125.908 307.72 125.465 307.805 125.102 307.976C124.75 308.147 124.356 308.424 123.918 308.808V315H122.51V308.504L122.158 306.648H123.566L123.79 307.816C124.292 307.336 124.756 306.989 125.182 306.776C125.62 306.563 126.158 306.456 126.798 306.456ZM126.958 304.856C126.756 304.856 126.564 304.824 126.382 304.76C126.212 304.685 126.009 304.584 125.774 304.456C125.508 304.317 125.3 304.221 125.15 304.168C125.012 304.115 124.852 304.088 124.67 304.088C124.169 304.088 123.684 304.344 123.214 304.856V303.688C123.705 303.123 124.217 302.84 124.75 302.84C124.953 302.84 125.14 302.877 125.31 302.952C125.492 303.016 125.7 303.112 125.934 303.24C126.201 303.379 126.404 303.475 126.542 303.528C126.692 303.581 126.857 303.608 127.038 303.608C127.54 303.608 128.025 303.411 128.494 303.016V304.184C128.004 304.632 127.492 304.856 126.958 304.856ZM137.769 315L137.545 313.8C137.129 314.259 136.675 314.605 136.185 314.84C135.705 315.075 135.161 315.192 134.553 315.192C133.795 315.192 133.182 314.979 132.713 314.552C132.243 314.115 132.009 313.539 132.009 312.824C132.009 311.896 132.382 311.213 133.129 310.776C133.875 310.339 134.835 310.12 136.009 310.12C136.435 310.12 136.905 310.147 137.417 310.2V309.624C137.417 309.048 137.257 308.589 136.937 308.248C136.627 307.896 136.222 307.72 135.721 307.72C135.123 307.72 134.579 307.8 134.089 307.96C133.609 308.12 133.113 308.371 132.601 308.712V307.352C133.102 307.021 133.614 306.792 134.137 306.664C134.659 306.525 135.257 306.456 135.929 306.456C136.782 306.456 137.475 306.728 138.009 307.272C138.553 307.816 138.825 308.536 138.825 309.432V313.144L139.177 315H137.769ZM134.841 314.008C135.353 314.008 135.811 313.901 136.217 313.688C136.622 313.475 137.022 313.165 137.417 312.76V311.192H135.945C134.334 311.192 133.529 311.709 133.529 312.744C133.529 313.128 133.651 313.437 133.897 313.672C134.142 313.896 134.457 314.008 134.841 314.008Z" fill="black"/>
<rect x="32" y="331" width="372" height="61" rx="30.5" fill="white" stroke="#E2E2E2" stroke-width="2"/>
<path d="M57.7852 369.195C57.0625 369.182 56.4342 369.039 55.9004 368.766C55.373 368.486 54.9401 368.111 54.6016 367.643C54.2695 367.167 54.0319 366.627 53.8887 366.021C53.7454 365.416 53.7031 364.781 53.7617 364.117L53.8008 363.697C53.8659 363.02 54.0319 362.356 54.2988 361.705C54.5658 361.048 54.9206 360.455 55.3633 359.928C55.8125 359.4 56.3398 358.984 56.9453 358.678C57.5573 358.365 58.2344 358.219 58.9766 358.238C59.7122 358.251 60.3242 358.408 60.8125 358.707C61.3008 359.007 61.6816 359.404 61.9551 359.898C62.235 360.387 62.4173 360.937 62.502 361.549C62.5866 362.154 62.5931 362.776 62.5215 363.414L62.4141 364.225H54.748L54.9824 362.75L60.832 362.76L60.8613 362.604C60.9264 362.135 60.9004 361.682 60.7832 361.246C60.666 360.81 60.4512 360.452 60.1387 360.172C59.8327 359.885 59.4193 359.736 58.8984 359.723C58.3581 359.703 57.8893 359.814 57.4922 360.055C57.0951 360.289 56.763 360.608 56.4961 361.012C56.2292 361.409 56.0176 361.845 55.8613 362.32C55.7116 362.789 55.6074 363.248 55.5488 363.697L55.5098 364.107C55.4707 364.524 55.4837 364.944 55.5488 365.367C55.6139 365.79 55.7376 366.178 55.9199 366.529C56.1087 366.874 56.3691 367.158 56.7012 367.379C57.0332 367.594 57.4434 367.708 57.9316 367.721C58.5241 367.734 59.0547 367.607 59.5234 367.34C59.9987 367.066 60.4316 366.721 60.8223 366.305L61.8281 367.164C61.5221 367.613 61.1576 367.991 60.7344 368.297C60.3112 368.603 59.849 368.831 59.3477 368.98C58.8464 369.13 58.3255 369.202 57.7852 369.195ZM65.4902 358.434H67.2676L65.2656 370.26C65.1875 370.852 65.0247 371.38 64.7773 371.842C64.5365 372.304 64.1979 372.665 63.7617 372.926C63.332 373.186 62.7982 373.31 62.1602 373.297C61.9583 373.29 61.7598 373.271 61.5645 373.238C61.3691 373.206 61.1738 373.163 60.9785 373.111L61.1445 371.656C61.2812 371.689 61.418 371.715 61.5547 371.734C61.6914 371.76 61.8281 371.773 61.9648 371.773C62.2773 371.773 62.5378 371.705 62.7461 371.568C62.9479 371.438 63.1074 371.259 63.2246 371.031C63.3418 370.803 63.4232 370.546 63.4688 370.26L65.4902 358.434ZM65.8027 355.66C65.8027 355.354 65.8971 355.1 66.0859 354.898C66.2812 354.69 66.5319 354.583 66.8379 354.576C67.1439 354.57 67.3945 354.664 67.5898 354.859C67.7852 355.055 67.8828 355.302 67.8828 355.602C67.8763 355.908 67.7754 356.158 67.5801 356.354C67.3848 356.549 67.1374 356.65 66.8379 356.656C66.5384 356.663 66.2878 356.575 66.0859 356.393C65.8906 356.204 65.7962 355.96 65.8027 355.66ZM72.7266 369.195C72.0039 369.182 71.3757 369.039 70.8418 368.766C70.3145 368.486 69.8815 368.111 69.543 367.643C69.2109 367.167 68.9733 366.627 68.8301 366.021C68.6868 365.416 68.6445 364.781 68.7031 364.117L68.7422 363.697C68.8073 363.02 68.9733 362.356 69.2402 361.705C69.5072 361.048 69.862 360.455 70.3047 359.928C70.7539 359.4 71.2812 358.984 71.8867 358.678C72.4987 358.365 73.1758 358.219 73.918 358.238C74.6536 358.251 75.2656 358.408 75.7539 358.707C76.2422 359.007 76.623 359.404 76.8965 359.898C77.1764 360.387 77.3587 360.937 77.4434 361.549C77.528 362.154 77.5345 362.776 77.4629 363.414L77.3555 364.225H69.6895L69.9238 362.75L75.7734 362.76L75.8027 362.604C75.8678 362.135 75.8418 361.682 75.7246 361.246C75.6074 360.81 75.3926 360.452 75.0801 360.172C74.7741 359.885 74.3607 359.736 73.8398 359.723C73.2995 359.703 72.8307 359.814 72.4336 360.055C72.0365 360.289 71.7044 360.608 71.4375 361.012C71.1706 361.409 70.959 361.845 70.8027 362.32C70.653 362.789 70.5488 363.248 70.4902 363.697L70.4512 364.107C70.4121 364.524 70.4251 364.944 70.4902 365.367C70.5553 365.79 70.679 366.178 70.8613 366.529C71.0501 366.874 71.3105 367.158 71.6426 367.379C71.9746 367.594 72.3848 367.708 72.873 367.721C73.4655 367.734 73.9961 367.607 74.4648 367.34C74.9401 367.066 75.373 366.721 75.7637 366.305L76.7695 367.164C76.4635 367.613 76.099 367.991 75.6758 368.297C75.2526 368.603 74.7904 368.831 74.2891 368.98C73.7878 369.13 73.2669 369.202 72.7266 369.195ZM81.75 360.641L80.3047 369H78.5273L80.3633 358.434H82.043L81.75 360.641ZM80.959 363.316L80.1582 363.297C80.2493 362.639 80.4121 362.005 80.6465 361.393C80.8809 360.781 81.1934 360.234 81.584 359.752C81.9811 359.27 82.4596 358.893 83.0195 358.619C83.5794 358.346 84.2272 358.219 84.9629 358.238C85.5098 358.251 85.972 358.359 86.3496 358.561C86.7272 358.756 87.0299 359.026 87.2578 359.371C87.4922 359.71 87.6484 360.1 87.7266 360.543C87.8112 360.986 87.8307 361.458 87.7852 361.959L86.6035 369H84.8359L86.0078 362.037C86.0599 361.594 86.0339 361.204 85.9297 360.865C85.832 360.527 85.6465 360.26 85.373 360.064C85.0996 359.863 84.7285 359.755 84.2598 359.742C83.7324 359.729 83.2734 359.82 82.8828 360.016C82.4987 360.211 82.1764 360.481 81.916 360.826C81.6621 361.165 81.457 361.552 81.3008 361.988C81.1445 362.418 81.0306 362.861 80.959 363.316ZM87.7852 362.32L86.5156 362.691C86.5938 362.086 86.7565 361.513 87.0039 360.973C87.2578 360.432 87.5866 359.954 87.9902 359.537C88.3939 359.12 88.8626 358.795 89.3965 358.561C89.9303 358.326 90.5195 358.215 91.1641 358.229C91.737 358.242 92.222 358.349 92.6191 358.551C93.0163 358.746 93.332 359.016 93.5664 359.361C93.8073 359.706 93.9668 360.11 94.0449 360.572C94.1296 361.028 94.1426 361.523 94.084 362.057L92.9219 369H91.1445L92.3164 362.027C92.3685 361.578 92.3457 361.184 92.248 360.846C92.1569 360.507 91.9746 360.243 91.7012 360.055C91.4277 359.859 91.0501 359.758 90.5684 359.752C90.1842 359.739 89.8327 359.798 89.5137 359.928C89.1947 360.058 88.918 360.243 88.6836 360.484C88.4492 360.719 88.2539 360.992 88.0977 361.305C87.9479 361.617 87.8438 361.956 87.7852 362.32ZM98.791 360.572L96.623 373.062H94.8457L97.3848 358.434H99.0059L98.791 360.572ZM105.148 363.57L105.129 363.775C105.044 364.413 104.888 365.058 104.66 365.709C104.439 366.354 104.136 366.943 103.752 367.477C103.368 368.01 102.896 368.437 102.336 368.756C101.783 369.075 101.132 369.225 100.383 369.205C99.7253 369.192 99.1621 369.049 98.6934 368.775C98.2246 368.495 97.847 368.128 97.5605 367.672C97.2741 367.21 97.069 366.695 96.9453 366.129C96.8281 365.556 96.7891 364.97 96.8281 364.371L96.9648 363.287C97.0755 362.649 97.2611 362.027 97.5215 361.422C97.7884 360.81 98.127 360.26 98.5371 359.771C98.9473 359.283 99.4323 358.902 99.9922 358.629C100.559 358.349 101.2 358.219 101.916 358.238C102.639 358.258 103.225 358.434 103.674 358.766C104.13 359.091 104.475 359.518 104.709 360.045C104.95 360.566 105.1 361.135 105.158 361.754C105.217 362.366 105.214 362.971 105.148 363.57ZM103.352 363.766L103.381 363.551C103.426 363.16 103.436 362.747 103.41 362.311C103.391 361.874 103.309 361.467 103.166 361.09C103.029 360.706 102.811 360.39 102.512 360.143C102.219 359.895 101.818 359.765 101.311 359.752C100.907 359.739 100.523 359.807 100.158 359.957C99.8001 360.1 99.4746 360.305 99.1816 360.572C98.8887 360.833 98.638 361.135 98.4297 361.48C98.2214 361.819 98.0684 362.177 97.9707 362.555L97.5508 365.104C97.5443 365.566 97.6452 365.995 97.8535 366.393C98.0618 366.783 98.3451 367.099 98.7031 367.34C99.0677 367.581 99.4811 367.708 99.9434 367.721C100.484 367.734 100.952 367.626 101.35 367.398C101.753 367.164 102.092 366.852 102.365 366.461C102.639 366.064 102.857 365.631 103.02 365.162C103.182 364.687 103.293 364.221 103.352 363.766ZM110.979 354L108.371 369H106.604L109.201 354H110.979ZM111.643 363.893L111.672 363.668C111.75 362.958 111.926 362.275 112.199 361.617C112.479 360.96 112.847 360.374 113.303 359.859C113.758 359.345 114.299 358.941 114.924 358.648C115.549 358.355 116.245 358.219 117.014 358.238C117.756 358.251 118.391 358.411 118.918 358.717C119.452 359.023 119.882 359.43 120.207 359.938C120.539 360.439 120.77 361.005 120.9 361.637C121.031 362.268 121.063 362.919 120.998 363.59L120.979 363.814C120.894 364.524 120.712 365.204 120.432 365.855C120.152 366.507 119.781 367.086 119.318 367.594C118.863 368.102 118.322 368.502 117.697 368.795C117.072 369.081 116.379 369.215 115.617 369.195C114.882 369.182 114.247 369.026 113.713 368.727C113.186 368.421 112.759 368.017 112.434 367.516C112.108 367.014 111.88 366.451 111.75 365.826C111.62 365.201 111.584 364.557 111.643 363.893ZM113.43 363.668L113.41 363.902C113.365 364.312 113.361 364.739 113.4 365.182C113.446 365.624 113.55 366.035 113.713 366.412C113.882 366.79 114.126 367.099 114.445 367.34C114.764 367.581 115.178 367.708 115.686 367.721C116.226 367.734 116.701 367.63 117.111 367.408C117.521 367.18 117.87 366.874 118.156 366.49C118.449 366.106 118.68 365.68 118.85 365.211C119.025 364.742 119.143 364.277 119.201 363.814L119.221 363.59C119.266 363.18 119.266 362.753 119.221 362.311C119.182 361.861 119.077 361.445 118.908 361.061C118.745 360.67 118.505 360.354 118.186 360.113C117.867 359.866 117.453 359.736 116.945 359.723C116.405 359.703 115.926 359.811 115.51 360.045C115.1 360.273 114.751 360.582 114.465 360.973C114.178 361.363 113.947 361.796 113.771 362.271C113.602 362.74 113.488 363.206 113.43 363.668ZM130.266 354.703L127.844 369H126.076L128.166 357.008L124.387 358.326L124.699 356.617L129.953 354.703H130.266ZM142.355 367.516L142.121 369H133.078L133.293 367.623L138.547 362.506C138.905 362.148 139.286 361.764 139.689 361.354C140.093 360.943 140.448 360.504 140.754 360.035C141.06 359.566 141.249 359.062 141.32 358.521C141.372 358.079 141.33 357.675 141.193 357.311C141.057 356.939 140.832 356.643 140.52 356.422C140.207 356.194 139.816 356.074 139.348 356.061C138.742 356.041 138.218 356.155 137.775 356.402C137.333 356.65 136.975 356.995 136.701 357.438C136.434 357.88 136.258 358.385 136.174 358.951L134.436 358.961C134.52 358.076 134.787 357.301 135.236 356.637C135.692 355.973 136.281 355.462 137.004 355.104C137.727 354.739 138.531 354.566 139.416 354.586C140.152 354.599 140.812 354.755 141.398 355.055C141.984 355.348 142.434 355.771 142.746 356.324C143.065 356.878 143.189 357.542 143.117 358.316C143.078 358.824 142.951 359.312 142.736 359.781C142.521 360.243 142.255 360.689 141.936 361.119C141.623 361.542 141.285 361.943 140.92 362.32C140.555 362.698 140.197 363.053 139.846 363.385L135.5 367.516H142.355ZM147.775 361.002L148.957 361.021C149.484 361.015 149.976 360.921 150.432 360.738C150.894 360.549 151.275 360.27 151.574 359.898C151.88 359.527 152.062 359.062 152.121 358.502C152.173 358.02 152.134 357.6 152.004 357.242C151.874 356.878 151.652 356.591 151.34 356.383C151.027 356.174 150.62 356.064 150.119 356.051C149.611 356.044 149.156 356.142 148.752 356.344C148.355 356.546 148.026 356.832 147.766 357.203C147.512 357.574 147.346 358.004 147.268 358.492L145.52 358.502C145.598 357.701 145.858 357.005 146.301 356.412C146.75 355.82 147.316 355.364 148 355.045C148.684 354.719 149.419 354.563 150.207 354.576C150.988 354.589 151.669 354.762 152.248 355.094C152.827 355.419 153.264 355.878 153.557 356.471C153.85 357.057 153.967 357.747 153.908 358.541C153.863 359.133 153.693 359.651 153.4 360.094C153.107 360.536 152.733 360.908 152.277 361.207C151.828 361.507 151.337 361.731 150.803 361.881C150.269 362.031 149.738 362.105 149.211 362.105L147.6 362.096L147.775 361.002ZM147.541 362.486L147.717 361.402L149.104 361.412C149.663 361.425 150.191 361.503 150.686 361.646C151.187 361.79 151.623 362.005 151.994 362.291C152.372 362.571 152.658 362.932 152.854 363.375C153.049 363.818 153.124 364.348 153.078 364.967C153.026 365.618 152.863 366.207 152.59 366.734C152.323 367.262 151.968 367.711 151.525 368.082C151.089 368.453 150.588 368.736 150.021 368.932C149.462 369.12 148.859 369.208 148.215 369.195C147.629 369.182 147.092 369.081 146.604 368.893C146.115 368.704 145.692 368.44 145.334 368.102C144.982 367.757 144.715 367.343 144.533 366.861C144.351 366.373 144.273 365.829 144.299 365.23L146.057 365.24C146.024 365.729 146.092 366.155 146.262 366.52C146.431 366.884 146.685 367.171 147.023 367.379C147.368 367.587 147.792 367.698 148.293 367.711C148.853 367.724 149.351 367.62 149.787 367.398C150.223 367.177 150.572 366.861 150.832 366.451C151.099 366.041 151.258 365.556 151.311 364.996C151.369 364.449 151.301 363.993 151.105 363.629C150.917 363.264 150.63 362.988 150.246 362.799C149.868 362.61 149.419 362.509 148.898 362.496L147.541 362.486Z" fill="#C1C1C1"/>
<g filter="url(#filter1_d_548_348)">
<rect x="31" y="445" width="374" height="62" rx="31" fill="#6B5A45"/>
</g>
<path d="M145.201 478.939C145.201 478.639 145.155 478.37 145.062 478.134C144.976 477.89 144.814 477.672 144.578 477.479C144.349 477.278 144.023 477.085 143.601 476.898C143.185 476.705 142.648 476.505 141.989 476.297C141.259 476.068 140.578 475.81 139.948 475.523C139.318 475.237 138.763 474.904 138.283 474.524C137.811 474.145 137.442 473.708 137.177 473.214C136.912 472.713 136.779 472.132 136.779 471.474C136.779 470.829 136.915 470.242 137.188 469.712C137.467 469.182 137.861 468.727 138.369 468.348C138.878 467.961 139.476 467.664 140.163 467.456C140.858 467.248 141.624 467.145 142.462 467.145C143.622 467.145 144.625 467.356 145.47 467.778C146.322 468.201 146.981 468.774 147.446 469.497C147.912 470.22 148.145 471.033 148.145 471.936H145.201C145.201 471.449 145.097 471.019 144.89 470.646C144.689 470.274 144.381 469.98 143.966 469.766C143.558 469.551 143.042 469.443 142.419 469.443C141.817 469.443 141.316 469.533 140.915 469.712C140.521 469.891 140.224 470.134 140.023 470.442C139.83 470.75 139.733 471.094 139.733 471.474C139.733 471.76 139.801 472.018 139.938 472.247C140.074 472.469 140.278 472.68 140.55 472.881C140.822 473.074 141.159 473.257 141.56 473.429C141.968 473.593 142.44 473.758 142.978 473.923C143.837 474.181 144.589 474.467 145.233 474.782C145.885 475.097 146.426 475.455 146.855 475.856C147.292 476.257 147.618 476.709 147.833 477.21C148.055 477.711 148.166 478.281 148.166 478.918C148.166 479.591 148.034 480.193 147.769 480.723C147.504 481.253 147.124 481.704 146.63 482.076C146.136 482.449 145.541 482.731 144.847 482.925C144.159 483.118 143.389 483.215 142.537 483.215C141.778 483.215 141.026 483.115 140.281 482.914C139.544 482.706 138.874 482.398 138.272 481.99C137.671 481.575 137.191 481.052 136.833 480.422C136.475 479.785 136.296 479.04 136.296 478.188H139.261C139.261 478.682 139.34 479.104 139.497 479.455C139.662 479.799 139.891 480.082 140.185 480.304C140.485 480.519 140.836 480.676 141.237 480.776C141.638 480.877 142.072 480.927 142.537 480.927C143.139 480.927 143.633 480.844 144.02 480.68C144.413 480.508 144.707 480.271 144.9 479.971C145.101 479.67 145.201 479.326 145.201 478.939ZM159.145 467.359H162.099V477.747C162.099 478.943 161.841 479.949 161.325 480.766C160.81 481.575 160.108 482.187 159.22 482.603C158.332 483.011 157.322 483.215 156.19 483.215C155.045 483.215 154.024 483.011 153.129 482.603C152.234 482.187 151.532 481.575 151.023 480.766C150.515 479.949 150.261 478.943 150.261 477.747V467.359H153.215V477.747C153.215 478.478 153.337 479.076 153.58 479.541C153.824 479.999 154.167 480.34 154.611 480.562C155.055 480.784 155.582 480.895 156.19 480.895C156.806 480.895 157.333 480.784 157.77 480.562C158.214 480.34 158.554 479.999 158.79 479.541C159.026 479.076 159.145 478.478 159.145 477.747V467.359ZM170.896 476.028H166.9L166.879 473.944H170.306C170.893 473.944 171.383 473.862 171.777 473.697C172.171 473.533 172.468 473.293 172.669 472.978C172.877 472.662 172.98 472.279 172.98 471.828C172.98 471.327 172.884 470.919 172.69 470.604C172.504 470.288 172.211 470.059 171.81 469.916C171.409 469.766 170.9 469.69 170.284 469.69H167.856V483H164.902V467.359H170.284C171.172 467.359 171.964 467.445 172.658 467.617C173.36 467.782 173.954 468.04 174.441 468.391C174.928 468.742 175.297 469.182 175.548 469.712C175.806 470.242 175.935 470.872 175.935 471.603C175.935 472.247 175.784 472.841 175.483 473.386C175.19 473.923 174.735 474.36 174.119 474.696C173.51 475.033 172.737 475.226 171.799 475.276L170.896 476.028ZM170.768 483H166.03L167.266 480.68H170.768C171.355 480.68 171.838 480.583 172.218 480.39C172.604 480.196 172.891 479.931 173.077 479.595C173.271 479.251 173.367 478.857 173.367 478.413C173.367 477.926 173.281 477.504 173.109 477.146C172.945 476.787 172.68 476.512 172.314 476.318C171.956 476.125 171.484 476.028 170.896 476.028H167.824L167.846 473.944H171.756L172.433 474.75C173.335 474.757 174.069 474.936 174.635 475.287C175.208 475.638 175.63 476.089 175.902 476.641C176.174 477.192 176.311 477.786 176.311 478.424C176.311 479.426 176.092 480.268 175.655 480.948C175.226 481.629 174.595 482.141 173.765 482.484C172.941 482.828 171.942 483 170.768 483ZM187.053 478.939C187.053 478.639 187.006 478.37 186.913 478.134C186.827 477.89 186.666 477.672 186.43 477.479C186.201 477.278 185.875 477.085 185.452 476.898C185.037 476.705 184.5 476.505 183.841 476.297C183.11 476.068 182.43 475.81 181.8 475.523C181.17 475.237 180.615 474.904 180.135 474.524C179.662 474.145 179.293 473.708 179.028 473.214C178.763 472.713 178.631 472.132 178.631 471.474C178.631 470.829 178.767 470.242 179.039 469.712C179.318 469.182 179.712 468.727 180.221 468.348C180.729 467.961 181.327 467.664 182.015 467.456C182.709 467.248 183.476 467.145 184.313 467.145C185.474 467.145 186.476 467.356 187.321 467.778C188.174 468.201 188.832 468.774 189.298 469.497C189.763 470.22 189.996 471.033 189.996 471.936H187.053C187.053 471.449 186.949 471.019 186.741 470.646C186.541 470.274 186.233 469.98 185.817 469.766C185.409 469.551 184.894 469.443 184.271 469.443C183.669 469.443 183.168 469.533 182.767 469.712C182.373 469.891 182.076 470.134 181.875 470.442C181.682 470.75 181.585 471.094 181.585 471.474C181.585 471.76 181.653 472.018 181.789 472.247C181.925 472.469 182.129 472.68 182.401 472.881C182.674 473.074 183.01 473.257 183.411 473.429C183.819 473.593 184.292 473.758 184.829 473.923C185.688 474.181 186.44 474.467 187.085 474.782C187.737 475.097 188.277 475.455 188.707 475.856C189.144 476.257 189.47 476.709 189.685 477.21C189.907 477.711 190.018 478.281 190.018 478.918C190.018 479.591 189.885 480.193 189.62 480.723C189.355 481.253 188.976 481.704 188.481 482.076C187.987 482.449 187.393 482.731 186.698 482.925C186.011 483.118 185.241 483.215 184.389 483.215C183.63 483.215 182.878 483.115 182.133 482.914C181.395 482.706 180.726 482.398 180.124 481.99C179.522 481.575 179.043 481.052 178.685 480.422C178.326 479.785 178.147 479.04 178.147 478.188H181.112C181.112 478.682 181.191 479.104 181.349 479.455C181.513 479.799 181.743 480.082 182.036 480.304C182.337 480.519 182.688 480.676 183.089 480.776C183.49 480.877 183.923 480.927 184.389 480.927C184.99 480.927 185.484 480.844 185.871 480.68C186.265 480.508 186.559 480.271 186.752 479.971C186.952 479.67 187.053 479.326 187.053 478.939ZM201.447 477.854H204.401C204.323 478.9 204.033 479.827 203.531 480.637C203.03 481.439 202.332 482.069 201.437 482.527C200.541 482.986 199.456 483.215 198.182 483.215C197.201 483.215 196.316 483.043 195.528 482.699C194.748 482.348 194.078 481.851 193.52 481.206C192.968 480.554 192.546 479.774 192.252 478.864C191.958 477.948 191.812 476.92 191.812 475.781V474.589C191.812 473.45 191.962 472.423 192.263 471.506C192.563 470.589 192.993 469.809 193.552 469.164C194.118 468.512 194.794 468.011 195.582 467.66C196.377 467.309 197.265 467.134 198.246 467.134C199.521 467.134 200.599 467.37 201.479 467.843C202.36 468.308 203.044 468.949 203.531 469.766C204.018 470.582 204.312 471.52 204.412 472.58H201.458C201.401 471.921 201.257 471.363 201.028 470.904C200.806 470.446 200.47 470.099 200.019 469.862C199.575 469.619 198.984 469.497 198.246 469.497C197.673 469.497 197.168 469.604 196.731 469.819C196.302 470.034 195.944 470.356 195.657 470.786C195.371 471.209 195.156 471.739 195.013 472.376C194.869 473.006 194.798 473.737 194.798 474.567V475.781C194.798 476.576 194.862 477.289 194.991 477.919C195.12 478.549 195.321 479.083 195.593 479.52C195.865 479.956 196.216 480.289 196.646 480.519C197.075 480.748 197.587 480.862 198.182 480.862C198.905 480.862 199.492 480.748 199.943 480.519C200.402 480.289 200.749 479.953 200.985 479.509C201.229 479.065 201.383 478.513 201.447 477.854ZM206.689 467.359H212.372C213.561 467.359 214.581 467.538 215.434 467.896C216.286 468.255 216.941 468.785 217.399 469.486C217.858 470.188 218.087 471.051 218.087 472.075C218.087 472.884 217.944 473.586 217.657 474.181C217.371 474.775 216.966 475.273 216.443 475.674C215.928 476.075 215.319 476.39 214.617 476.619L213.693 477.092H208.677L208.655 474.761H212.404C213.013 474.761 213.518 474.653 213.919 474.438C214.32 474.224 214.621 473.926 214.821 473.547C215.029 473.167 215.133 472.734 215.133 472.247C215.133 471.724 215.033 471.273 214.832 470.894C214.632 470.507 214.327 470.21 213.919 470.002C213.511 469.794 212.995 469.69 212.372 469.69H209.644V483H206.689V467.359ZM215.52 483L211.899 475.996L215.025 475.985L218.688 482.85V483H215.52ZM223.823 467.359V483H220.869V467.359H223.823ZM233.008 476.028H229.012L228.99 473.944H232.417C233.004 473.944 233.495 473.862 233.889 473.697C234.283 473.533 234.58 473.293 234.78 472.978C234.988 472.662 235.092 472.279 235.092 471.828C235.092 471.327 234.995 470.919 234.802 470.604C234.616 470.288 234.322 470.059 233.921 469.916C233.52 469.766 233.011 469.69 232.396 469.69H229.968V483H227.014V467.359H232.396C233.284 467.359 234.075 467.445 234.77 467.617C235.471 467.782 236.066 468.04 236.553 468.391C237.04 468.742 237.409 469.182 237.659 469.712C237.917 470.242 238.046 470.872 238.046 471.603C238.046 472.247 237.896 472.841 237.595 473.386C237.301 473.923 236.846 474.36 236.23 474.696C235.622 475.033 234.848 475.226 233.91 475.276L233.008 476.028ZM232.879 483H228.142L229.377 480.68H232.879C233.466 480.68 233.95 480.583 234.329 480.39C234.716 480.196 235.002 479.931 235.188 479.595C235.382 479.251 235.479 478.857 235.479 478.413C235.479 477.926 235.393 477.504 235.221 477.146C235.056 476.787 234.791 476.512 234.426 476.318C234.068 476.125 233.595 476.028 233.008 476.028H229.936L229.957 473.944H233.867L234.544 474.75C235.446 474.757 236.18 474.936 236.746 475.287C237.319 475.638 237.742 476.089 238.014 476.641C238.286 477.192 238.422 477.786 238.422 478.424C238.422 479.426 238.203 480.268 237.767 480.948C237.337 481.629 236.707 482.141 235.876 482.484C235.052 482.828 234.053 483 232.879 483ZM244.126 467.359V483H241.172V467.359H244.126ZM247.316 467.359H252.999C254.188 467.359 255.208 467.538 256.061 467.896C256.913 468.255 257.568 468.785 258.026 469.486C258.485 470.188 258.714 471.051 258.714 472.075C258.714 472.884 258.571 473.586 258.284 474.181C257.998 474.775 257.593 475.273 257.07 475.674C256.555 476.075 255.946 476.39 255.244 476.619L254.32 477.092H249.304L249.282 474.761H253.031C253.64 474.761 254.145 474.653 254.546 474.438C254.947 474.224 255.248 473.926 255.448 473.547C255.656 473.167 255.76 472.734 255.76 472.247C255.76 471.724 255.66 471.273 255.459 470.894C255.258 470.507 254.954 470.21 254.546 470.002C254.138 469.794 253.622 469.69 252.999 469.69H250.271V483H247.316V467.359ZM256.146 483L252.526 475.996L255.652 475.985L259.315 482.85V483H256.146ZM262.592 467.359H265.148L269.424 479.133L273.688 467.359H276.256L270.444 483H268.393L262.592 467.359ZM261.303 467.359H263.806L264.257 478.177V483H261.303V467.359ZM275.031 467.359H277.545V483H274.591V478.177L275.031 467.359ZM290.919 480.68V483H282.604V480.68H290.919ZM283.507 467.359V483H280.553V467.359H283.507ZM289.834 473.815V476.082H282.604V473.815H289.834ZM290.887 467.359V469.69H282.604V467.359H290.887Z" fill="white"/>
<path d="M57.7852 253.195C57.0625 253.182 56.4342 253.039 55.9004 252.766C55.373 252.486 54.9401 252.111 54.6016 251.643C54.2695 251.167 54.0319 250.627 53.8887 250.021C53.7454 249.416 53.7031 248.781 53.7617 248.117L53.8008 247.697C53.8659 247.02 54.0319 246.356 54.2988 245.705C54.5658 245.048 54.9206 244.455 55.3633 243.928C55.8125 243.4 56.3398 242.984 56.9453 242.678C57.5573 242.365 58.2344 242.219 58.9766 242.238C59.7122 242.251 60.3242 242.408 60.8125 242.707C61.3008 243.007 61.6816 243.404 61.9551 243.898C62.235 244.387 62.4173 244.937 62.502 245.549C62.5866 246.154 62.5931 246.776 62.5215 247.414L62.4141 248.225H54.748L54.9824 246.75L60.832 246.76L60.8613 246.604C60.9264 246.135 60.9004 245.682 60.7832 245.246C60.666 244.81 60.4512 244.452 60.1387 244.172C59.8327 243.885 59.4193 243.736 58.8984 243.723C58.3581 243.703 57.8893 243.814 57.4922 244.055C57.0951 244.289 56.763 244.608 56.4961 245.012C56.2292 245.409 56.0176 245.845 55.8613 246.32C55.7116 246.789 55.6074 247.248 55.5488 247.697L55.5098 248.107C55.4707 248.524 55.4837 248.944 55.5488 249.367C55.6139 249.79 55.7376 250.178 55.9199 250.529C56.1087 250.874 56.3691 251.158 56.7012 251.379C57.0332 251.594 57.4434 251.708 57.9316 251.721C58.5241 251.734 59.0547 251.607 59.5234 251.34C59.9987 251.066 60.4316 250.721 60.8223 250.305L61.8281 251.164C61.5221 251.613 61.1576 251.991 60.7344 252.297C60.3112 252.603 59.849 252.831 59.3477 252.98C58.8464 253.13 58.3255 253.202 57.7852 253.195ZM65.4902 242.434H67.2676L65.2656 254.26C65.1875 254.852 65.0247 255.38 64.7773 255.842C64.5365 256.304 64.1979 256.665 63.7617 256.926C63.332 257.186 62.7982 257.31 62.1602 257.297C61.9583 257.29 61.7598 257.271 61.5645 257.238C61.3691 257.206 61.1738 257.163 60.9785 257.111L61.1445 255.656C61.2812 255.689 61.418 255.715 61.5547 255.734C61.6914 255.76 61.8281 255.773 61.9648 255.773C62.2773 255.773 62.5378 255.705 62.7461 255.568C62.9479 255.438 63.1074 255.259 63.2246 255.031C63.3418 254.803 63.4232 254.546 63.4688 254.26L65.4902 242.434ZM65.8027 239.66C65.8027 239.354 65.8971 239.1 66.0859 238.898C66.2812 238.69 66.5319 238.583 66.8379 238.576C67.1439 238.57 67.3945 238.664 67.5898 238.859C67.7852 239.055 67.8828 239.302 67.8828 239.602C67.8763 239.908 67.7754 240.158 67.5801 240.354C67.3848 240.549 67.1374 240.65 66.8379 240.656C66.5384 240.663 66.2878 240.575 66.0859 240.393C65.8906 240.204 65.7962 239.96 65.8027 239.66ZM72.7266 253.195C72.0039 253.182 71.3757 253.039 70.8418 252.766C70.3145 252.486 69.8815 252.111 69.543 251.643C69.2109 251.167 68.9733 250.627 68.8301 250.021C68.6868 249.416 68.6445 248.781 68.7031 248.117L68.7422 247.697C68.8073 247.02 68.9733 246.356 69.2402 245.705C69.5072 245.048 69.862 244.455 70.3047 243.928C70.7539 243.4 71.2812 242.984 71.8867 242.678C72.4987 242.365 73.1758 242.219 73.918 242.238C74.6536 242.251 75.2656 242.408 75.7539 242.707C76.2422 243.007 76.623 243.404 76.8965 243.898C77.1764 244.387 77.3587 244.937 77.4434 245.549C77.528 246.154 77.5345 246.776 77.4629 247.414L77.3555 248.225H69.6895L69.9238 246.75L75.7734 246.76L75.8027 246.604C75.8678 246.135 75.8418 245.682 75.7246 245.246C75.6074 244.81 75.3926 244.452 75.0801 244.172C74.7741 243.885 74.3607 243.736 73.8398 243.723C73.2995 243.703 72.8307 243.814 72.4336 244.055C72.0365 244.289 71.7044 244.608 71.4375 245.012C71.1706 245.409 70.959 245.845 70.8027 246.32C70.653 246.789 70.5488 247.248 70.4902 247.697L70.4512 248.107C70.4121 248.524 70.4251 248.944 70.4902 249.367C70.5553 249.79 70.679 250.178 70.8613 250.529C71.0501 250.874 71.3105 251.158 71.6426 251.379C71.9746 251.594 72.3848 251.708 72.873 251.721C73.4655 251.734 73.9961 251.607 74.4648 251.34C74.9401 251.066 75.373 250.721 75.7637 250.305L76.7695 251.164C76.4635 251.613 76.099 251.991 75.6758 252.297C75.2526 252.603 74.7904 252.831 74.2891 252.98C73.7878 253.13 73.2669 253.202 72.7266 253.195ZM81.75 244.641L80.3047 253H78.5273L80.3633 242.434H82.043L81.75 244.641ZM80.959 247.316L80.1582 247.297C80.2493 246.639 80.4121 246.005 80.6465 245.393C80.8809 244.781 81.1934 244.234 81.584 243.752C81.9811 243.27 82.4596 242.893 83.0195 242.619C83.5794 242.346 84.2272 242.219 84.9629 242.238C85.5098 242.251 85.972 242.359 86.3496 242.561C86.7272 242.756 87.0299 243.026 87.2578 243.371C87.4922 243.71 87.6484 244.1 87.7266 244.543C87.8112 244.986 87.8307 245.458 87.7852 245.959L86.6035 253H84.8359L86.0078 246.037C86.0599 245.594 86.0339 245.204 85.9297 244.865C85.832 244.527 85.6465 244.26 85.373 244.064C85.0996 243.863 84.7285 243.755 84.2598 243.742C83.7324 243.729 83.2734 243.82 82.8828 244.016C82.4987 244.211 82.1764 244.481 81.916 244.826C81.6621 245.165 81.457 245.552 81.3008 245.988C81.1445 246.418 81.0306 246.861 80.959 247.316ZM87.7852 246.32L86.5156 246.691C86.5938 246.086 86.7565 245.513 87.0039 244.973C87.2578 244.432 87.5866 243.954 87.9902 243.537C88.3939 243.12 88.8626 242.795 89.3965 242.561C89.9303 242.326 90.5195 242.215 91.1641 242.229C91.737 242.242 92.222 242.349 92.6191 242.551C93.0163 242.746 93.332 243.016 93.5664 243.361C93.8073 243.706 93.9668 244.11 94.0449 244.572C94.1296 245.028 94.1426 245.523 94.084 246.057L92.9219 253H91.1445L92.3164 246.027C92.3685 245.578 92.3457 245.184 92.248 244.846C92.1569 244.507 91.9746 244.243 91.7012 244.055C91.4277 243.859 91.0501 243.758 90.5684 243.752C90.1842 243.739 89.8327 243.798 89.5137 243.928C89.1947 244.058 88.918 244.243 88.6836 244.484C88.4492 244.719 88.2539 244.992 88.0977 245.305C87.9479 245.617 87.8438 245.956 87.7852 246.32ZM98.791 244.572L96.623 257.062H94.8457L97.3848 242.434H99.0059L98.791 244.572ZM105.148 247.57L105.129 247.775C105.044 248.413 104.888 249.058 104.66 249.709C104.439 250.354 104.136 250.943 103.752 251.477C103.368 252.01 102.896 252.437 102.336 252.756C101.783 253.075 101.132 253.225 100.383 253.205C99.7253 253.192 99.1621 253.049 98.6934 252.775C98.2246 252.495 97.847 252.128 97.5605 251.672C97.2741 251.21 97.069 250.695 96.9453 250.129C96.8281 249.556 96.7891 248.97 96.8281 248.371L96.9648 247.287C97.0755 246.649 97.2611 246.027 97.5215 245.422C97.7884 244.81 98.127 244.26 98.5371 243.771C98.9473 243.283 99.4323 242.902 99.9922 242.629C100.559 242.349 101.2 242.219 101.916 242.238C102.639 242.258 103.225 242.434 103.674 242.766C104.13 243.091 104.475 243.518 104.709 244.045C104.95 244.566 105.1 245.135 105.158 245.754C105.217 246.366 105.214 246.971 105.148 247.57ZM103.352 247.766L103.381 247.551C103.426 247.16 103.436 246.747 103.41 246.311C103.391 245.874 103.309 245.467 103.166 245.09C103.029 244.706 102.811 244.39 102.512 244.143C102.219 243.895 101.818 243.765 101.311 243.752C100.907 243.739 100.523 243.807 100.158 243.957C99.8001 244.1 99.4746 244.305 99.1816 244.572C98.8887 244.833 98.638 245.135 98.4297 245.48C98.2214 245.819 98.0684 246.177 97.9707 246.555L97.5508 249.104C97.5443 249.566 97.6452 249.995 97.8535 250.393C98.0618 250.783 98.3451 251.099 98.7031 251.34C99.0677 251.581 99.4811 251.708 99.9434 251.721C100.484 251.734 100.952 251.626 101.35 251.398C101.753 251.164 102.092 250.852 102.365 250.461C102.639 250.064 102.857 249.631 103.02 249.162C103.182 248.687 103.293 248.221 103.352 247.766ZM110.979 238L108.371 253H106.604L109.201 238H110.979ZM111.643 247.893L111.672 247.668C111.75 246.958 111.926 246.275 112.199 245.617C112.479 244.96 112.847 244.374 113.303 243.859C113.758 243.345 114.299 242.941 114.924 242.648C115.549 242.355 116.245 242.219 117.014 242.238C117.756 242.251 118.391 242.411 118.918 242.717C119.452 243.023 119.882 243.43 120.207 243.938C120.539 244.439 120.77 245.005 120.9 245.637C121.031 246.268 121.063 246.919 120.998 247.59L120.979 247.814C120.894 248.524 120.712 249.204 120.432 249.855C120.152 250.507 119.781 251.086 119.318 251.594C118.863 252.102 118.322 252.502 117.697 252.795C117.072 253.081 116.379 253.215 115.617 253.195C114.882 253.182 114.247 253.026 113.713 252.727C113.186 252.421 112.759 252.017 112.434 251.516C112.108 251.014 111.88 250.451 111.75 249.826C111.62 249.201 111.584 248.557 111.643 247.893ZM113.43 247.668L113.41 247.902C113.365 248.312 113.361 248.739 113.4 249.182C113.446 249.624 113.55 250.035 113.713 250.412C113.882 250.79 114.126 251.099 114.445 251.34C114.764 251.581 115.178 251.708 115.686 251.721C116.226 251.734 116.701 251.63 117.111 251.408C117.521 251.18 117.87 250.874 118.156 250.49C118.449 250.106 118.68 249.68 118.85 249.211C119.025 248.742 119.143 248.277 119.201 247.814L119.221 247.59C119.266 247.18 119.266 246.753 119.221 246.311C119.182 245.861 119.077 245.445 118.908 245.061C118.745 244.67 118.505 244.354 118.186 244.113C117.867 243.866 117.453 243.736 116.945 243.723C116.405 243.703 115.926 243.811 115.51 244.045C115.1 244.273 114.751 244.582 114.465 244.973C114.178 245.363 113.947 245.796 113.771 246.271C113.602 246.74 113.488 247.206 113.43 247.668ZM138.273 248.039C138.176 248.632 138.01 249.237 137.775 249.855C137.548 250.467 137.245 251.031 136.867 251.545C136.496 252.059 136.047 252.473 135.52 252.785C134.992 253.091 134.38 253.234 133.684 253.215C133.202 253.202 132.811 253.094 132.512 252.893C132.219 252.684 131.997 252.414 131.848 252.082C131.704 251.75 131.623 251.385 131.604 250.988C131.584 250.591 131.61 250.194 131.682 249.797L133.059 244.367H134.484L133.127 249.797C133.088 249.992 133.055 250.217 133.029 250.471C133.003 250.718 133.007 250.962 133.039 251.203C133.072 251.438 133.156 251.636 133.293 251.799C133.43 251.962 133.638 252.049 133.918 252.062C134.419 252.082 134.849 251.962 135.207 251.701C135.572 251.434 135.878 251.089 136.125 250.666C136.372 250.236 136.568 249.787 136.711 249.318C136.861 248.85 136.971 248.423 137.043 248.039C137.173 247.271 137.242 246.516 137.248 245.773C137.255 245.025 137.173 244.325 137.004 243.674C136.835 243.023 136.558 242.447 136.174 241.945C135.796 241.444 135.295 241.05 134.67 240.764C134.045 240.471 133.277 240.318 132.365 240.305C131.46 240.292 130.624 240.432 129.855 240.725C129.087 241.018 128.391 241.428 127.766 241.955C127.141 242.476 126.59 243.081 126.115 243.771C125.64 244.462 125.243 245.201 124.924 245.988C124.611 246.776 124.377 247.577 124.221 248.391C124.084 249.12 124.012 249.852 124.006 250.588C123.999 251.324 124.077 252.027 124.24 252.697C124.41 253.361 124.68 253.954 125.051 254.475C125.422 255.002 125.913 255.419 126.525 255.725C127.137 256.031 127.886 256.187 128.771 256.193C129.344 256.2 129.908 256.138 130.461 256.008C131.021 255.878 131.558 255.689 132.072 255.441L132.346 256.574C131.825 256.9 131.245 257.124 130.607 257.248C129.976 257.372 129.357 257.43 128.752 257.424C127.717 257.411 126.822 257.235 126.066 256.896C125.318 256.558 124.696 256.096 124.201 255.51C123.706 254.924 123.329 254.247 123.068 253.479C122.814 252.717 122.668 251.903 122.629 251.037C122.596 250.165 122.658 249.279 122.814 248.381C122.99 247.437 123.267 246.509 123.645 245.598C124.022 244.68 124.494 243.824 125.061 243.029C125.627 242.229 126.281 241.525 127.023 240.92C127.766 240.314 128.586 239.846 129.484 239.514C130.389 239.175 131.363 239.012 132.404 239.025C133.433 239.038 134.322 239.214 135.07 239.553C135.819 239.891 136.434 240.354 136.916 240.939C137.404 241.525 137.772 242.199 138.02 242.961C138.273 243.723 138.417 244.536 138.449 245.402C138.488 246.268 138.43 247.147 138.273 248.039ZM128.42 248.996C128.374 249.23 128.335 249.504 128.303 249.816C128.27 250.129 128.273 250.435 128.312 250.734C128.352 251.034 128.452 251.288 128.615 251.496C128.778 251.704 129.035 251.815 129.387 251.828C129.712 251.841 130.005 251.763 130.266 251.594C130.533 251.424 130.767 251.206 130.969 250.939C131.177 250.673 131.356 250.389 131.506 250.09C131.662 249.79 131.796 249.517 131.906 249.27L132.463 249.973C132.313 250.344 132.124 250.725 131.896 251.115C131.675 251.499 131.415 251.854 131.115 252.18C130.822 252.499 130.487 252.756 130.109 252.951C129.738 253.14 129.322 253.228 128.859 253.215C128.306 253.195 127.873 253.046 127.561 252.766C127.255 252.486 127.04 252.131 126.916 251.701C126.792 251.271 126.734 250.816 126.74 250.334C126.747 249.852 126.786 249.406 126.857 248.996C126.942 248.521 127.076 248.023 127.258 247.502C127.44 246.975 127.671 246.464 127.951 245.969C128.231 245.467 128.557 245.015 128.928 244.611C129.305 244.208 129.729 243.889 130.197 243.654C130.673 243.42 131.197 243.309 131.77 243.322C132.303 243.329 132.782 243.43 133.205 243.625C133.635 243.814 134.055 244.074 134.465 244.406L133.586 245.334C133.358 245.1 133.104 244.917 132.824 244.787C132.544 244.657 132.238 244.589 131.906 244.582C131.359 244.562 130.884 244.699 130.48 244.992C130.077 245.279 129.735 245.653 129.455 246.115C129.182 246.577 128.96 247.066 128.791 247.58C128.622 248.094 128.498 248.566 128.42 248.996ZM144.055 238L141.447 253H139.68L142.287 238H144.055ZM142.053 247.316L141.33 247.297C141.421 246.665 141.587 246.047 141.828 245.441C142.076 244.829 142.398 244.279 142.795 243.791C143.199 243.303 143.677 242.919 144.23 242.639C144.79 242.352 145.428 242.219 146.145 242.238C146.711 242.251 147.183 242.362 147.561 242.57C147.945 242.772 148.244 243.049 148.459 243.4C148.674 243.752 148.817 244.159 148.889 244.621C148.96 245.077 148.967 245.562 148.908 246.076L147.756 253H145.979L147.15 246.047C147.196 245.624 147.18 245.243 147.102 244.904C147.03 244.559 146.867 244.286 146.613 244.084C146.366 243.876 146.008 243.765 145.539 243.752C145.044 243.739 144.598 243.833 144.201 244.035C143.804 244.237 143.456 244.514 143.156 244.865C142.863 245.21 142.622 245.598 142.434 246.027C142.251 246.451 142.124 246.88 142.053 247.316ZM150.822 247.893L150.852 247.668C150.93 246.958 151.105 246.275 151.379 245.617C151.659 244.96 152.027 244.374 152.482 243.859C152.938 243.345 153.479 242.941 154.104 242.648C154.729 242.355 155.425 242.219 156.193 242.238C156.936 242.251 157.57 242.411 158.098 242.717C158.632 243.023 159.061 243.43 159.387 243.938C159.719 244.439 159.95 245.005 160.08 245.637C160.21 246.268 160.243 246.919 160.178 247.59L160.158 247.814C160.074 248.524 159.891 249.204 159.611 249.855C159.331 250.507 158.96 251.086 158.498 251.594C158.042 252.102 157.502 252.502 156.877 252.795C156.252 253.081 155.559 253.215 154.797 253.195C154.061 253.182 153.426 253.026 152.893 252.727C152.365 252.421 151.939 252.017 151.613 251.516C151.288 251.014 151.06 250.451 150.93 249.826C150.799 249.201 150.764 248.557 150.822 247.893ZM152.609 247.668L152.59 247.902C152.544 248.312 152.541 248.739 152.58 249.182C152.626 249.624 152.73 250.035 152.893 250.412C153.062 250.79 153.306 251.099 153.625 251.34C153.944 251.581 154.357 251.708 154.865 251.721C155.406 251.734 155.881 251.63 156.291 251.408C156.701 251.18 157.049 250.874 157.336 250.49C157.629 250.106 157.86 249.68 158.029 249.211C158.205 248.742 158.322 248.277 158.381 247.814L158.4 247.59C158.446 247.18 158.446 246.753 158.4 246.311C158.361 245.861 158.257 245.445 158.088 245.061C157.925 244.67 157.684 244.354 157.365 244.113C157.046 243.866 156.633 243.736 156.125 243.723C155.585 243.703 155.106 243.811 154.689 244.045C154.279 244.273 153.931 244.582 153.645 244.973C153.358 245.363 153.127 245.796 152.951 246.271C152.782 246.74 152.668 247.206 152.609 247.668ZM167.58 242.434L167.336 243.82H161.779L162.023 242.434H167.58ZM164.348 239.865H166.105L164.318 250.402C164.299 250.63 164.305 250.835 164.338 251.018C164.37 251.2 164.449 251.346 164.572 251.457C164.696 251.561 164.885 251.617 165.139 251.623C165.282 251.623 165.422 251.613 165.559 251.594C165.702 251.568 165.845 251.545 165.988 251.525L165.861 253.01C165.653 253.068 165.438 253.111 165.217 253.137C165.002 253.169 164.787 253.182 164.572 253.176C164.032 253.169 163.609 253.033 163.303 252.766C162.997 252.499 162.788 252.154 162.678 251.73C162.567 251.307 162.535 250.855 162.58 250.373L164.348 239.865ZM170.988 244.641L169.543 253H167.766L169.602 242.434H171.281L170.988 244.641ZM170.197 247.316L169.396 247.297C169.488 246.639 169.65 246.005 169.885 245.393C170.119 244.781 170.432 244.234 170.822 243.752C171.219 243.27 171.698 242.893 172.258 242.619C172.818 242.346 173.465 242.219 174.201 242.238C174.748 242.251 175.21 242.359 175.588 242.561C175.965 242.756 176.268 243.026 176.496 243.371C176.73 243.71 176.887 244.1 176.965 244.543C177.049 244.986 177.069 245.458 177.023 245.959L175.842 253H174.074L175.246 246.037C175.298 245.594 175.272 245.204 175.168 244.865C175.07 244.527 174.885 244.26 174.611 244.064C174.338 243.863 173.967 243.755 173.498 243.742C172.971 243.729 172.512 243.82 172.121 244.016C171.737 244.211 171.415 244.481 171.154 244.826C170.9 245.165 170.695 245.552 170.539 245.988C170.383 246.418 170.269 246.861 170.197 247.316ZM177.023 246.32L175.754 246.691C175.832 246.086 175.995 245.513 176.242 244.973C176.496 244.432 176.825 243.954 177.229 243.537C177.632 243.12 178.101 242.795 178.635 242.561C179.169 242.326 179.758 242.215 180.402 242.229C180.975 242.242 181.46 242.349 181.857 242.551C182.255 242.746 182.57 243.016 182.805 243.361C183.046 243.706 183.205 244.11 183.283 244.572C183.368 245.028 183.381 245.523 183.322 246.057L182.16 253H180.383L181.555 246.027C181.607 245.578 181.584 245.184 181.486 244.846C181.395 244.507 181.213 244.243 180.939 244.055C180.666 243.859 180.288 243.758 179.807 243.752C179.423 243.739 179.071 243.798 178.752 243.928C178.433 244.058 178.156 244.243 177.922 244.484C177.688 244.719 177.492 244.992 177.336 245.305C177.186 245.617 177.082 245.956 177.023 246.32ZM191.184 251.193L192.062 245.734C192.108 245.331 192.069 244.976 191.945 244.67C191.828 244.364 191.63 244.126 191.35 243.957C191.076 243.788 190.731 243.697 190.314 243.684C189.95 243.677 189.592 243.736 189.24 243.859C188.895 243.983 188.596 244.169 188.342 244.416C188.088 244.663 187.922 244.976 187.844 245.354L186.086 245.363C186.132 244.836 186.298 244.377 186.584 243.986C186.87 243.589 187.229 243.26 187.658 243C188.088 242.733 188.55 242.538 189.045 242.414C189.54 242.284 190.021 242.222 190.49 242.229C191.2 242.242 191.815 242.395 192.336 242.688C192.863 242.974 193.26 243.378 193.527 243.898C193.794 244.419 193.892 245.044 193.82 245.773L193.01 250.695C192.951 251.053 192.915 251.415 192.902 251.779C192.896 252.137 192.938 252.489 193.029 252.834L193.01 253L191.223 253.01C191.151 252.71 191.115 252.408 191.115 252.102C191.122 251.796 191.145 251.493 191.184 251.193ZM192.268 246.594L192.062 247.863L190.393 247.854C190.041 247.854 189.67 247.88 189.279 247.932C188.889 247.984 188.518 248.081 188.166 248.225C187.814 248.368 187.518 248.576 187.277 248.85C187.036 249.117 186.89 249.465 186.838 249.895C186.799 250.246 186.841 250.552 186.965 250.812C187.095 251.066 187.29 251.265 187.551 251.408C187.811 251.551 188.114 251.626 188.459 251.633C188.908 251.639 189.351 251.551 189.787 251.369C190.223 251.187 190.604 250.926 190.93 250.588C191.255 250.249 191.48 249.859 191.604 249.416L192.248 250.285C192.124 250.715 191.923 251.112 191.643 251.477C191.363 251.835 191.031 252.144 190.646 252.404C190.269 252.665 189.862 252.867 189.426 253.01C188.99 253.153 188.553 253.221 188.117 253.215C187.525 253.202 186.988 253.068 186.506 252.814C186.031 252.561 185.653 252.206 185.373 251.75C185.1 251.288 184.982 250.751 185.021 250.139C185.061 249.468 185.236 248.905 185.549 248.449C185.861 247.993 186.262 247.629 186.75 247.355C187.245 247.082 187.785 246.887 188.371 246.77C188.957 246.646 189.536 246.584 190.109 246.584L192.268 246.594ZM199.885 238L197.277 253H195.51L198.107 238H199.885ZM200.295 252.072C200.295 251.753 200.396 251.486 200.598 251.271C200.806 251.057 201.07 250.946 201.389 250.939C201.708 250.933 201.968 251.031 202.17 251.232C202.378 251.434 202.479 251.695 202.473 252.014C202.473 252.333 202.368 252.596 202.16 252.805C201.958 253.013 201.698 253.12 201.379 253.127C201.066 253.133 200.806 253.039 200.598 252.844C200.389 252.648 200.288 252.391 200.295 252.072ZM209.611 251.721C210.041 251.727 210.441 251.646 210.812 251.477C211.184 251.307 211.499 251.066 211.76 250.754C212.02 250.441 212.206 250.08 212.316 249.67L213.996 249.66C213.892 250.37 213.615 250.992 213.166 251.525C212.723 252.059 212.18 252.476 211.535 252.775C210.897 253.068 210.23 253.208 209.533 253.195C208.791 253.182 208.16 253.029 207.639 252.736C207.124 252.437 206.711 252.04 206.398 251.545C206.086 251.05 205.871 250.493 205.754 249.875C205.637 249.25 205.611 248.609 205.676 247.951L205.715 247.531C205.793 246.822 205.965 246.148 206.232 245.51C206.499 244.865 206.854 244.296 207.297 243.801C207.746 243.299 208.277 242.909 208.889 242.629C209.501 242.349 210.188 242.219 210.949 242.238C211.691 242.251 212.336 242.427 212.883 242.766C213.43 243.098 213.853 243.55 214.152 244.123C214.452 244.696 214.602 245.347 214.602 246.076L212.941 246.066C212.935 245.65 212.854 245.266 212.697 244.914C212.541 244.562 212.31 244.279 212.004 244.064C211.698 243.85 211.32 243.732 210.871 243.713C210.331 243.7 209.859 243.801 209.455 244.016C209.058 244.23 208.719 244.527 208.439 244.904C208.166 245.275 207.948 245.689 207.785 246.145C207.629 246.6 207.521 247.062 207.463 247.531L207.414 247.941C207.375 248.358 207.368 248.785 207.395 249.221C207.427 249.657 207.518 250.064 207.668 250.441C207.818 250.812 208.049 251.115 208.361 251.35C208.674 251.584 209.09 251.708 209.611 251.721ZM215.822 247.893L215.852 247.668C215.93 246.958 216.105 246.275 216.379 245.617C216.659 244.96 217.027 244.374 217.482 243.859C217.938 243.345 218.479 242.941 219.104 242.648C219.729 242.355 220.425 242.219 221.193 242.238C221.936 242.251 222.57 242.411 223.098 242.717C223.632 243.023 224.061 243.43 224.387 243.938C224.719 244.439 224.95 245.005 225.08 245.637C225.21 246.268 225.243 246.919 225.178 247.59L225.158 247.814C225.074 248.524 224.891 249.204 224.611 249.855C224.331 250.507 223.96 251.086 223.498 251.594C223.042 252.102 222.502 252.502 221.877 252.795C221.252 253.081 220.559 253.215 219.797 253.195C219.061 253.182 218.426 253.026 217.893 252.727C217.365 252.421 216.939 252.017 216.613 251.516C216.288 251.014 216.06 250.451 215.93 249.826C215.799 249.201 215.764 248.557 215.822 247.893ZM217.609 247.668L217.59 247.902C217.544 248.312 217.541 248.739 217.58 249.182C217.626 249.624 217.73 250.035 217.893 250.412C218.062 250.79 218.306 251.099 218.625 251.34C218.944 251.581 219.357 251.708 219.865 251.721C220.406 251.734 220.881 251.63 221.291 251.408C221.701 251.18 222.049 250.874 222.336 250.49C222.629 250.106 222.86 249.68 223.029 249.211C223.205 248.742 223.322 248.277 223.381 247.814L223.4 247.59C223.446 247.18 223.446 246.753 223.4 246.311C223.361 245.861 223.257 245.445 223.088 245.061C222.925 244.67 222.684 244.354 222.365 244.113C222.046 243.866 221.633 243.736 221.125 243.723C220.585 243.703 220.106 243.811 219.689 244.045C219.279 244.273 218.931 244.582 218.645 244.973C218.358 245.363 218.127 245.796 217.951 246.271C217.782 246.74 217.668 247.206 217.609 247.668ZM229.641 244.641L228.195 253H226.418L228.254 242.434H229.934L229.641 244.641ZM228.85 247.316L228.049 247.297C228.14 246.639 228.303 246.005 228.537 245.393C228.771 244.781 229.084 244.234 229.475 243.752C229.872 243.27 230.35 242.893 230.91 242.619C231.47 242.346 232.118 242.219 232.854 242.238C233.4 242.251 233.863 242.359 234.24 242.561C234.618 242.756 234.921 243.026 235.148 243.371C235.383 243.71 235.539 244.1 235.617 244.543C235.702 244.986 235.721 245.458 235.676 245.959L234.494 253H232.727L233.898 246.037C233.951 245.594 233.924 245.204 233.82 244.865C233.723 244.527 233.537 244.26 233.264 244.064C232.99 243.863 232.619 243.755 232.15 243.742C231.623 243.729 231.164 243.82 230.773 244.016C230.389 244.211 230.067 244.481 229.807 244.826C229.553 245.165 229.348 245.552 229.191 245.988C229.035 246.418 228.921 246.861 228.85 247.316ZM235.676 246.32L234.406 246.691C234.484 246.086 234.647 245.513 234.895 244.973C235.148 244.432 235.477 243.954 235.881 243.537C236.285 243.12 236.753 242.795 237.287 242.561C237.821 242.326 238.41 242.215 239.055 242.229C239.628 242.242 240.113 242.349 240.51 242.551C240.907 242.746 241.223 243.016 241.457 243.361C241.698 243.706 241.857 244.11 241.936 244.572C242.02 245.028 242.033 245.523 241.975 246.057L240.812 253H239.035L240.207 246.027C240.259 245.578 240.236 245.184 240.139 244.846C240.048 244.507 239.865 244.243 239.592 244.055C239.318 243.859 238.941 243.758 238.459 243.752C238.075 243.739 237.723 243.798 237.404 243.928C237.085 244.058 236.809 244.243 236.574 244.484C236.34 244.719 236.145 244.992 235.988 245.305C235.839 245.617 235.734 245.956 235.676 246.32Z" fill="#C1C1C1"/>
</g>
<defs>
<filter id="filter0_d_548_348" x="-4" y="0" width="449" height="551" filterUnits="userSpaceOnUse" color-interpolation-filters="sRGB">
<feFlood flood-opacity="0" result="BackgroundImageFix"/>
<feColorMatrix in="SourceAlpha" type="matrix" values="0 0 0 0 0 0 0 0 0 0 0 0 0 0 0 0 0 0 127 0" result="hardAlpha"/>
<feOffset dy="4"/>
<feGaussianBlur stdDeviation="2"/>
<feComposite in2="hardAlpha" operator="out"/>
<feColorMatrix type="matrix" values="0 0 0 0 0 0 0 0 0 0 0 0 0 0 0 0 0 0 0.25 0"/>
<feBlend mode="normal" in2="BackgroundImageFix" result="effect1_dropShadow_548_348"/>
<feBlend mode="normal" in="SourceGraphic" in2="effect1_dropShadow_548_348" result="shape"/>
</filter>
<filter id="filter1_d_548_348" x="27" y="445" width="382" height="70" filterUnits="userSpaceOnUse" color-interpolation-filters="sRGB">
<feFlood flood-opacity="0" result="BackgroundImageFix"/>
<feColorMatrix in="SourceAlpha" type="matrix" values="0 0 0 0 0 0 0 0 0 0 0 0 0 0 0 0 0 0 127 0" result="hardAlpha"/>
<feOffset dy="4"/>
<feGaussianBlur stdDeviation="2"/>
<feComposite in2="hardAlpha" operator="out"/>
<feColorMatrix type="matrix" values="0 0 0 0 0 0 0 0 0 0 0 0 0 0 0 0 0 0 0.25 0"/>
<feBlend mode="normal" in2="BackgroundImageFix" result="effect1_dropShadow_548_348"/>
<feBlend mode="normal" in="SourceGraphic" in2="effect1_dropShadow_548_348" result="shape"/>
</filter>
<clipPath id="clip0_548_348">
<rect width="441" height="543" rx="20" fill="white"/>
</clipPath>
</defs>
</svg>
