<svg xmlns="http://www.w3.org/2000/svg" xmlns:xlink="http://www.w3.org/1999/xlink" width="145" zoomAndPan="magnify" viewBox="0 0 108.75 108.75" height="145" preserveAspectRatio="xMidYMid meet" version="1.0"><path fill="#6b5a45" d="M 89.496094 19.253906 C 88.347656 18.101562 87.144531 17.011719 85.886719 15.980469 C 84.628906 14.949219 83.324219 13.980469 81.96875 13.074219 C 80.617188 12.171875 79.222656 11.335938 77.789062 10.570312 C 76.355469 9.804688 74.886719 9.109375 73.382812 8.484375 C 71.878906 7.863281 70.351562 7.316406 68.792969 6.84375 C 67.238281 6.371094 65.660156 5.976562 64.066406 5.660156 C 62.46875 5.34375 60.863281 5.101562 59.242188 4.945312 C 57.625 4.785156 56 4.703125 54.375 4.703125 C 52.75 4.703125 51.125 4.785156 49.507812 4.945312 C 47.886719 5.101562 46.28125 5.34375 44.683594 5.660156 C 43.089844 5.976562 41.511719 6.371094 39.957031 6.84375 C 38.398438 7.316406 36.871094 7.863281 35.367188 8.484375 C 33.863281 9.109375 32.394531 9.804688 30.960938 10.570312 C 29.527344 11.335938 28.132812 12.171875 26.78125 13.074219 C 25.425781 13.980469 24.121094 14.949219 22.863281 15.980469 C 21.605469 17.011719 20.402344 18.101562 19.253906 19.253906 C 18.101562 20.402344 17.011719 21.605469 15.980469 22.863281 C 14.949219 24.121094 13.980469 25.425781 13.074219 26.78125 C 12.171875 28.132812 11.335938 29.527344 10.570312 30.960938 C 9.804688 32.394531 9.109375 33.863281 8.484375 35.367188 C 7.863281 36.871094 7.316406 38.398438 6.84375 39.957031 C 6.371094 41.511719 5.976562 43.089844 5.660156 44.683594 C 5.34375 46.28125 5.101562 47.886719 4.945312 49.507812 C 4.785156 51.125 4.703125 52.75 4.703125 54.375 C 4.703125 56 4.785156 57.625 4.945312 59.242188 C 5.101562 60.863281 5.34375 62.46875 5.660156 64.066406 C 5.976562 65.660156 6.371094 67.238281 6.84375 68.792969 C 7.316406 70.351562 7.863281 71.878906 8.484375 73.382812 C 9.109375 74.886719 9.804688 76.355469 10.570312 77.789062 C 11.335938 79.222656 12.171875 80.617188 13.074219 81.96875 C 13.980469 83.324219 14.949219 84.628906 15.980469 85.886719 C 17.011719 87.144531 18.101562 88.347656 19.253906 89.496094 C 20.402344 90.648438 21.605469 91.738281 22.863281 92.769531 C 24.121094 93.800781 25.425781 94.769531 26.78125 95.675781 C 28.132812 96.578125 29.527344 97.414062 30.960938 98.179688 C 32.394531 98.945312 33.863281 99.640625 35.367188 100.265625 C 36.871094 100.886719 38.398438 101.433594 39.957031 101.90625 C 41.511719 102.378906 43.089844 102.773438 44.683594 103.089844 C 46.28125 103.40625 47.886719 103.648438 49.507812 103.804688 C 51.125 103.964844 52.75 104.046875 54.375 104.046875 C 56 104.046875 57.625 103.964844 59.242188 103.804688 C 60.863281 103.648438 62.46875 103.40625 64.066406 103.089844 C 65.660156 102.773438 67.238281 102.378906 68.792969 101.90625 C 70.351562 101.433594 71.878906 100.886719 73.382812 100.265625 C 74.886719 99.640625 76.355469 98.945312 77.789062 98.179688 C 79.222656 97.414062 80.617188 96.578125 81.96875 95.675781 C 83.324219 94.769531 84.628906 93.800781 85.886719 92.769531 C 87.144531 91.738281 88.347656 90.648438 89.496094 89.496094 C 90.648438 88.347656 91.738281 87.144531 92.769531 85.886719 C 93.800781 84.628906 94.769531 83.324219 95.675781 81.96875 C 96.578125 80.617188 97.414062 79.222656 98.179688 77.789062 C 98.945312 76.355469 99.640625 74.886719 100.265625 73.382812 C 100.886719 71.878906 101.433594 70.351562 101.90625 68.792969 C 102.378906 67.238281 102.773438 65.660156 103.089844 64.066406 C 103.40625 62.46875 103.648438 60.863281 103.804688 59.242188 C 103.964844 57.625 104.046875 56 104.046875 54.375 C 104.046875 52.75 103.964844 51.125 103.804688 49.507812 C 103.648438 47.886719 103.40625 46.28125 103.089844 44.683594 C 102.773438 43.089844 102.378906 41.511719 101.90625 39.957031 C 101.433594 38.398438 100.886719 36.871094 100.265625 35.367188 C 99.640625 33.863281 98.945312 32.394531 98.179688 30.960938 C 97.414062 29.527344 96.578125 28.132812 95.675781 26.78125 C 94.769531 25.425781 93.800781 24.121094 92.769531 22.863281 C 91.738281 21.605469 90.648438 20.402344 89.496094 19.253906 Z M 88.003906 88.003906 C 86.902344 89.105469 85.75 90.148438 84.546875 91.136719 C 83.339844 92.125 82.089844 93.050781 80.796875 93.917969 C 79.5 94.78125 78.167969 95.582031 76.792969 96.316406 C 75.417969 97.050781 74.011719 97.714844 72.574219 98.3125 C 71.136719 98.910156 69.671875 99.433594 68.179688 99.886719 C 66.691406 100.335938 65.179688 100.714844 63.652344 101.019531 C 62.125 101.324219 60.585938 101.550781 59.035156 101.703125 C 57.488281 101.855469 55.933594 101.933594 54.375 101.933594 C 52.816406 101.933594 51.261719 101.855469 49.714844 101.703125 C 48.164062 101.550781 46.625 101.324219 45.097656 101.019531 C 43.570312 100.714844 42.058594 100.335938 40.570312 99.886719 C 39.078125 99.433594 37.613281 98.910156 36.175781 98.3125 C 34.738281 97.714844 33.332031 97.050781 31.957031 96.316406 C 30.582031 95.582031 29.25 94.78125 27.953125 93.917969 C 26.660156 93.050781 25.410156 92.125 24.203125 91.136719 C 23 90.148438 21.847656 89.105469 20.746094 88.003906 C 19.644531 86.902344 18.601562 85.75 17.613281 84.546875 C 16.625 83.339844 15.699219 82.089844 14.832031 80.796875 C 13.96875 79.5 13.167969 78.167969 12.433594 76.792969 C 11.699219 75.417969 11.035156 74.011719 10.4375 72.574219 C 9.839844 71.136719 9.316406 69.671875 8.863281 68.179688 C 8.414062 66.691406 8.035156 65.179688 7.730469 63.652344 C 7.425781 62.125 7.199219 60.585938 7.046875 59.035156 C 6.894531 57.488281 6.816406 55.933594 6.816406 54.375 C 6.816406 52.816406 6.894531 51.261719 7.046875 49.714844 C 7.199219 48.164062 7.425781 46.625 7.730469 45.097656 C 8.035156 43.570312 8.414062 42.058594 8.863281 40.570312 C 9.316406 39.078125 9.839844 37.613281 10.4375 36.175781 C 11.035156 34.738281 11.699219 33.332031 12.433594 31.957031 C 13.167969 30.582031 13.96875 29.25 14.832031 27.953125 C 15.699219 26.660156 16.625 25.410156 17.613281 24.203125 C 18.601562 23 19.644531 21.847656 20.746094 20.746094 C 21.847656 19.644531 23 18.601562 24.203125 17.613281 C 25.410156 16.625 26.660156 15.699219 27.953125 14.832031 C 29.25 13.96875 30.582031 13.167969 31.957031 12.433594 C 33.332031 11.699219 34.738281 11.035156 36.175781 10.4375 C 37.613281 9.839844 39.078125 9.316406 40.570312 8.863281 C 42.058594 8.414062 43.570312 8.035156 45.097656 7.730469 C 46.625 7.425781 48.164062 7.199219 49.714844 7.046875 C 51.261719 6.894531 52.816406 6.816406 54.375 6.816406 C 55.933594 6.816406 57.488281 6.894531 59.035156 7.046875 C 60.585938 7.199219 62.125 7.425781 63.652344 7.730469 C 65.179688 8.035156 66.691406 8.414062 68.179688 8.863281 C 69.671875 9.316406 71.136719 9.839844 72.574219 10.4375 C 74.011719 11.035156 75.417969 11.699219 76.792969 12.433594 C 78.167969 13.167969 79.5 13.96875 80.796875 14.832031 C 82.089844 15.699219 83.339844 16.625 84.546875 17.613281 C 85.75 18.601562 86.902344 19.644531 88.003906 20.746094 C 89.105469 21.847656 90.148438 23 91.136719 24.203125 C 92.125 25.410156 93.050781 26.660156 93.917969 27.953125 C 94.78125 29.25 95.582031 30.582031 96.316406 31.957031 C 97.050781 33.332031 97.714844 34.738281 98.3125 36.175781 C 98.910156 37.613281 99.433594 39.078125 99.886719 40.570312 C 100.335938 42.058594 100.714844 43.570312 101.019531 45.097656 C 101.324219 46.625 101.550781 48.164062 101.703125 49.714844 C 101.855469 51.261719 101.933594 52.816406 101.933594 54.375 C 101.933594 55.933594 101.855469 57.488281 101.703125 59.035156 C 101.550781 60.585938 101.324219 62.125 101.019531 63.652344 C 100.714844 65.179688 100.335938 66.691406 99.886719 68.179688 C 99.433594 69.671875 98.910156 71.136719 98.3125 72.574219 C 97.714844 74.011719 97.050781 75.417969 96.316406 76.792969 C 95.582031 78.167969 94.78125 79.5 93.917969 80.796875 C 93.050781 82.089844 92.125 83.339844 91.136719 84.546875 C 90.148438 85.75 89.105469 86.902344 88.003906 88.003906 Z M 88.003906 88.003906 " fill-opacity="1" fill-rule="nonzero"/><path fill="#6b5a45" d="M 44.769531 29.582031 C 42.167969 28.453125 39.449219 27.851562 36.609375 27.777344 L 42.582031 38.117188 Z M 44.769531 29.582031 " fill-opacity="1" fill-rule="nonzero"/><path fill="#6b5a45" d="M 48.457031 52.640625 C 48.453125 52.59375 48.449219 52.546875 48.445312 52.5 L 42.261719 41.789062 L 32.121094 38.957031 C 32.0625 42.335938 32.734375 45.5625 34.136719 48.636719 Z M 48.457031 52.640625 " fill-opacity="1" fill-rule="nonzero"/><path fill="#6b5a45" d="M 34.78125 28.835938 C 33.425781 31.328125 32.585938 33.984375 32.265625 36.804688 L 40.753906 39.175781 Z M 34.78125 28.835938 " fill-opacity="1" fill-rule="nonzero"/><path fill="#6b5a45" d="M 72.136719 27.777344 C 69.300781 27.851562 66.582031 28.453125 63.980469 29.582031 L 66.167969 38.121094 Z M 72.136719 27.777344 " fill-opacity="1" fill-rule="nonzero"/><path fill="#6b5a45" d="M 64.660156 40.734375 L 62.042969 30.535156 C 59.085938 32.175781 56.628906 34.371094 54.667969 37.125 L 58.382812 51.605469 Z M 64.660156 40.734375 " fill-opacity="1" fill-rule="nonzero"/><path fill="#6b5a45" d="M 48.417969 48.226562 C 48.722656 44.546875 49.796875 41.109375 51.644531 37.914062 C 52.074219 37.175781 52.535156 36.460938 53.039062 35.765625 C 51.253906 33.628906 49.144531 31.886719 46.707031 30.535156 L 44.089844 40.734375 Z M 48.417969 48.226562 " fill-opacity="1" fill-rule="nonzero"/><path fill="#6b5a45" d="M 62.742188 78.976562 L 65.21875 78.976562 L 63.980469 75.894531 Z M 62.742188 78.976562 " fill-opacity="1" fill-rule="nonzero"/><path fill="#6b5a45" d="M 76.484375 36.804688 C 76.164062 33.984375 75.324219 31.328125 73.96875 28.835938 L 67.996094 39.175781 Z M 76.484375 36.804688 " fill-opacity="1" fill-rule="nonzero"/><path fill="#6b5a45" d="M 35.515625 51.214844 C 36.363281 52.597656 37.351562 53.871094 38.476562 55.035156 C 39.601562 56.199219 40.84375 57.226562 42.195312 58.121094 C 43.546875 59.015625 44.976562 59.75 46.492188 60.332031 C 48.003906 60.910156 49.5625 61.320312 51.164062 61.558594 C 50.046875 59.46875 49.257812 57.257812 48.800781 54.929688 Z M 35.515625 51.214844 " fill-opacity="1" fill-rule="nonzero"/><path fill="#6b5a45" d="M 54.375 12.46875 C 31.230469 12.46875 12.46875 31.230469 12.46875 54.375 C 12.46875 77.519531 31.230469 96.28125 54.375 96.28125 C 77.519531 96.28125 96.28125 77.519531 96.28125 54.375 C 96.28125 31.230469 77.519531 12.46875 54.375 12.46875 Z M 30.015625 38.574219 C 30.082031 36.367188 30.449219 34.210938 31.109375 32.101562 C 31.773438 29.996094 32.707031 28.019531 33.914062 26.171875 C 34.109375 25.875 34.382812 25.714844 34.738281 25.695312 C 36.585938 25.597656 38.421875 25.710938 40.242188 26.035156 C 42.066406 26.355469 43.828125 26.882812 45.53125 27.609375 C 47.234375 28.335938 48.832031 29.246094 50.324219 30.339844 C 51.816406 31.429688 53.167969 32.679688 54.378906 34.082031 C 56.347656 31.796875 58.664062 29.945312 61.320312 28.519531 C 63.265625 27.472656 65.316406 26.710938 67.472656 26.234375 C 69.628906 25.753906 71.808594 25.574219 74.011719 25.695312 C 74.367188 25.714844 74.640625 25.875 74.835938 26.171875 C 76.042969 28.019531 76.976562 29.996094 77.640625 32.101562 C 78.300781 34.210938 78.667969 36.367188 78.734375 38.574219 C 78.769531 39.710938 78.722656 40.847656 78.601562 41.984375 C 78.476562 43.117188 78.273438 44.234375 77.996094 45.339844 C 77.714844 46.445312 77.363281 47.527344 76.933594 48.585938 C 76.503906 49.640625 76.007812 50.664062 75.4375 51.648438 C 74.867188 52.636719 74.230469 53.582031 73.53125 54.480469 C 72.828125 55.378906 72.070312 56.226562 71.253906 57.019531 C 70.433594 57.816406 69.566406 58.550781 68.644531 59.222656 C 67.726562 59.898438 66.765625 60.503906 65.761719 61.046875 C 62.21875 62.949219 58.433594 63.902344 54.414062 63.90625 C 54.183594 63.90625 53.953125 63.902344 53.726562 63.898438 L 51.011719 68.59375 C 50.945312 68.714844 50.851562 68.820312 50.742188 68.90625 C 50.632812 68.992188 50.507812 69.050781 50.371094 69.089844 C 50.238281 69.125 50.097656 69.132812 49.960938 69.117188 C 49.820312 69.097656 49.691406 69.054688 49.570312 68.984375 C 49.445312 68.914062 49.34375 68.824219 49.257812 68.710938 C 49.171875 68.597656 49.113281 68.476562 49.074219 68.339844 C 49.039062 68.203125 49.03125 68.066406 49.050781 67.929688 C 49.070312 67.789062 49.113281 67.660156 49.183594 67.535156 L 51.386719 63.722656 C 50.640625 63.621094 49.898438 63.488281 49.164062 63.324219 C 48.425781 63.15625 47.699219 62.953125 46.984375 62.722656 C 46.265625 62.488281 45.5625 62.222656 44.871094 61.921875 C 44.175781 61.625 43.5 61.292969 42.839844 60.933594 C 42.175781 60.574219 41.53125 60.183594 40.90625 59.761719 C 40.277344 59.339844 39.671875 58.894531 39.089844 58.417969 C 38.503906 57.941406 37.941406 57.441406 37.402344 56.914062 C 36.863281 56.386719 36.347656 55.835938 35.859375 55.261719 C 35.371094 54.6875 34.910156 54.089844 34.476562 53.472656 C 34.042969 52.855469 33.640625 52.21875 33.265625 51.566406 C 32.890625 50.910156 32.546875 50.242188 32.230469 49.554688 C 31.917969 48.871094 31.636719 48.171875 31.386719 47.460938 C 31.136719 46.746094 30.921875 46.027344 30.738281 45.292969 C 30.554688 44.5625 30.40625 43.824219 30.292969 43.078125 C 30.175781 42.335938 30.097656 41.585938 30.050781 40.832031 C 30.003906 40.078125 29.992188 39.328125 30.015625 38.574219 Z M 35.042969 82.855469 L 32.359375 82.855469 L 28.242188 73.222656 L 31.1875 73.222656 L 33.804688 79.5 L 36.472656 73.222656 L 39.167969 73.222656 Z M 47.46875 82.855469 L 39.734375 82.855469 L 39.734375 73.222656 L 47.289062 73.222656 L 47.289062 75.328125 L 42.429688 75.328125 L 42.429688 76.953125 L 46.710938 76.953125 L 46.710938 78.988281 L 42.429688 78.988281 L 42.429688 80.75 L 47.46875 80.75 Z M 51.566406 79.464844 C 51.792969 79.882812 52.117188 80.210938 52.53125 80.441406 C 52.972656 80.683594 53.445312 80.800781 53.949219 80.792969 C 54.460938 80.796875 54.953125 80.691406 55.421875 80.476562 L 55.421875 77.835938 L 57.828125 77.835938 L 57.828125 81.824219 C 57.246094 82.234375 56.613281 82.539062 55.929688 82.734375 C 55.230469 82.941406 54.515625 83.046875 53.785156 83.050781 C 52.820312 83.066406 51.914062 82.851562 51.058594 82.410156 C 50.257812 81.996094 49.625 81.402344 49.160156 80.628906 C 48.703125 79.828125 48.472656 78.964844 48.472656 78.039062 C 48.472656 77.117188 48.703125 76.253906 49.160156 75.453125 C 49.628906 74.675781 50.265625 74.082031 51.074219 73.671875 C 51.941406 73.230469 52.863281 73.015625 53.839844 73.03125 C 54.675781 73.019531 55.484375 73.167969 56.261719 73.484375 C 56.964844 73.777344 57.558594 74.210938 58.050781 74.792969 L 56.316406 76.363281 C 55.703125 75.640625 54.921875 75.285156 53.976562 75.289062 C 53.605469 75.265625 53.242188 75.316406 52.894531 75.449219 C 52.546875 75.582031 52.242188 75.777344 51.976562 76.042969 C 51.714844 76.304688 51.515625 76.613281 51.386719 76.960938 C 51.253906 77.308594 51.199219 77.667969 51.222656 78.039062 C 51.214844 78.546875 51.328125 79.019531 51.566406 79.464844 Z M 66.773438 82.855469 L 66.015625 80.984375 L 61.945312 80.984375 L 61.1875 82.855469 L 58.40625 82.855469 L 62.660156 73.222656 L 65.34375 73.222656 L 69.609375 82.855469 Z M 79.542969 82.855469 L 77.300781 82.855469 L 73.046875 77.722656 L 73.046875 82.855469 L 70.378906 82.855469 L 70.378906 73.222656 L 72.621094 73.222656 L 76.875 78.355469 L 76.875 73.222656 L 79.542969 73.222656 Z M 79.542969 82.855469 " fill-opacity="1" fill-rule="nonzero"/><path fill="#6b5a45" d="M 50.457031 50.921875 C 50.566406 54.402344 51.453125 57.671875 53.113281 60.730469 L 56.871094 54.222656 L 53.121094 39.605469 C 51.222656 43.140625 50.332031 46.914062 50.457031 50.921875 Z M 50.457031 50.921875 " fill-opacity="1" fill-rule="nonzero"/><path fill="#6b5a45" d="M 54.945312 61.785156 C 58.421875 61.695312 61.695312 60.828125 64.765625 59.183594 C 68.300781 57.285156 71.121094 54.628906 73.234375 51.21875 L 58.699219 55.277344 Z M 54.945312 61.785156 " fill-opacity="1" fill-rule="nonzero"/><path fill="#6b5a45" d="M 60.210938 52.664062 L 74.613281 48.636719 C 76.015625 45.5625 76.6875 42.335938 76.628906 38.957031 L 66.488281 41.789062 Z M 60.210938 52.664062 " fill-opacity="1" fill-rule="nonzero"/></svg>