<?xml version="1.0" encoding="utf-8"?>
<!-- Generator: Adobe Illustrator 24.0.2, SVG Export Plug-In . SVG Version: 6.00 Build 0)  -->
<svg version="1.1" id="Capa_1" xmlns="http://www.w3.org/2000/svg" xmlns:xlink="http://www.w3.org/1999/xlink" x="0px" y="0px"
	 viewBox="0 0 32 32" style="enable-background:new 0 0 32 32;" xml:space="preserve">
<style type="text/css">
	.st0{fill:#FFFFFF;}
</style>
<path class="st0" d="M16.3,7.5c-4.5,0-8.2,3.7-8.2,8.2c0,1.6,0.5,3.1,1.3,4.4l0.2,0.3l-0.8,2.8l3-0.7l0.3,0.2
	c1.3,0.8,2.7,1.1,4.2,1.1c4.5,0,8.2-3.7,8.2-8.2C24.5,11.2,20.8,7.5,16.3,7.5z M21,19.2c-0.1,0.4-0.9,0.9-1.5,1.1
	c-1.4,0.4-3.3-0.7-5.2-2.3c-1.9-1.7-3.2-3.4-3-4.8c0.1-0.6,0.5-1.5,0.8-1.6c0.4-0.1,0.6,0,1,0.1c0.2,0.2,0.4,0.5,0.7,0.8
	c0.4,0.4,0.6,0.8,0.8,1c0.1,0.2,0.1,0.5-0.1,0.6l-0.7,0.6c-0.1,0.1-0.2,0.3-0.1,0.4c0.2,0.4,0.7,1.3,1.4,1.9c0.7,0.6,1.7,1,2.1,1.1
	c0.1,0,0.3,0,0.4-0.1l0.5-0.7c0.1-0.2,0.4-0.3,0.6-0.2c0.3,0.1,0.7,0.3,1.1,0.6c0.3,0.2,0.6,0.4,0.9,0.6
	C20.9,18.6,21.1,18.8,21,19.2z"/>
<g>
	<g>
		<path class="st0" d="M16,0.6C7.4,0.6,0.5,7.5,0.5,16S7.4,31.5,16,31.5S31.5,24.6,31.5,16C31.5,7.5,24.5,0.6,16,0.6z M16.3,25.6
			c-1.7,0-3.3-0.4-4.7-1.2l-5,1.2l1.3-4.8c-0.9-1.5-1.4-3.2-1.4-5c0-5.4,4.4-9.8,9.8-9.8s9.8,4.4,9.8,9.8S21.7,25.6,16.3,25.6z"/>
	</g>
</g>
</svg>
